<svg width="2109" height="814" viewBox="0 0 2109 814" fill="none" xmlns="http://www.w3.org/2000/svg">
<g id="b-mountain">
<path id="big-mountain" d="M1074.43 73.4464L995.443 138.035C995.188 138.244 994.917 138.43 994.632 138.594L938.066 171.072L881.703 212.062C881.283 212.367 880.826 212.616 880.342 212.804L783.594 250.29L669.604 303.057L643.307 312.377C642.387 312.703 641.401 312.8 640.435 312.658L616.946 309.223C616.193 309.113 615.425 309.147 614.684 309.324L600.421 312.732C600.025 312.826 599.64 312.961 599.271 313.133L581.182 321.6L560.142 328.417L511.936 347.233L483.88 354.149C483.41 354.265 482.928 354.324 482.444 354.324H463.615C462.473 354.324 461.354 354.65 460.391 355.263L438.642 369.12C438.148 369.435 437.61 369.675 437.046 369.834L402.026 379.708C401.441 379.873 400.884 380.126 400.375 380.458L373.87 397.759C373.624 397.919 373.39 398.098 373.169 398.293L351.5 417.5L314.905 448.24C314.307 448.742 313.618 449.122 312.874 449.36L277.074 460.816C276.692 460.938 276.324 461.099 275.974 461.294L247.444 477.252C247.148 477.417 246.868 477.607 246.604 477.819L190.472 523.119C190.158 523.372 189.871 523.657 189.614 523.967L161.888 557.53C161.63 557.843 161.341 558.128 161.026 558.382L70.2034 631.531C69.414 632.167 68.7986 632.992 68.4145 633.93L3.38805 792.726C1.77154 796.674 4.67483 801 8.94056 801H276.5H1717L2099.95 813.716C2104.11 813.854 2107.14 809.82 2105.85 805.864L2075.13 711.408C2075.04 711.136 2074.94 710.871 2074.81 710.615L2028.85 617.209C2028.62 616.738 2028.32 616.3 2027.98 615.905L1958 536L1879 461L1776.93 356.806C1775.43 355.27 1773.22 354.657 1771.14 355.197L1678.2 379.333C1676.67 379.733 1675.03 379.505 1673.66 378.701L1588.38 328.691C1588.07 328.509 1587.78 328.299 1587.5 328.065L1533.05 281.241L1491.31 242.195C1490.39 241.341 1489.24 240.793 1488 240.629L1449.73 235.539C1449.17 235.465 1448.63 235.314 1448.11 235.09L1405.91 216.646C1405.45 216.442 1405.01 216.18 1404.61 215.866L1336.86 162.631C1336.62 162.441 1336.39 162.232 1336.18 162.007L1279.5 101.261L1247.01 66.9017L1200.87 4.43516C1199.74 2.90368 1197.95 2 1196.04 2H1154.01C1152.5 2 1151.05 2.56975 1149.94 3.59549L1074.43 73.4464Z" fill="url(#paint0_linear_87_80)"/>
<path id="sow" d="M1132 133.5C1130.94 133.5 1126.66 127.749 1120.49 122.845C1119.06 121.711 1117.04 121.834 1115.66 123.028L1111.33 126.782C1110.79 127.252 1110.38 127.859 1110.15 128.54L1109.25 131.24C1108.79 132.632 1107.6 133.659 1106.15 133.914L1101.51 134.733C1100.54 134.905 1099.54 134.71 1098.7 134.186L1096.35 132.717C1096.12 132.573 1095.9 132.405 1095.7 132.218L1093.09 129.721C1092.6 129.252 1092 128.917 1091.34 128.745L1089.22 128.188C1088.74 128.064 1088.3 127.853 1087.9 127.566L1086.76 126.746C1085.32 125.714 1083.38 125.745 1081.98 126.822L1078.81 129.26C1078.6 129.42 1078.41 129.599 1078.24 129.796L1075.82 132.557C1075.29 133.171 1074.58 133.606 1073.78 133.804L1070.68 134.58C1069.61 134.848 1068.47 134.661 1067.54 134.065L1062 130.5L1057.65 127.491C1056.35 126.586 1054.63 126.542 1053.27 127.379L1049.11 129.959C1046.97 131.278 1044.17 130.334 1043.27 127.993L1042.5 126L1039.32 120.103C1039.11 119.704 1038.83 119.344 1038.49 119.039L1034.32 115.247C1033.78 114.758 1033.39 114.132 1033.18 113.437L1032.36 110.713C1032.13 109.924 1032.14 109.08 1032.4 108.299L1033.12 106.129C1033.37 105.392 1033.82 104.743 1034.43 104.26L1065 80L1080.5 66L1095 52.5L1106.5 42L1117.5 32.3927L1133 17.5L1142 9.5L1145.91 6.02722C1146.3 5.67726 1146.74 5.38068 1147.21 5.14511L1150.5 3.5L1154.02 1.73956C1154.34 1.58056 1154.68 1.46467 1155.03 1.39495L1158.82 0.635935C1159.27 0.545533 1159.73 0.5 1160.19 0.5H1175L1186.82 0.0455594C1187.6 0.0153171 1188.39 0.0883244 1189.16 0.262714L1197.03 2.05229C1198.32 2.34479 1199.5 2.9952 1200.43 3.92847L1208.09 11.5903C1208.36 11.863 1208.61 12.1577 1208.84 12.4714L1218.5 26L1232.5 44.5L1248.5 66.5L1262.5 81L1276.5 96L1292 111.5L1303.03 124.3C1303.8 125.188 1303.58 126.552 1302.58 127.155C1302.2 127.378 1301.77 127.466 1301.34 127.405L1293.41 126.272C1292.2 126.1 1291.14 125.389 1290.52 124.341L1288.74 121.3C1287.54 119.264 1284.85 118.703 1282.93 120.093L1281.46 121.167C1281.15 121.388 1280.88 121.65 1280.65 121.946L1277.34 126.21C1275.68 128.338 1272.44 128.252 1270.9 126.038L1267.5 121.152C1266.59 119.845 1264.99 119.202 1263.43 119.514L1261.78 119.845C1261.26 119.947 1260.78 120.149 1260.34 120.439L1257.64 122.239C1256.9 122.732 1256.35 123.458 1256.07 124.302L1254.22 129.828C1254.08 130.273 1253.85 130.688 1253.56 131.054L1246.37 140.086C1244.7 142.192 1243.21 141.91 1242.28 139.383C1239.46 131.703 1232.33 118.906 1230.62 129.6C1230.53 130.17 1230.37 130.772 1230.26 131.34C1229.78 133.99 1229.28 140.979 1221.2 137.332C1220.74 137.124 1220.33 136.807 1219.99 136.431L1215.25 131.134C1213.57 129.254 1210.59 129.382 1209.07 131.4L1208.27 132.468C1207.22 133.869 1205.37 134.422 1203.72 133.832L1201.47 133.028C1200.53 132.688 1199.74 132.004 1199.28 131.111L1197.01 126.775C1196.38 125.565 1195.18 124.76 1193.82 124.641L1190.22 124.325C1188.12 124.142 1186.25 125.61 1185.92 127.686L1185.28 131.718C1185.1 132.851 1184.45 133.853 1183.48 134.469L1176.75 138.75C1175.15 139.769 1173.06 139.48 1171.61 138.251C1157.48 126.252 1152.69 146.371 1147 144C1143.77 142.654 1133.5 133.5 1132 133.5Z" fill="url(#paint1_linear_87_80)"/>
</g>
<defs>
<linearGradient id="paint0_linear_87_80" x1="1043" y1="2" x2="1043" y2="801" gradientUnits="userSpaceOnUse">
<stop stop-color="#CC9FEF"/>
<stop offset="0.248958" stop-color="#BE90E6"/>
<stop offset="0.7125" stop-color="#36008E"/>
</linearGradient>
<linearGradient id="paint1_linear_87_80" x1="1168" y1="0.5" x2="1168" y2="144.357" gradientUnits="userSpaceOnUse">
<stop stop-color="#C4B0E6"/>
<stop offset="0.567708" stop-color="#DCD0F0"/>
<stop offset="1" stop-color="white"/>
</linearGradient>
</defs>
</svg>
