<svg width="1144" height="477" viewBox="0 0 1144 477" fill="none" xmlns="http://www.w3.org/2000/svg">
<path id="small-mountain" d="M502.924 198.37L355.52 130.326C354.816 130.001 354.197 129.517 353.712 128.912L252.001 1.87499C251.052 0.689826 249.616 0 248.098 0H239.229C237.528 2.09868e-06 235.944 0.864416 235.024 2.29462L79.8179 243.525C79.6067 243.854 79.4347 244.206 79.3053 244.574L0.338229 469.395C-0.803956 472.646 1.6091 476.052 5.05568 476.052H137.14H345.378H645.156H912.975H1002.78H1138.74C1142.24 476.052 1144.66 472.543 1143.41 469.27L1097.59 349.136C1097.45 348.764 1097.26 348.41 1097.04 348.082L1067.75 305.55C1065.64 302.476 1061.02 302.721 1059.24 306L1036.72 347.496C1034.71 351.191 1029.32 350.912 1027.7 347.029L1003 287.589C1002.85 287.229 1002.66 286.887 1002.43 286.571L957.129 224.138C956.926 223.858 956.695 223.6 956.439 223.368L911.67 182.82C909.709 181.044 906.705 181.103 904.815 182.954L843.595 242.913C842.86 243.633 841.921 244.109 840.905 244.275L743.408 260.261L646.402 286.707C645.585 286.93 644.725 286.942 643.902 286.741L580.023 271.157C579.165 270.947 578.379 270.515 577.743 269.904L504.293 199.305C503.892 198.92 503.429 198.604 502.924 198.37Z" fill="url(#paint0_linear_87_505)"/>
<defs>
<linearGradient id="paint0_linear_87_505" x1="668.5" y1="-26" x2="681.369" y2="462.504" gradientUnits="userSpaceOnUse">
<stop stop-color="#EB7F00"/>
<stop offset="1" stop-color="#572C2C"/>
</linearGradient>
</defs>
</svg>
