<svg width="1810" height="544" viewBox="0 0 1810 544" fill="none" xmlns="http://www.w3.org/2000/svg">
<g id="b-mountain">
<path id="big-mountain" d="M799.064 9.06173L789.611 16.9738C789.357 17.1865 789.086 17.3778 788.8 17.5456L782.167 21.4438L775.739 26.2283C775.318 26.5421 774.857 26.7991 774.369 26.9928L763.026 31.4912L748.901 38.1838L746.898 38.9101C745.96 39.2506 744.951 39.3515 743.964 39.2037L743.401 39.1194C742.631 39.004 741.845 39.0399 741.088 39.225L740.859 39.2809C740.457 39.3793 740.066 39.5191 739.692 39.6981L737.944 40.5357L735.337 41.4003L729.363 43.7868L726.522 44.5038C726.042 44.6249 725.549 44.6861 725.054 44.6861H724.942C723.779 44.6861 722.64 45.0246 721.665 45.6602L720.94 46.1328C720.442 46.4578 719.898 46.7068 719.327 46.8717L716.529 47.679C715.936 47.8501 715.373 48.1118 714.86 48.4547L712.209 50.2257L708.461 52.4258C708.152 52.6075 707.859 52.8166 707.587 53.0506L704.996 55.2782C703.988 56.1448 702.575 56.3618 701.354 55.8375C700.211 55.3473 698.894 55.5032 697.898 56.2466L697.09 56.8502C696.721 57.1255 696.317 57.3508 695.89 57.5205L692.454 58.8832C691.873 59.1135 691.332 59.4331 690.85 59.8305L684.296 65.2319C683.222 66.1176 681.873 66.602 680.48 66.602H678.681C677.824 66.602 676.978 66.7854 676.198 67.1401L655.864 76.3858C655.084 76.7405 654.237 76.9239 653.38 76.9239H629.281C628.341 76.9239 627.415 77.1447 626.576 77.5685L611.444 85.2128C610.757 85.5599 610.01 85.7715 609.243 85.8362L577.009 88.5525L513.016 100.552C512.673 100.617 512.336 100.711 512.008 100.834L406.186 140.669C405.73 140.841 405.256 140.956 404.772 141.013L311.784 151.936C310.938 152.036 310.122 152.314 309.392 152.753L188.649 225.367C187.892 225.822 187.245 226.438 186.754 227.172L88.5 374L4.56586 535.229C2.48644 539.224 5.38467 544 9.88788 544H212.5H799.064H959.13H1210.06H1647.5H1792.4C1798.12 544 1800.6 536.746 1796.06 533.249L1671.03 436.797C1670.35 436.272 1669.57 435.899 1668.73 435.704L1493.03 394.741C1492.35 394.582 1491.7 394.303 1491.11 393.919L1413.04 342.854C1412.68 342.619 1412.35 342.345 1412.05 342.038L1327.98 256.487C1327.66 256.163 1327.31 255.877 1326.92 255.633L1281.49 226.678C1280.85 226.268 1280.14 225.985 1279.39 225.843L1210.62 212.773C1210.25 212.702 1209.88 212.596 1209.53 212.456L1174.67 198.638L1143.42 183.014L1122.74 175.221C1121.87 174.894 1121.09 174.372 1120.46 173.695L1113.73 166.462C1113.12 165.814 1112.39 165.308 1111.56 164.979L1080.44 152.528C1079.71 152.237 1079.04 151.806 1078.48 151.259L1067.85 140.928L1039.03 110.848C1038.69 110.497 1038.31 110.187 1037.9 109.927L1024.69 101.577C1023.73 100.971 1022.62 100.649 1021.48 100.649H1008.21C1006.98 100.649 1005.78 100.272 1004.77 99.5693L984.956 85.7383L973.617 75.347C973.313 75.0681 972.98 74.8214 972.625 74.6107L961.244 67.856C959.889 67.0524 958.274 66.8133 956.745 67.1904L945.405 69.9875C944.172 70.2916 942.874 70.1966 941.698 69.7162L910.229 56.8566C909.964 56.7484 909.692 56.6593 909.415 56.59L878.688 48.9057L874.635 48.1368C873.939 48.0048 873.272 47.7507 872.665 47.3863L863.159 41.6808C862.849 41.4942 862.555 41.2799 862.283 41.0403L855.894 35.4168L851.956 31.6464C851.04 30.77 849.871 30.206 848.615 30.0351L846.319 29.7225C845.753 29.6454 845.2 29.4877 844.678 29.2543L840.76 27.5014C840.29 27.2915 839.85 27.0221 839.449 26.6998L831.899 20.6276C831.659 20.4342 831.434 20.2224 831.226 19.9943L824.476 12.5896L820.449 8.23165L816.305 2.48886C815.177 0.925932 813.367 0 811.44 0H811.024C809.49 0 808.013 0.588015 806.899 1.64312L799.064 9.06173Z" fill="url(#paint0_linear_87_502)"/>
<path id="sow" d="M806.136 16.9321C806.029 16.9321 805.659 16.4504 805.113 15.9361C804.719 15.5643 804.115 15.601 803.709 15.9607L803.659 16.0052C803.536 16.1139 803.445 16.2532 803.394 16.4089C803.29 16.7312 803.016 16.9697 802.683 17.03L802.588 17.047C802.32 17.0955 802.043 17.0407 801.813 16.8938L801.778 16.8711C801.71 16.8274 801.646 16.7767 801.588 16.72L801.427 16.5624C801.292 16.4312 801.127 16.3367 800.945 16.2881L800.868 16.2675C800.787 16.2457 800.711 16.209 800.644 16.1592C800.399 15.9795 800.065 15.9848 799.827 16.1723L799.59 16.3595C799.534 16.4029 799.484 16.4517 799.438 16.505L799.281 16.6888C799.146 16.8472 798.965 16.9599 798.763 17.0115C798.487 17.0821 798.194 17.0331 797.956 16.8765L797.462 16.5516L797.1 16.2951C796.832 16.105 796.475 16.0958 796.198 16.2718L796.099 16.3339C795.716 16.5771 795.206 16.4061 795.046 15.9809L794.778 15.4716C794.668 15.263 794.524 15.0745 794.351 14.9139L794.158 14.7341C794.009 14.5955 793.9 14.4193 793.843 14.224L793.831 14.183C793.775 13.9909 793.778 13.7863 793.84 13.596C793.899 13.4142 794.009 13.2533 794.158 13.1327L797.834 10.1466L799.754 8.37095L801.551 6.65871L802.976 5.32697L804.339 4.10845L806.26 2.21957L807.375 1.20491L807.521 1.07229C807.794 0.823582 808.099 0.612278 808.428 0.443914L808.679 0.315526C808.842 0.232393 809.015 0.171697 809.194 0.135101C809.426 0.087433 809.663 0.0634163 809.901 0.0634163H811.464L812.555 0.020494C812.9 0.00689282 813.246 0.0397018 813.583 0.118043C814.141 0.248019 814.651 0.535109 815.052 0.945435L815.356 1.25685C815.529 1.43331 815.686 1.62366 815.828 1.82597L816.855 3.29765L818.589 5.64405L820.572 8.43436L822.307 10.2734L824.042 12.1759L825.962 14.1418L827.333 15.769C827.427 15.8806 827.399 16.0496 827.275 16.1259C827.228 16.1551 827.171 16.1667 827.116 16.1586L826.271 16.0351C826.037 16.0009 825.832 15.8612 825.714 15.6561L825.657 15.5572C825.457 15.209 824.998 15.1137 824.675 15.3535C824.625 15.3911 824.58 15.4356 824.542 15.4857L824.453 15.6024C824.099 16.0689 823.391 16.0502 823.062 15.5656L823.014 15.4949C822.848 15.2516 822.553 15.1315 822.265 15.1905C822.17 15.2099 822.08 15.248 822 15.3025L821.914 15.3611C821.687 15.5162 821.517 15.7424 821.432 16.0042L821.334 16.306C821.281 16.4685 821.2 16.6207 821.095 16.7556C820.492 17.5317 819.767 17.3643 819.26 16.5223C818.965 16.0328 818.646 15.7204 818.464 16.0642C818.308 16.3565 818.327 16.7233 818.237 17.0418C818.143 17.3755 817.925 17.7097 817.298 17.4646C817.166 17.4133 817.055 17.3215 816.962 17.2154L816.522 16.7126C816.28 16.4348 815.842 16.4535 815.624 16.751C815.472 16.9578 815.202 17.0395 814.961 16.9513L814.839 16.9065C814.661 16.8415 814.514 16.7116 814.429 16.543L814.266 16.2232C814.142 15.9802 813.902 15.818 813.63 15.7936C813.214 15.7563 812.84 16.0489 812.776 16.4622L812.763 16.5434C812.725 16.7908 812.584 17.0102 812.374 17.1468L812.228 17.242C811.714 17.5768 811.064 17.4338 810.509 17.1723C809.162 16.5375 808.623 18.5317 807.995 18.2639C807.594 18.0932 806.322 16.9321 806.136 16.9321Z" fill="url(#paint1_linear_87_502)"/>
</g>
<defs>
<linearGradient id="paint0_linear_87_502" x1="795.17" y1="9.77894e-06" x2="783" y2="421" gradientUnits="userSpaceOnUse">
<stop stop-color="#FFB800"/>
<stop offset="1" stop-color="#533333"/>
</linearGradient>
<linearGradient id="paint1_linear_87_502" x1="810.597" y1="0.0634163" x2="810.597" y2="18.3091" gradientUnits="userSpaceOnUse">
<stop stop-color="#E59D11"/>
<stop offset="1" stop-color="#FFF2DA"/>
</linearGradient>
</defs>
</svg>
