<svg width="1470" height="263" viewBox="0 0 1470 263" fill="none" xmlns="http://www.w3.org/2000/svg">
<g id="lake">
<path id="lake_2" d="M668.768 0H563.109H487.661L331.77 12.8361L205.857 23.2272H109.924H34.4762H0.00012207V261H1440V0L1250.5 12.8361L1041.5 23.2271L806.5 12.8361H743L668.768 0Z" fill="url(#paint0_linear_87_506)"/>
<g id="sakura-tree-reflection" opacity="0.3">
<path id="sakura-trunk" d="M1086.87 175.793L1048.33 137.152C1047.64 136.458 1048.25 135.285 1049.22 135.462L1080.91 141.27C1080.96 141.28 1081.01 141.293 1081.06 141.31L1123.14 155.974C1123.55 156.118 1124.01 155.978 1124.27 155.627L1134.66 141.669C1134.84 141.426 1135.12 141.278 1135.42 141.267L1193.57 139.155C1193.63 139.152 1193.7 139.156 1193.76 139.166L1234.83 145.534C1234.89 145.545 1234.97 145.548 1235.04 145.544L1271.43 143.417H1308.26L1347.61 145.55H1401.44C1401.53 145.55 1401.62 145.539 1401.7 145.516L1425.21 139.196C1425.32 139.166 1425.44 139.156 1425.55 139.165L1451.35 141.204C1451.9 141.248 1452.32 141.741 1452.26 142.298L1440.59 261.598C1440.54 262.11 1440.11 262.5 1439.59 262.5H1308.64C1308.39 262.5 1308.15 262.408 1307.97 262.241L1258.3 217.232C1258.15 217.096 1257.96 217.009 1257.76 216.982L1171.12 205.575C1171.05 205.566 1170.98 205.55 1170.92 205.527L1087.25 176.03C1087.11 175.98 1086.98 175.899 1086.87 175.793Z" fill="url(#paint1_linear_87_506)"/>
</g>
<g id="b-mountain-reflection" opacity="0.3">
<path id="big-mountain" d="M598.564 181.873L588.729 180.046L581.667 179.125L574.604 177.958L562.526 176.895L548.401 175.409L544.969 175.133L541.734 175.24L539.754 175.133L537.444 174.887L534.837 174.695L528.863 174.165L525.299 173.966H523.019C522.779 173.966 522.54 173.948 522.303 173.914L519.689 173.536L515.135 173.244L511.709 172.736L507.496 172.187L503.55 171.434C503.085 171.345 502.61 171.323 502.139 171.368L499.657 171.604C499.226 171.645 498.792 171.63 498.365 171.56L496.034 171.174L491.077 170.737L482.581 169.183C482.284 169.128 481.983 169.101 481.681 169.101H476.881L454.18 166.81H427.352L409.904 164.853L376.509 164.229L309.532 163.187L16.8224 152.774C14.1318 152.678 12.0001 150.47 12.0001 147.777V94.1916C12.0001 91.4387 14.2255 89.2036 16.9785 89.1917L499.008 87.1045H709.331L805.819 84.8848L1009.56 87.1045H1469.5L1291.5 96.3164L1212 107.859L1127 127.06L1080.02 133.706L1009.56 136.678L974.167 139.793L942.92 143.26L921.296 145.069C921.046 145.09 920.798 145.13 920.553 145.188L912.666 147.069C912.43 147.125 912.19 147.164 911.949 147.185L878.833 150.126L867.355 152.603L838.022 159.397L822.717 161.543H806.204C805.948 161.543 805.692 161.563 805.438 161.602L784.457 164.853L772.659 167.253L759.092 169.04C758.785 169.081 758.475 169.092 758.166 169.075L743.37 168.265C743.129 168.252 742.886 168.257 742.645 168.278L709.331 171.3L678.188 173.029L673.083 173.244L662.192 174.695L655.394 176.023L650.487 177.066C650.194 177.128 649.897 177.164 649.598 177.173L644.965 177.313L639.553 177.85L631.038 179.37L623.976 181.09L619.949 182.058L614.727 183.664C614.251 183.81 613.756 183.885 613.257 183.885H608.654C608.309 183.885 607.964 183.849 607.626 183.778L598.564 181.873Z" fill="url(#paint2_linear_87_506)"/>
<path id="sow" d="M605.636 180.126C605.512 180.126 605.032 180.271 604.334 180.403C604.049 180.457 603.756 180.45 603.471 180.393L603.095 180.319C603.014 180.303 602.937 180.271 602.869 180.225C602.774 180.16 602.664 180.124 602.549 180.119L601.924 180.094C601.756 180.087 601.587 180.096 601.42 180.12L601.175 180.154L601.024 180.187C600.823 180.231 600.619 180.259 600.414 180.271L600.246 180.281C599.905 180.337 599.557 180.335 599.216 180.275L599.007 180.239L598.929 180.219C598.692 180.157 598.45 180.119 598.206 180.105C597.956 180.091 597.705 180.102 597.457 180.138L596.962 180.211L596.544 180.276C596.287 180.317 596.026 180.319 595.768 180.283L595.212 180.205C594.981 180.172 594.746 180.219 594.546 180.337L594.306 180.439C594.177 180.493 594.043 180.535 593.906 180.563L593.463 180.655C593.442 180.659 593.422 180.668 593.405 180.681L593.4 180.684C593.324 180.742 593.327 180.858 593.406 180.912C593.422 180.923 593.441 180.93 593.46 180.934L597.334 181.632L599.255 182.027L601.051 182.407L602.476 182.702L603.839 182.973L605.76 183.392L606.875 183.617L607.433 183.73L607.929 183.786L608.424 183.843L609.044 183.871H610.964L612.575 183.885L613.336 183.845C613.737 183.825 614.135 183.77 614.526 183.681L615.116 183.547L616.355 183.153L618.09 182.632L620.072 182.013L621.807 181.604L623.542 181.182L625.462 180.746L626.714 180.416C626.779 180.399 626.773 180.305 626.707 180.296C626.703 180.295 626.7 180.295 626.696 180.295L625.655 180.329C625.487 180.335 625.32 180.368 625.163 180.429C624.913 180.526 624.641 180.554 624.377 180.51L624.099 180.464L623.861 180.395C623.451 180.275 623.015 180.282 622.609 180.414C622.365 180.494 622.11 180.529 621.854 180.517L621.621 180.506L621.28 180.455C621.138 180.433 621.002 180.38 620.882 180.298L620.788 180.234C620.765 180.219 620.74 180.207 620.714 180.199C620.448 180.124 618.624 180.308 618.276 180.344L618.254 180.346C618.121 180.359 618.005 180.348 617.925 180.299C617.857 180.258 617.816 180.177 617.759 180.121C617.671 180.035 617.444 179.932 616.603 180.028L615.96 180.191C615.691 180.259 615.409 180.253 615.144 180.173C614.962 180.117 614.77 180.097 614.58 180.112L614.308 180.134C614.145 180.148 613.986 180.188 613.836 180.253C613.658 180.33 613.467 180.372 613.273 180.376L612.569 180.39C612.457 180.392 612.351 180.338 612.287 180.246C612.234 180.17 612.151 180.119 612.059 180.105L611.254 179.989C610.981 179.949 610.703 179.966 610.431 180.014C608.768 180.306 608.185 179.765 607.495 179.831C607.095 179.869 605.822 180.126 605.636 180.126Z" fill="url(#paint3_linear_87_506)"/>
</g>
<path id="small-mountain-feflection" d="M319.559 165.725L184.543 183.817C184.152 183.87 183.769 183.968 183.401 184.111L78.6996 224.663C78.1237 224.886 77.5114 225 76.8938 225H71.4516C70.8297 225 70.2132 224.884 69.6338 224.658L3.1822 198.724C1.26327 197.975 0 196.126 0 194.066V93.6879C0 90.9265 2.23858 88.6879 5 88.6879H175.712H450.688L696.022 85L855.943 91.0049H905C910.205 91.0049 911.945 97.9672 907.353 100.417L859.012 126.198L830.09 138.392C828.7 138.978 827.12 138.905 825.79 138.194L802.059 125.503C800.399 124.615 798.381 124.735 796.838 125.813L773.527 142.098C773.213 142.317 772.876 142.499 772.521 142.641L731.299 159.132L688.421 170.406C687.555 170.633 686.644 170.624 685.782 170.379L627.942 153.935C627.573 153.83 627.194 153.768 626.812 153.75L537.38 149.493L448.478 142.457C448.229 142.438 447.979 142.437 447.73 142.454L388.235 146.668C387.9 146.691 387.568 146.749 387.245 146.839L319.559 165.725Z" fill="url(#paint4_linear_87_506)"/>
<path id="island-reflection" d="M754.93 109.026L908.406 105H1187.14H1434C1437.31 105 1440 107.686 1440 111V175.471C1440 178.984 1436.99 181.746 1433.49 181.449L1364.54 175.614H1303.4H1187.14L1082.27 171.89H979.586L904.124 168.963L741.259 169.327L642.46 161.709C640.322 161.544 638.435 160.251 637.509 158.317L622.774 127.531C620.956 123.731 623.516 119.29 627.716 118.959L639.005 118.07L659.01 117.064L699.02 114.482L754.93 109.026Z" fill="url(#paint5_linear_87_506)"/>
</g>
<defs>
<linearGradient id="paint0_linear_87_506" x1="720" y1="-19" x2="719.5" y2="261" gradientUnits="userSpaceOnUse">
<stop stop-color="#304B91"/>
<stop offset="0.962128" stop-color="#AE8800"/>
</linearGradient>
<linearGradient id="paint1_linear_87_506" x1="1277.02" y1="419.025" x2="1277.02" y2="134.885" gradientUnits="userSpaceOnUse">
<stop stop-color="#540808"/>
<stop offset="1" stop-color="#2E1A1A"/>
</linearGradient>
<linearGradient id="paint2_linear_87_506" x1="611" y1="183.885" x2="617.919" y2="107.741" gradientUnits="userSpaceOnUse">
<stop stop-color="#DDB555"/>
<stop offset="0.785416" stop-color="#5B6783"/>
</linearGradient>
<linearGradient id="paint3_linear_87_506" x1="610.097" y1="183.871" x2="610.097" y2="179.821" gradientUnits="userSpaceOnUse">
<stop stop-color="#E59D11"/>
<stop offset="1" stop-color="#FFF2DA"/>
</linearGradient>
<linearGradient id="paint4_linear_87_506" x1="469.315" y1="225" x2="470.301" y2="96.0656" gradientUnits="userSpaceOnUse">
<stop stop-color="#7E6226"/>
<stop offset="1" stop-color="#475270"/>
</linearGradient>
<linearGradient id="paint5_linear_87_506" x1="1063.11" y1="162.151" x2="1063.11" y2="102.181" gradientUnits="userSpaceOnUse">
<stop stop-color="#6C5B3E"/>
<stop offset="0.754166" stop-color="#404650"/>
</linearGradient>
</defs>
</svg>
