<svg width="955" height="910" viewBox="0 0 955 910" fill="none" xmlns="http://www.w3.org/2000/svg">
<g id="sakura-island-2">
<path id="island" d="M142.303 902.136L302.975 909.702H594.78H853.491C856.805 909.702 859.491 907.016 859.491 903.702V771.98C859.491 768.308 856.221 765.497 852.59 766.048L780.939 776.932C780.641 776.977 780.34 777 780.038 777H716.491H594.78L484.991 784H377.491L298.491 789.5L128.417 788.818C128.133 788.817 127.85 788.836 127.57 788.875L24.891 803.086C22.4988 803.417 20.5383 805.15 19.9161 807.484L1.74365 875.64C0.81647 879.118 3.13802 882.624 6.70155 883.127L20.9429 885.14L41.8859 887.031L83.7718 891.882L142.303 902.136Z" fill="url(#paint0_linear_87_533)"/>
<g id="sakura-tree">
<g id="Ellipse 31">
<path d="M859.869 166.145C859.869 235.625 1005.5 525.817 731.542 312.918C776.156 469.102 213.909 266.144 508.051 253.709C523.911 253.038 534.004 190.339 434.994 159.694C386.222 94.3823 434.993 75.9266 451.818 59.696C490.128 -10.2002 521.18 37.3129 545.539 21.5932C625.784 -30.1938 613.087 27.4376 642.146 27.4376C701.467 27.4376 718.146 -2.51029 788.86 35.6541C911.528 -4.04827 946.231 120.454 859.869 166.145Z" fill="url(#paint1_linear_87_533)"/>
<path d="M859.869 166.145C859.869 235.625 1005.5 525.817 731.542 312.918C776.156 469.102 213.909 266.144 508.051 253.709C523.911 253.038 534.004 190.339 434.994 159.694C386.222 94.3823 434.993 75.9266 451.818 59.696C490.128 -10.2002 521.18 37.3129 545.539 21.5932C625.784 -30.1938 613.087 27.4376 642.146 27.4376C701.467 27.4376 718.146 -2.51029 788.86 35.6541C911.528 -4.04827 946.231 120.454 859.869 166.145Z" fill="url(#paint2_linear_87_533)"/>
</g>
<path id="sakura-trunk" d="M856.825 875.269L824.168 865.119C823.764 864.993 823.483 864.627 823.466 864.205L805.751 434.82C805.741 434.592 805.81 434.368 805.946 434.184L814.084 423.183C814.123 423.129 814.158 423.072 814.186 423.012L828.155 393.139L834.585 376.882C834.656 376.703 834.674 376.507 834.636 376.318L830.978 358.112C830.964 358.044 830.943 357.977 830.916 357.913L821.857 336.872C821.709 336.528 821.381 336.296 821.008 336.27L701.693 328.052C701.641 328.048 701.588 328.048 701.536 328.053L631.861 334.218C631.663 334.236 631.463 334.194 631.288 334.097L598.364 315.851L574.501 299.502C574.111 299.234 573.961 298.729 574.143 298.292L589.707 260.946C589.801 260.72 589.975 260.537 590.195 260.43L608.245 251.695C608.391 251.625 608.517 251.52 608.613 251.39L625.526 228.535C625.691 228.313 625.756 228.032 625.706 227.76L619.948 196.431C619.886 196.093 619.655 195.811 619.337 195.684L589.531 183.715C588.647 183.361 588.901 182.047 589.853 182.047L630.907 186.589C631.301 186.633 631.633 186.906 631.751 187.285L635.887 200.503L642.986 223.202C643.061 223.44 643.044 223.698 642.938 223.924L625.824 260.512C625.798 260.567 625.777 260.626 625.761 260.686L620.08 282.718C619.95 283.225 620.232 283.748 620.729 283.915L653.249 294.906C653.399 294.957 653.558 294.971 653.714 294.949L688.842 289.836C688.929 289.823 689.013 289.799 689.094 289.765L727.271 273.286L762.616 251.68C762.716 251.619 762.826 251.576 762.941 251.553L813.84 241.317C814.037 241.277 814.243 241.298 814.428 241.377L838.102 251.448C838.314 251.539 838.489 251.7 838.596 251.904L855.13 283.399C855.205 283.543 855.244 283.702 855.244 283.864V438.6L858.121 874.308C858.126 874.985 857.471 875.47 856.825 875.269Z" fill="url(#paint3_linear_87_533)"/>
<g id="Ellipse 33">
<path d="M606.818 350.367C653.204 263.56 804.734 494.257 475.671 449.655C358.23 466.573 150.586 376.629 339.784 339.52C346.575 338.188 303.557 321.26 353.881 296.652C254.49 285.886 343.072 234.776 319.432 213.602C176.563 170.225 329.912 145.095 358.23 150.768C356.647 63.9998 407.769 148.35 433.707 140.372C513.218 115.914 478.318 162.825 498.249 170.223C538.862 173.176 606.818 170.223 609.149 225.111C641.658 229.724 690.705 359.97 606.818 350.367Z" fill="url(#paint4_linear_87_533)"/>
<path d="M606.818 350.367C653.204 263.56 804.734 494.257 475.671 449.655C358.23 466.573 150.586 376.629 339.784 339.52C346.575 338.188 303.557 321.26 353.881 296.652C254.49 285.886 343.072 234.776 319.432 213.602C176.563 170.225 329.912 145.095 358.23 150.768C356.647 63.9998 407.769 148.35 433.707 140.372C513.218 115.914 478.318 162.825 498.249 170.223C538.862 173.176 606.818 170.223 609.149 225.111C641.658 229.724 690.705 359.97 606.818 350.367Z" fill="url(#paint5_linear_87_533)"/>
</g>
<path id="sakura-trunk_2" d="M497.556 793.218L461.363 879.527C461.014 880.359 461.858 881.191 462.684 880.83L492.018 868.042C492.104 868.004 492.184 867.955 492.256 867.895L529.965 836.639C530.512 836.185 531.345 836.432 531.557 837.11L541.014 867.345C541.135 867.732 541.478 868.008 541.882 868.043L594.388 872.58C594.535 872.593 594.682 872.573 594.82 872.522L631.897 858.844C632.052 858.787 632.218 858.769 632.381 858.792L665.325 863.371H698.809L734.596 858.758H783.371C783.562 858.758 783.749 858.812 783.909 858.915L804.976 872.386C805.191 872.523 805.45 872.573 805.7 872.526L828.998 868.144C829.484 868.053 829.831 867.62 829.813 867.125L814.296 437.854C814.291 437.729 814.263 437.606 814.213 437.491L800.32 405.643L786.427 379.055C786.376 378.958 786.342 378.853 786.325 378.745L777.988 325.203C777.975 325.121 777.973 325.037 777.981 324.954L781.62 286.865C781.635 286.71 781.685 286.561 781.768 286.43L800.32 256.759L816.21 235.067L824.411 223.873C824.491 223.762 824.549 223.636 824.579 223.502L838.443 162.272C838.482 162.099 838.474 161.919 838.421 161.75L833.881 147.377C833.858 147.304 833.827 147.235 833.788 147.169L794.992 81.6002C794.829 81.3237 794.542 81.1426 794.222 81.1135L738.044 76.0061C737.964 75.9988 737.885 75.9819 737.809 75.9558L711.266 66.8195C711.04 66.7416 710.793 66.7474 710.571 66.8359L674.801 81.0779C674.665 81.1319 674.543 81.2149 674.443 81.3211L653.582 103.453C653.331 103.719 653.246 104.1 653.358 104.448L659.017 121.88C659.381 123.004 661.05 122.678 660.965 121.5L659.74 104.521C659.712 104.133 659.912 103.764 660.253 103.575L681.751 91.6526C681.942 91.5466 682.163 91.5061 682.379 91.5374L703.295 94.5634C703.408 94.5797 703.517 94.615 703.617 94.6679L721.16 103.884L737.702 115.097C737.847 115.195 738.015 115.254 738.189 115.266L765.384 117.277C765.686 117.3 765.962 117.458 766.134 117.707L777.915 134.795C777.951 134.846 777.991 134.895 778.036 134.939L786.271 143.058C786.324 143.11 786.37 143.167 786.41 143.23L798.139 161.512C798.335 161.818 798.35 162.206 798.178 162.526L789.144 179.289L768.706 214.837C768.673 214.896 768.633 214.951 768.589 215.001L738.068 249.555C737.972 249.662 737.901 249.789 737.86 249.927L721.16 305.085L703.48 390.078C703.47 390.125 703.464 390.174 703.461 390.223L699.061 465.379C698.999 466.437 697.55 466.684 697.14 465.707L680.183 425.269L665.447 390.437C665.367 390.25 665.233 390.091 665.061 389.982L626.273 365.426C626.203 365.381 626.128 365.346 626.05 365.32L594.886 355.12C594.706 355.061 594.513 355.054 594.33 355.1L553.778 365.32C553.677 365.346 553.572 365.355 553.468 365.348L480.183 360.463C480.079 360.456 479.975 360.465 479.874 360.49L431.579 372.514C431.383 372.563 431.176 372.552 430.987 372.48L353.182 343.308C352.03 342.876 351.266 344.503 352.336 345.113L431.047 390.018C431.198 390.104 431.369 390.149 431.543 390.149H497.65H546.077H603.877C604.047 390.149 604.213 390.193 604.361 390.275L631.702 405.405C631.974 405.556 632.16 405.823 632.207 406.13L639.031 450.975C639.123 451.58 638.655 452.126 638.042 452.126H582.618C582.473 452.126 582.329 452.158 582.197 452.219L558.085 463.437C558 463.477 557.909 463.504 557.816 463.519L518.214 469.674C518.164 469.682 518.112 469.686 518.061 469.686H492.147L433.919 463.505C433.869 463.5 433.82 463.491 433.772 463.478L363.132 445.041L293.861 435.813L217.552 428.971C216.33 428.862 216.023 430.625 217.211 430.935L314.939 456.413L360.164 463.484C360.218 463.493 360.271 463.506 360.324 463.523L395.756 475.246L452.605 498.871L479.897 508.055C479.983 508.084 480.072 508.101 480.163 508.106L566.365 512.699C566.529 512.708 566.693 512.676 566.842 512.606L608.063 493.288C608.324 493.166 608.625 493.162 608.889 493.278L652.948 512.613C653.097 512.678 653.228 512.779 653.33 512.907L668.909 532.57C668.974 532.653 669.026 532.745 669.063 532.844L698.658 612.856C698.754 613.116 698.738 613.404 698.614 613.652L653.366 703.783C653.244 704.025 653.029 704.208 652.771 704.289L574.206 728.893C574.08 728.932 573.964 728.996 573.863 729.081L497.836 792.839C497.713 792.941 497.618 793.071 497.556 793.218Z" fill="url(#paint6_linear_87_533)"/>
<g id="Ellipse 32">
<path d="M619.696 470.913C617.716 500.684 589.734 538.505 517.651 526.412C509.016 524.963 502.117 565.778 448.781 531.736C458.135 557.864 334.144 533.969 348.903 488.172C352.903 475.76 367.153 480.579 292.521 461.747C186.648 419.719 313.376 426.824 343.43 427.027C316.176 388.158 386.339 403.979 384.104 390.875C378.538 358.244 435.45 397.269 457.61 398.942C466.371 350.291 702.673 452.87 619.696 470.913Z" fill="url(#paint7_linear_87_533)"/>
<path d="M619.696 470.913C617.716 500.684 589.734 538.505 517.651 526.412C509.016 524.963 502.117 565.778 448.781 531.736C458.135 557.864 334.144 533.969 348.903 488.172C352.903 475.76 367.153 480.579 292.521 461.747C186.648 419.719 313.376 426.824 343.43 427.027C316.176 388.158 386.339 403.979 384.104 390.875C378.538 358.244 435.45 397.269 457.61 398.942C466.371 350.291 702.673 452.87 619.696 470.913Z" fill="url(#paint8_linear_87_533)"/>
</g>
<g id="Ellipse 35">
<path d="M741.949 94.0574C751.569 106.116 747.69 117.452 720.686 117.452C709.903 117.452 692.585 125.22 690.867 104.494C690.751 103.095 683.462 103.191 691.301 95.3187C672.91 99.3636 686.326 83.9966 681.04 81.352C670.938 76.2976 679.567 67.4319 684.934 66.7844C688.255 51.3972 694.614 64.6808 697.99 60.1143C705.573 49.8593 712.789 60.1143 711.053 61.917C711.597 55.8886 715.675 51.3972 724.674 55.5296C738.954 57.1913 738.352 62.1767 735.566 69.2242C748.733 72.097 753.197 76.0049 747.69 84.7492C751.747 93.4743 743.77 91.8737 741.949 94.0574Z" fill="url(#paint9_linear_87_533)"/>
<path d="M741.949 94.0574C751.569 106.116 747.69 117.452 720.686 117.452C709.903 117.452 692.585 125.22 690.867 104.494C690.751 103.095 683.462 103.191 691.301 95.3187C672.91 99.3636 686.326 83.9966 681.04 81.352C670.938 76.2976 679.567 67.4319 684.934 66.7844C688.255 51.3972 694.614 64.6808 697.99 60.1143C705.573 49.8593 712.789 60.1143 711.053 61.917C711.597 55.8886 715.675 51.3972 724.674 55.5296C738.954 57.1913 738.352 62.1767 735.566 69.2242C748.733 72.097 753.197 76.0049 747.69 84.7492C751.747 93.4743 743.77 91.8737 741.949 94.0574Z" fill="url(#paint10_linear_87_533)"/>
<path d="M741.949 94.0574C751.569 106.116 747.69 117.452 720.686 117.452C709.903 117.452 692.585 125.22 690.867 104.494C690.751 103.095 683.462 103.191 691.301 95.3187C672.91 99.3636 686.326 83.9966 681.04 81.352C670.938 76.2976 679.567 67.4319 684.934 66.7844C688.255 51.3972 694.614 64.6808 697.99 60.1143C705.573 49.8593 712.789 60.1143 711.053 61.917C711.597 55.8886 715.675 51.3972 724.674 55.5296C738.954 57.1913 738.352 62.1767 735.566 69.2242C748.733 72.097 753.197 76.0049 747.69 84.7492C751.747 93.4743 743.77 91.8737 741.949 94.0574Z" fill="url(#paint11_linear_87_533)"/>
<path d="M741.949 94.0574C751.569 106.116 747.69 117.452 720.686 117.452C709.903 117.452 692.585 125.22 690.867 104.494C690.751 103.095 683.462 103.191 691.301 95.3187C672.91 99.3636 686.326 83.9966 681.04 81.352C670.938 76.2976 679.567 67.4319 684.934 66.7844C688.255 51.3972 694.614 64.6808 697.99 60.1143C705.573 49.8593 712.789 60.1143 711.053 61.917C711.597 55.8886 715.675 51.3972 724.674 55.5296C738.954 57.1913 738.352 62.1767 735.566 69.2242C748.733 72.097 753.197 76.0049 747.69 84.7492C751.747 93.4743 743.77 91.8737 741.949 94.0574Z" fill="url(#paint12_linear_87_533)"/>
</g>
<g id="Ellipse 36">
<path d="M851.656 137.759C875.458 159.04 833.778 205.61 812.108 191.097C823.929 203.245 759.997 215.883 744.705 174.112C743.685 171.326 728.464 173.734 743.242 155.579C704.811 169.243 729.608 134.373 717.568 130.665C700.828 105.148 710.774 103.193 722.13 100.273C708.031 68.1207 750.552 94.5121 748.421 82.9547C743.116 54.1759 768.415 83.4081 776.938 82.6266C776.533 70.3721 793.189 54.3949 804.516 65.7043C835.61 64.7259 835.618 74.9061 831.474 89.8815C860.495 91.668 882.666 117.533 861.556 117.358C872.542 133.632 854.998 132.83 851.656 137.759Z" fill="url(#paint13_linear_87_533)"/>
<path d="M851.656 137.759C875.458 159.04 833.778 205.61 812.108 191.097C823.929 203.245 759.997 215.883 744.705 174.112C743.685 171.326 728.464 173.734 743.242 155.579C704.811 169.243 729.608 134.373 717.568 130.665C700.828 105.148 710.774 103.193 722.13 100.273C708.031 68.1207 750.552 94.5121 748.421 82.9547C743.116 54.1759 768.415 83.4081 776.938 82.6266C776.533 70.3721 793.189 54.3949 804.516 65.7043C835.61 64.7259 835.618 74.9061 831.474 89.8815C860.495 91.668 882.666 117.533 861.556 117.358C872.542 133.632 854.998 132.83 851.656 137.759Z" fill="url(#paint14_linear_87_533)"/>
</g>
<g id="Ellipse 40">
<path d="M840.199 208.221C847.153 216.097 844.4 223.455 824.986 223.358C817.234 223.32 804.808 228.31 803.508 214.826C803.42 213.916 798.18 213.952 803.791 208.861C790.582 211.426 800.179 201.481 796.37 199.742C789.092 196.42 795.267 190.685 799.124 190.283C801.464 180.289 806.076 188.95 808.49 185.993C813.909 179.351 819.129 186.045 817.886 187.211C818.259 183.293 821.176 180.387 827.659 183.106C837.931 184.238 837.513 187.477 835.532 192.05C845.008 193.965 848.229 196.522 844.298 202.189C847.242 207.877 841.502 206.808 840.199 208.221Z" fill="url(#paint15_linear_87_533)"/>
<path d="M840.199 208.221C847.153 216.097 844.4 223.455 824.986 223.358C817.234 223.32 804.808 228.31 803.508 214.826C803.42 213.916 798.18 213.952 803.791 208.861C790.582 211.426 800.179 201.481 796.37 199.742C789.092 196.42 795.267 190.685 799.124 190.283C801.464 180.289 806.076 188.95 808.49 185.993C813.909 179.351 819.129 186.045 817.886 187.211C818.259 183.293 821.176 180.387 827.659 183.106C837.931 184.238 837.513 187.477 835.532 192.05C845.008 193.965 848.229 196.522 844.298 202.189C847.242 207.877 841.502 206.808 840.199 208.221Z" fill="url(#paint16_linear_87_533)"/>
<path d="M840.199 208.221C847.153 216.097 844.4 223.455 824.986 223.358C817.234 223.32 804.808 228.31 803.508 214.826C803.42 213.916 798.18 213.952 803.791 208.861C790.582 211.426 800.179 201.481 796.37 199.742C789.092 196.42 795.267 190.685 799.124 190.283C801.464 180.289 806.076 188.95 808.49 185.993C813.909 179.351 819.129 186.045 817.886 187.211C818.259 183.293 821.176 180.387 827.659 183.106C837.931 184.238 837.513 187.477 835.532 192.05C845.008 193.965 848.229 196.522 844.298 202.189C847.242 207.877 841.502 206.808 840.199 208.221Z" fill="url(#paint17_linear_87_533)"/>
<path d="M840.199 208.221C847.153 216.097 844.4 223.455 824.986 223.358C817.234 223.32 804.808 228.31 803.508 214.826C803.42 213.916 798.18 213.952 803.791 208.861C790.582 211.426 800.179 201.481 796.37 199.742C789.092 196.42 795.267 190.685 799.124 190.283C801.464 180.289 806.076 188.95 808.49 185.993C813.909 179.351 819.129 186.045 817.886 187.211C818.259 183.293 821.176 180.387 827.659 183.106C837.931 184.238 837.513 187.477 835.532 192.05C845.008 193.965 848.229 196.522 844.298 202.189C847.242 207.877 841.502 206.808 840.199 208.221Z" fill="url(#paint18_linear_87_533)"/>
</g>
<g id="Ellipse 42">
<path d="M282.662 427.09C291.417 440.488 287.741 453.216 262.859 453.493C252.923 453.604 236.897 462.477 235.501 439.296C235.407 437.731 228.69 437.913 235.984 429.021C219.002 433.737 231.502 416.399 226.656 413.494C217.393 407.94 225.424 397.928 230.376 397.148C233.575 379.891 239.313 394.694 242.466 389.548C249.545 377.992 256.101 389.396 254.485 391.432C255.041 384.679 258.839 379.609 267.093 384.142C280.236 385.856 279.636 391.442 277.005 399.359C289.111 402.439 293.189 406.768 288.036 416.612C291.695 426.336 284.36 424.627 282.662 427.09Z" fill="url(#paint19_linear_87_533)"/>
<path d="M282.662 427.09C291.417 440.488 287.741 453.216 262.859 453.493C252.923 453.604 236.897 462.477 235.501 439.296C235.407 437.731 228.69 437.913 235.984 429.021C219.002 433.737 231.502 416.399 226.656 413.494C217.393 407.94 225.424 397.928 230.376 397.148C233.575 379.891 239.313 394.694 242.466 389.548C249.545 377.992 256.101 389.396 254.485 391.432C255.041 384.679 258.839 379.609 267.093 384.142C280.236 385.856 279.636 391.442 277.005 399.359C289.111 402.439 293.189 406.768 288.036 416.612C291.695 426.336 284.36 424.627 282.662 427.09Z" fill="url(#paint20_linear_87_533)"/>
<path d="M282.662 427.09C291.417 440.488 287.741 453.216 262.859 453.493C252.923 453.604 236.897 462.477 235.501 439.296C235.407 437.731 228.69 437.913 235.984 429.021C219.002 433.737 231.502 416.399 226.656 413.494C217.393 407.94 225.424 397.928 230.376 397.148C233.575 379.891 239.313 394.694 242.466 389.548C249.545 377.992 256.101 389.396 254.485 391.432C255.041 384.679 258.839 379.609 267.093 384.142C280.236 385.856 279.636 391.442 277.005 399.359C289.111 402.439 293.189 406.768 288.036 416.612C291.695 426.336 284.36 424.627 282.662 427.09Z" fill="url(#paint21_linear_87_533)"/>
<path d="M282.662 427.09C291.417 440.488 287.741 453.216 262.859 453.493C252.923 453.604 236.897 462.477 235.501 439.296C235.407 437.731 228.69 437.913 235.984 429.021C219.002 433.737 231.502 416.399 226.656 413.494C217.393 407.94 225.424 397.928 230.376 397.148C233.575 379.891 239.313 394.694 242.466 389.548C249.545 377.992 256.101 389.396 254.485 391.432C255.041 384.679 258.839 379.609 267.093 384.142C280.236 385.856 279.636 391.442 277.005 399.359C289.111 402.439 293.189 406.768 288.036 416.612C291.695 426.336 284.36 424.627 282.662 427.09Z" fill="url(#paint22_linear_87_533)"/>
</g>
<g id="Ellipse 34">
<path d="M924.657 312.768C942.44 333.027 895.799 355.979 878.708 340.923C887.249 352.085 799.752 349.136 820.346 313.715C786.3 307.031 813.918 282.577 803.618 277.247C786.611 270.562 802.499 256.551 813.4 257.106C823.612 237.564 831.228 253.984 840.592 251.032C866.709 242.798 858.752 255.907 866.673 257.306C868.569 248.673 890.067 244.012 894.966 251.801C923.519 258.209 921.644 265.306 915.094 274.798C941.244 282.661 964.319 298.74 937.462 300.807C944.477 314.654 928.618 310.095 924.657 312.768Z" fill="url(#paint23_linear_87_533)"/>
<path d="M924.657 312.768C942.44 333.027 895.799 355.979 878.708 340.923C887.249 352.085 799.752 349.136 820.346 313.715C786.3 307.031 813.918 282.577 803.618 277.247C786.611 270.562 802.499 256.551 813.4 257.106C823.612 237.564 831.228 253.984 840.592 251.032C866.709 242.798 858.752 255.907 866.673 257.306C868.569 248.673 890.067 244.012 894.966 251.801C923.519 258.209 921.644 265.306 915.094 274.798C941.244 282.661 964.319 298.74 937.462 300.807C944.477 314.654 928.618 310.095 924.657 312.768Z" fill="url(#paint24_linear_87_533)"/>
</g>
<g id="Ellipse 39">
<path d="M577.685 373.746C581.097 383.001 565.71 392.729 562.057 385.806C563.575 390.891 526.553 380.487 547.536 372.985C548.289 372.716 543.62 371.045 549.26 367.087C538.358 367 548.317 358.997 545.799 356.498C530.241 352.658 547.228 347.236 550.323 347.608C550.497 336.079 557.898 349.016 558.676 345.202C560.614 335.703 563.498 347.587 565.663 348.302C566.94 344.465 576.424 341.767 574.285 346.163C581.974 349.351 580.833 352.501 578.141 356.669C585.014 360.479 587.514 370.97 582.389 368.546C583.239 374.814 579.053 372.596 577.685 373.746Z" fill="url(#paint25_linear_87_533)"/>
<path d="M577.685 373.746C581.097 383.001 565.71 392.729 562.057 385.806C563.575 390.891 526.553 380.487 547.536 372.985C548.289 372.716 543.62 371.045 549.26 367.087C538.358 367 548.317 358.997 545.799 356.498C530.241 352.658 547.228 347.236 550.323 347.608C550.497 336.079 557.898 349.016 558.676 345.202C560.614 335.703 563.498 347.587 565.663 348.302C566.94 344.465 576.424 341.767 574.285 346.163C581.974 349.351 580.833 352.501 578.141 356.669C585.014 360.479 587.514 370.97 582.389 368.546C583.239 374.814 579.053 372.596 577.685 373.746Z" fill="url(#paint26_linear_87_533)"/>
</g>
<g id="Ellipse 43">
<path d="M540.778 386.591C558.562 406.85 511.92 429.802 494.83 414.746C503.37 425.908 415.874 422.959 436.468 387.538C402.422 380.854 430.04 356.4 419.74 351.07C402.732 344.385 418.62 330.374 429.521 330.929C439.734 311.387 447.349 327.807 456.714 324.855C482.83 316.621 474.874 329.73 482.795 331.129C484.691 322.496 506.188 317.835 511.087 325.624C539.64 332.032 537.766 339.129 531.215 348.621C557.365 356.484 580.44 372.563 553.584 374.63C560.599 388.477 544.739 383.918 540.778 386.591Z" fill="url(#paint27_linear_87_533)"/>
<path d="M540.778 386.591C558.562 406.85 511.92 429.802 494.83 414.746C503.37 425.908 415.874 422.959 436.468 387.538C402.422 380.854 430.04 356.4 419.74 351.07C402.732 344.385 418.62 330.374 429.521 330.929C439.734 311.387 447.349 327.807 456.714 324.855C482.83 316.621 474.874 329.73 482.795 331.129C484.691 322.496 506.188 317.835 511.087 325.624C539.64 332.032 537.766 339.129 531.215 348.621C557.365 356.484 580.44 372.563 553.584 374.63C560.599 388.477 544.739 383.918 540.778 386.591Z" fill="url(#paint28_linear_87_533)"/>
</g>
<g id="Ellipse 41">
<path d="M799.823 214.656C804.28 220.002 802.497 225.014 790.02 224.987C785.037 224.976 777.042 228.396 776.229 219.223C776.175 218.603 772.806 218.638 776.421 215.163C767.927 216.934 774.113 210.148 771.668 208.972C766.995 206.725 770.975 202.811 773.454 202.53C774.975 195.724 777.925 201.609 779.481 199.591C782.976 195.061 786.319 199.607 785.519 200.402C785.765 197.735 787.645 195.752 791.807 197.59C798.407 198.34 798.133 200.545 796.852 203.661C802.939 204.945 805.005 206.679 802.468 210.543C804.35 214.408 800.663 213.692 799.823 214.656Z" fill="url(#paint29_linear_87_533)"/>
<path d="M799.823 214.656C804.28 220.002 802.497 225.014 790.02 224.987C785.037 224.976 777.042 228.396 776.229 219.223C776.175 218.603 772.806 218.638 776.421 215.163C767.927 216.934 774.113 210.148 771.668 208.972C766.995 206.725 770.975 202.811 773.454 202.53C774.975 195.724 777.925 201.609 779.481 199.591C782.976 195.061 786.319 199.607 785.519 200.402C785.765 197.735 787.645 195.752 791.807 197.59C798.407 198.34 798.133 200.545 796.852 203.661C802.939 204.945 805.005 206.679 802.468 210.543C804.35 214.408 800.663 213.692 799.823 214.656Z" fill="url(#paint30_linear_87_533)"/>
<path d="M799.823 214.656C804.28 220.002 802.497 225.014 790.02 224.987C785.037 224.976 777.042 228.396 776.229 219.223C776.175 218.603 772.806 218.638 776.421 215.163C767.927 216.934 774.113 210.148 771.668 208.972C766.995 206.725 770.975 202.811 773.454 202.53C774.975 195.724 777.925 201.609 779.481 199.591C782.976 195.061 786.319 199.607 785.519 200.402C785.765 197.735 787.645 195.752 791.807 197.59C798.407 198.34 798.133 200.545 796.852 203.661C802.939 204.945 805.005 206.679 802.468 210.543C804.35 214.408 800.663 213.692 799.823 214.656Z" fill="url(#paint31_linear_87_533)"/>
<path d="M799.823 214.656C804.28 220.002 802.497 225.014 790.02 224.987C785.037 224.976 777.042 228.396 776.229 219.223C776.175 218.603 772.806 218.638 776.421 215.163C767.927 216.934 774.113 210.148 771.668 208.972C766.995 206.725 770.975 202.811 773.454 202.53C774.975 195.724 777.925 201.609 779.481 199.591C782.976 195.061 786.319 199.607 785.519 200.402C785.765 197.735 787.645 195.752 791.807 197.59C798.407 198.34 798.133 200.545 796.852 203.661C802.939 204.945 805.005 206.679 802.468 210.543C804.35 214.408 800.663 213.692 799.823 214.656Z" fill="url(#paint32_linear_87_533)"/>
</g>
<g id="Ellipse 38">
<path d="M453.142 374.852C460.035 383.392 444.409 397.494 437.928 391.404C441.284 396.192 393.536 395.556 416.574 382.219C417.4 381.74 411.271 381.293 416.88 375.724C403.715 378.579 413.315 367.707 409.529 365.833C389.623 366.11 408.469 355.978 412.312 355.522C409.058 343.688 421.865 354.916 421.657 350.806C421.14 340.572 428.186 351.942 431.01 352.088C431.397 347.821 442.018 342.5 440.76 347.572C450.984 348.754 450.555 352.283 448.563 357.271C457.991 359.31 464.156 369.359 457.25 368.265C460.157 374.443 454.446 373.307 453.142 374.852Z" fill="url(#paint33_linear_87_533)"/>
<path d="M453.142 374.852C460.035 383.392 444.409 397.494 437.928 391.404C441.284 396.192 393.536 395.556 416.574 382.219C417.4 381.74 411.271 381.293 416.88 375.724C403.715 378.579 413.315 367.707 409.529 365.833C389.623 366.11 408.469 355.978 412.312 355.522C409.058 343.688 421.865 354.916 421.657 350.806C421.14 340.572 428.186 351.942 431.01 352.088C431.397 347.821 442.018 342.5 440.76 347.572C450.984 348.754 450.555 352.283 448.563 357.271C457.991 359.31 464.156 369.359 457.25 368.265C460.157 374.443 454.446 373.307 453.142 374.852Z" fill="url(#paint34_linear_87_533)"/>
</g>
<g id="Ellipse 37">
<path d="M563.615 396.987C565.172 401.978 556.601 415.676 551.421 410.66C554.102 414.606 528.723 414.282 534.342 403.11C534.701 402.397 530.1 402.353 534.595 397.752C528.723 394.288 531.75 391.143 528.723 389.602C523.321 385.06 527.886 381.474 530.962 381.093C534.342 371.218 536.307 379.706 538.446 377.191C543.525 371.218 543.669 378.119 545.929 378.236C546.244 374.715 554.749 370.312 553.737 374.498C561.918 375.46 561.571 378.372 559.971 382.489C567.514 384.159 568.058 383.522 566.91 391.548C569.23 396.641 564.66 395.71 563.615 396.987Z" fill="url(#paint35_linear_87_533)"/>
<path d="M563.615 396.987C565.172 401.978 556.601 415.676 551.421 410.66C554.102 414.606 528.723 414.282 534.342 403.11C534.701 402.397 530.1 402.353 534.595 397.752C528.723 394.288 531.75 391.143 528.723 389.602C523.321 385.06 527.886 381.474 530.962 381.093C534.342 371.218 536.307 379.706 538.446 377.191C543.525 371.218 543.669 378.119 545.929 378.236C546.244 374.715 554.749 370.312 553.737 374.498C561.918 375.46 561.571 378.372 559.971 382.489C567.514 384.159 568.058 383.522 566.91 391.548C569.23 396.641 564.66 395.71 563.615 396.987Z" fill="url(#paint36_linear_87_533)"/>
</g>
</g>
</g>
<defs>
<linearGradient id="paint0_linear_87_533" x1="464.933" y1="802.301" x2="464.933" y2="915" gradientUnits="userSpaceOnUse">
<stop stop-color="#86460E"/>
<stop offset="0.920833" stop-color="#4A2222"/>
</linearGradient>
<linearGradient id="paint1_linear_87_533" x1="633" y1="-10.2002" x2="633" y2="389.674" gradientUnits="userSpaceOnUse">
<stop stop-color="#E79DDF"/>
<stop offset="1" stop-color="#99358F"/>
</linearGradient>
<linearGradient id="paint2_linear_87_533" x1="633" y1="-10.2002" x2="633" y2="389.674" gradientUnits="userSpaceOnUse">
<stop stop-color="#E79DDF"/>
<stop offset="1" stop-color="#99358F"/>
</linearGradient>
<linearGradient id="paint3_linear_87_533" x1="830.491" y1="241.256" x2="830.491" y2="878.751" gradientUnits="userSpaceOnUse">
<stop stop-color="#510808"/>
<stop offset="1" stop-color="#2E1C1C"/>
</linearGradient>
<linearGradient id="paint4_linear_87_533" x1="461.846" y1="81.5791" x2="330.318" y2="435.897" gradientUnits="userSpaceOnUse">
<stop stop-color="#E79DDF"/>
<stop offset="1" stop-color="#99358F"/>
</linearGradient>
<linearGradient id="paint5_linear_87_533" x1="461.846" y1="81.5791" x2="330.318" y2="435.897" gradientUnits="userSpaceOnUse">
<stop stop-color="#E79DDF"/>
<stop offset="1" stop-color="#99358F"/>
</linearGradient>
<linearGradient id="paint6_linear_87_533" x1="670.405" y1="267.23" x2="670.405" y2="881.826" gradientUnits="userSpaceOnUse">
<stop stop-color="#540808"/>
<stop offset="1" stop-color="#2E1A1A"/>
</linearGradient>
<linearGradient id="paint7_linear_87_533" x1="439.8" y1="386.579" x2="426.87" y2="557.799" gradientUnits="userSpaceOnUse">
<stop stop-color="#E79DDF"/>
<stop offset="1" stop-color="#99358F"/>
</linearGradient>
<linearGradient id="paint8_linear_87_533" x1="439.8" y1="386.579" x2="426.87" y2="557.799" gradientUnits="userSpaceOnUse">
<stop stop-color="#E79DDF"/>
<stop offset="1" stop-color="#99358F"/>
</linearGradient>
<linearGradient id="paint9_linear_87_533" x1="732.317" y1="51.3503" x2="728.338" y2="128.234" gradientUnits="userSpaceOnUse">
<stop stop-color="#E79DDF"/>
<stop offset="1" stop-color="#99358F"/>
</linearGradient>
<linearGradient id="paint10_linear_87_533" x1="732.317" y1="51.3503" x2="728.338" y2="128.234" gradientUnits="userSpaceOnUse">
<stop stop-color="#E79DDF"/>
<stop offset="1" stop-color="#99358F"/>
</linearGradient>
<linearGradient id="paint11_linear_87_533" x1="732.317" y1="51.3503" x2="728.338" y2="128.234" gradientUnits="userSpaceOnUse">
<stop stop-color="#E79DDF"/>
<stop offset="1" stop-color="#99358F"/>
</linearGradient>
<linearGradient id="paint12_linear_87_533" x1="732.317" y1="51.3503" x2="728.338" y2="128.234" gradientUnits="userSpaceOnUse">
<stop stop-color="#E79DDF"/>
<stop offset="1" stop-color="#99358F"/>
</linearGradient>
<linearGradient id="paint13_linear_87_533" x1="761.476" y1="60.2397" x2="775.702" y2="215.388" gradientUnits="userSpaceOnUse">
<stop stop-color="#E79DDF"/>
<stop offset="1" stop-color="#99358F"/>
</linearGradient>
<linearGradient id="paint14_linear_87_533" x1="761.476" y1="60.2397" x2="775.702" y2="215.388" gradientUnits="userSpaceOnUse">
<stop stop-color="#E79DDF"/>
<stop offset="1" stop-color="#99358F"/>
</linearGradient>
<linearGradient id="paint15_linear_87_533" x1="833.141" y1="180.416" x2="830.554" y2="230.399" gradientUnits="userSpaceOnUse">
<stop stop-color="#E79DDF"/>
<stop offset="1" stop-color="#99358F"/>
</linearGradient>
<linearGradient id="paint16_linear_87_533" x1="833.141" y1="180.416" x2="830.554" y2="230.399" gradientUnits="userSpaceOnUse">
<stop stop-color="#E79DDF"/>
<stop offset="1" stop-color="#99358F"/>
</linearGradient>
<linearGradient id="paint17_linear_87_533" x1="833.141" y1="180.416" x2="830.554" y2="230.399" gradientUnits="userSpaceOnUse">
<stop stop-color="#E79DDF"/>
<stop offset="1" stop-color="#99358F"/>
</linearGradient>
<linearGradient id="paint18_linear_87_533" x1="833.141" y1="180.416" x2="830.554" y2="230.399" gradientUnits="userSpaceOnUse">
<stop stop-color="#E79DDF"/>
<stop offset="1" stop-color="#99358F"/>
</linearGradient>
<linearGradient id="paint19_linear_87_533" x1="274.173" y1="379.386" x2="269.718" y2="465.479" gradientUnits="userSpaceOnUse">
<stop stop-color="#E79DDF"/>
<stop offset="1" stop-color="#99358F"/>
</linearGradient>
<linearGradient id="paint20_linear_87_533" x1="274.173" y1="379.386" x2="269.718" y2="465.479" gradientUnits="userSpaceOnUse">
<stop stop-color="#E79DDF"/>
<stop offset="1" stop-color="#99358F"/>
</linearGradient>
<linearGradient id="paint21_linear_87_533" x1="274.173" y1="379.386" x2="269.718" y2="465.479" gradientUnits="userSpaceOnUse">
<stop stop-color="#E79DDF"/>
<stop offset="1" stop-color="#99358F"/>
</linearGradient>
<linearGradient id="paint22_linear_87_533" x1="274.173" y1="379.386" x2="269.718" y2="465.479" gradientUnits="userSpaceOnUse">
<stop stop-color="#E79DDF"/>
<stop offset="1" stop-color="#99358F"/>
</linearGradient>
<linearGradient id="paint23_linear_87_533" x1="860.115" y1="237.823" x2="840.566" y2="348.518" gradientUnits="userSpaceOnUse">
<stop stop-color="#E79DDF"/>
<stop offset="1" stop-color="#99358F"/>
</linearGradient>
<linearGradient id="paint24_linear_87_533" x1="860.115" y1="237.823" x2="840.566" y2="348.518" gradientUnits="userSpaceOnUse">
<stop stop-color="#E79DDF"/>
<stop offset="1" stop-color="#99358F"/>
</linearGradient>
<linearGradient id="paint25_linear_87_533" x1="546.041" y1="393.642" x2="529.901" y2="442.512" gradientUnits="userSpaceOnUse">
<stop stop-color="#E79DDF"/>
<stop offset="1" stop-color="#99358F"/>
</linearGradient>
<linearGradient id="paint26_linear_87_533" x1="546.041" y1="393.642" x2="529.901" y2="442.512" gradientUnits="userSpaceOnUse">
<stop stop-color="#E79DDF"/>
<stop offset="1" stop-color="#99358F"/>
</linearGradient>
<linearGradient id="paint27_linear_87_533" x1="476.236" y1="311.646" x2="456.688" y2="422.341" gradientUnits="userSpaceOnUse">
<stop stop-color="#E79DDF"/>
<stop offset="1" stop-color="#99358F"/>
</linearGradient>
<linearGradient id="paint28_linear_87_533" x1="476.236" y1="311.646" x2="456.688" y2="422.341" gradientUnits="userSpaceOnUse">
<stop stop-color="#E79DDF"/>
<stop offset="1" stop-color="#99358F"/>
</linearGradient>
<linearGradient id="paint29_linear_87_533" x1="795.335" y1="195.748" x2="793.574" y2="229.766" gradientUnits="userSpaceOnUse">
<stop stop-color="#E79DDF"/>
<stop offset="1" stop-color="#99358F"/>
</linearGradient>
<linearGradient id="paint30_linear_87_533" x1="795.335" y1="195.748" x2="793.574" y2="229.766" gradientUnits="userSpaceOnUse">
<stop stop-color="#E79DDF"/>
<stop offset="1" stop-color="#99358F"/>
</linearGradient>
<linearGradient id="paint31_linear_87_533" x1="795.335" y1="195.748" x2="793.574" y2="229.766" gradientUnits="userSpaceOnUse">
<stop stop-color="#E79DDF"/>
<stop offset="1" stop-color="#99358F"/>
</linearGradient>
<linearGradient id="paint32_linear_87_533" x1="795.335" y1="195.748" x2="793.574" y2="229.766" gradientUnits="userSpaceOnUse">
<stop stop-color="#E79DDF"/>
<stop offset="1" stop-color="#99358F"/>
</linearGradient>
<linearGradient id="paint33_linear_87_533" x1="426.895" y1="343.572" x2="424.079" y2="397.995" gradientUnits="userSpaceOnUse">
<stop stop-color="#E79DDF"/>
<stop offset="1" stop-color="#99358F"/>
</linearGradient>
<linearGradient id="paint34_linear_87_533" x1="426.895" y1="343.572" x2="424.079" y2="397.995" gradientUnits="userSpaceOnUse">
<stop stop-color="#E79DDF"/>
<stop offset="1" stop-color="#99358F"/>
</linearGradient>
<linearGradient id="paint35_linear_87_533" x1="542.646" y1="371.217" x2="540.322" y2="416.115" gradientUnits="userSpaceOnUse">
<stop stop-color="#E79DDF"/>
<stop offset="1" stop-color="#99358F"/>
</linearGradient>
<linearGradient id="paint36_linear_87_533" x1="542.646" y1="371.217" x2="540.322" y2="416.115" gradientUnits="userSpaceOnUse">
<stop stop-color="#E79DDF"/>
<stop offset="1" stop-color="#99358F"/>
</linearGradient>
</defs>
</svg>
