<svg width="343" height="283" viewBox="0 0 343 283" fill="none" xmlns="http://www.w3.org/2000/svg">
<g id="island-sakura">
<path id="island" d="M63.2951 269.691L120.5 277.5H225L315.5 283V147L281.5 150L249.851 151.978C249.617 151.993 249.386 152.028 249.158 152.083L216.859 159.913C216.62 159.971 216.377 160.007 216.131 160.02L170 162.5L123.392 165.971C123.131 165.99 122.873 166.035 122.621 166.105L82.0676 177.343C81.6913 177.447 81.3322 177.606 81.0018 177.814L49.5338 197.663C49.1801 197.886 48.7937 198.053 48.3885 198.156L5.1082 209.197C2.3318 209.905 0.717326 212.797 1.57142 215.532L12 248.927L19.5 252L27 253.964L41.8614 258.953C41.9537 258.984 42.0436 259.022 42.1304 259.066L62.66 269.492C62.8592 269.594 63.0738 269.661 63.2951 269.691Z" fill="url(#paint0_linear_87_498)"/>
<g id="sakura-tree">
<g id="Ellipse 31">
<path d="M317.897 42.2038C317.897 59.853 354.889 133.567 285.299 79.4867C296.632 119.16 153.811 67.6054 228.529 64.4466C232.557 64.2763 235.121 48.3495 209.971 40.5652C197.582 23.9748 209.971 19.2867 214.244 15.1638C223.976 -2.59103 231.864 9.47816 238.051 5.48505C258.435 -7.66978 255.21 6.96964 262.591 6.96964C277.66 6.96964 281.896 -0.637659 299.859 9.05679C331.019 -1.02833 339.834 30.5976 317.897 42.2038Z" fill="url(#paint1_linear_87_498)"/>
<path d="M317.897 42.2038C317.897 59.853 354.889 133.567 285.299 79.4867C296.632 119.16 153.811 67.6054 228.529 64.4466C232.557 64.2763 235.121 48.3495 209.971 40.5652C197.582 23.9748 209.971 19.2867 214.244 15.1638C223.976 -2.59103 231.864 9.47816 238.051 5.48505C258.435 -7.66978 255.21 6.96964 262.591 6.96964C277.66 6.96964 281.896 -0.637659 299.859 9.05679C331.019 -1.02833 339.834 30.5976 317.897 42.2038Z" fill="url(#paint2_linear_87_498)"/>
</g>
<path id="sakura-trunk" d="M316.149 222.031L309.33 219.912C308.927 219.786 308.645 219.42 308.628 218.998L304.161 110.715C304.151 110.487 304.22 110.262 304.356 110.079L306.222 107.556C306.262 107.502 306.296 107.445 306.324 107.385L309.841 99.8643L311.393 95.9399C311.464 95.7605 311.481 95.5643 311.443 95.3751L310.573 91.0432C310.559 90.9751 310.539 90.9086 310.511 90.8448L308.421 85.9895C308.273 85.6454 307.945 85.413 307.571 85.3873L277.776 83.335C277.723 83.3314 277.671 83.3319 277.619 83.3365L260.206 84.8773C260.007 84.8949 259.808 84.8526 259.633 84.7559L251.47 80.2319L245.908 76.4215C245.518 76.1539 245.368 75.649 245.55 75.2119L249.162 66.5461C249.256 66.3205 249.429 66.1371 249.649 66.0306L253.814 64.015C253.96 63.9446 254.086 63.8398 254.182 63.7098L258.177 58.3122C258.341 58.0897 258.407 57.8089 258.357 57.5366L257.027 50.3011C256.965 49.9638 256.734 49.6817 256.416 49.5539L249.226 46.6669C249.001 46.5768 249.066 46.2432 249.308 46.2432L259.252 47.3433C259.646 47.387 259.978 47.6599 260.096 48.0387L261.001 50.9313L262.718 56.4208C262.793 56.6592 262.775 56.9168 262.669 57.143L258.474 66.1118C258.448 66.1678 258.427 66.226 258.412 66.2858L257.159 71.1444C257.028 71.6515 257.311 72.1737 257.807 72.3414L265.242 74.8542C265.391 74.9047 265.55 74.9191 265.706 74.8964L274.355 73.6377C274.442 73.6251 274.527 73.6011 274.607 73.5663L284.214 69.4194L293.08 64.0001C293.18 63.939 293.29 63.896 293.405 63.8729L305.978 61.3443C306.176 61.3045 306.381 61.3255 306.567 61.4045L312.123 63.7682C312.335 63.8585 312.509 64.0194 312.617 64.2236L316.607 71.8257C316.683 71.969 316.722 72.1285 316.722 72.2905V111.412L317.446 221.07C317.45 221.747 316.795 222.232 316.149 222.031Z" fill="url(#paint3_linear_87_498)"/>
<g id="Ellipse 33">
<path d="M253.617 88.9994C265.4 66.949 303.891 125.55 220.303 114.221C190.471 118.518 137.726 95.6705 185.786 86.2441C187.511 85.9058 176.583 81.6057 189.367 75.3549C164.119 72.6202 186.621 59.6374 180.616 54.2586C144.325 43.2401 183.278 36.8568 190.471 38.2978C190.069 16.2571 203.055 37.6836 209.644 35.657C229.841 29.4442 220.976 41.3603 226.039 43.2397C236.355 43.9898 253.617 43.2397 254.209 57.1821C262.467 58.3541 274.926 91.4389 253.617 88.9994Z" fill="url(#paint4_linear_87_498)"/>
<path d="M253.617 88.9994C265.4 66.949 303.891 125.55 220.303 114.221C190.471 118.518 137.726 95.6705 185.786 86.2441C187.511 85.9058 176.583 81.6057 189.367 75.3549C164.119 72.6202 186.621 59.6374 180.616 54.2586C144.325 43.2401 183.278 36.8568 190.471 38.2978C190.069 16.2571 203.055 37.6836 209.644 35.657C229.841 29.4442 220.976 41.3603 226.039 43.2397C236.355 43.9898 253.617 43.2397 254.209 57.1821C262.467 58.3541 274.926 91.4389 253.617 88.9994Z" fill="url(#paint5_linear_87_498)"/>
</g>
<path id="sakura-trunk_2" d="M225.793 201.659L217.388 221.7C217.04 222.532 217.883 223.364 218.71 223.003L224.359 220.54C224.445 220.503 224.525 220.454 224.598 220.394L233.239 213.231C233.786 212.777 234.619 213.024 234.831 213.702L236.752 219.844C236.874 220.231 237.217 220.507 237.621 220.542L250.294 221.637C250.44 221.649 250.588 221.63 250.726 221.579L259.812 218.227C259.967 218.17 260.133 218.152 260.296 218.174L268.479 219.312H276.984L286.075 218.14H298.247C298.438 218.14 298.624 218.195 298.785 218.297L303.704 221.442C303.918 221.58 304.177 221.63 304.427 221.583L309.424 220.643C309.91 220.551 310.257 220.118 310.239 219.624L306.325 111.364C306.321 111.239 306.293 111.116 306.243 111.001L302.77 103.041L299.298 96.3957C299.247 96.2989 299.213 96.1944 299.196 96.0865L297.112 82.6999C297.099 82.6176 297.097 82.5339 297.104 82.4509L298.003 73.044C298.018 72.8895 298.069 72.7405 298.151 72.6089L302.77 65.2214L306.806 59.7113L308.798 56.9926C308.879 56.8821 308.936 56.7561 308.967 56.6225L312.409 41.4168C312.449 41.2439 312.441 41.0637 312.388 40.8947L311.321 37.5179C311.298 37.4453 311.267 37.3755 311.228 37.31L301.611 21.0564C301.448 20.7798 301.161 20.5988 300.841 20.5697L287.041 19.315C286.961 19.3078 286.882 19.2909 286.806 19.2647L280.411 17.0634C280.184 16.9855 279.938 16.9913 279.715 17.0798L271.04 20.5341C270.904 20.588 270.782 20.671 270.682 20.7772L265.71 26.0514C265.515 26.2593 265.448 26.5574 265.536 26.829L265.638 27.143C265.908 27.9762 267.146 27.7344 267.083 26.8607C267.062 26.5727 267.21 26.2989 267.463 26.1588L272.432 23.4033C272.623 23.2973 272.843 23.2568 273.06 23.2881L277.997 24.0024C278.11 24.0187 278.219 24.054 278.319 24.1069L282.662 26.3885L286.699 29.1249C286.844 29.223 287.012 29.2815 287.187 29.2944L293.539 29.7641C293.842 29.7865 294.117 29.9445 294.289 30.1938L297.039 34.182C297.074 34.2339 297.115 34.2823 297.16 34.3265L299.142 36.2808C299.195 36.3328 299.242 36.3906 299.282 36.4529L301.979 40.657C302.175 40.963 302.19 41.3513 302.017 41.6714L299.931 45.5425L294.777 54.5071C294.744 54.5654 294.704 54.6202 294.66 54.6707L287.065 63.2694C286.969 63.3771 286.899 63.5041 286.857 63.6416L282.662 77.4971L278.182 99.0331C278.172 99.0809 278.166 99.1295 278.163 99.1783L277.237 115.002C277.175 116.06 275.726 116.307 275.316 115.33L272.253 108.026L268.601 99.393C268.521 99.2054 268.387 99.0466 268.215 98.9377L258.638 92.8744C258.568 92.8301 258.493 92.7947 258.414 92.7689L250.791 90.2739C250.612 90.2151 250.419 90.2084 250.236 90.2546L240.258 92.7691C240.157 92.7947 240.052 92.8042 239.948 92.7972L221.566 91.5718C221.462 91.5649 221.359 91.5742 221.258 91.5992L209.328 94.5693C209.132 94.6182 208.925 94.6064 208.736 94.5353L197.917 90.4788C196.764 90.0466 196.001 91.6737 197.07 92.2837L208.796 98.9735C208.947 99.0597 209.118 99.105 209.292 99.105H225.886H238.188H252.677C252.847 99.105 253.013 99.148 253.162 99.23L259.617 102.803C259.889 102.953 260.075 103.22 260.122 103.527L261.669 113.698C261.761 114.303 261.293 114.848 260.681 114.848H247.635C247.489 114.848 247.345 114.88 247.213 114.941L241.334 117.677C241.249 117.716 241.158 117.744 241.066 117.758L231.167 119.297C231.116 119.305 231.065 119.309 231.014 119.309H224.489L209.753 117.744C209.704 117.739 209.654 117.73 209.606 117.718L191.716 113.048L174.12 110.704L163.69 109.769C162.467 109.66 162.161 111.423 163.348 111.733L179.475 115.937L190.902 117.724C190.956 117.732 191.009 117.745 191.061 117.762L200.004 120.721L214.444 126.722L221.28 129.023C221.366 129.051 221.456 129.069 221.546 129.073L243.154 130.225C243.319 130.234 243.483 130.202 243.632 130.132L253.627 125.448C253.888 125.325 254.189 125.322 254.453 125.437L265.165 130.138C265.315 130.204 265.446 130.305 265.547 130.433L269.316 135.189C269.381 135.272 269.433 135.364 269.47 135.463L276.834 155.373C276.93 155.632 276.914 155.921 276.79 156.168L265.583 178.491C265.461 178.733 265.247 178.916 264.988 178.997L245.475 185.107C245.35 185.147 245.233 185.211 245.132 185.295L226.072 201.279C225.95 201.381 225.854 201.512 225.793 201.659Z" fill="url(#paint6_linear_87_498)"/>
<g id="Ellipse 32">
<path d="M256.888 119.62C256.385 127.183 249.277 136.79 230.967 133.718C228.774 133.35 227.021 143.718 213.473 135.071C215.849 141.708 184.353 135.638 188.102 124.004C189.118 120.852 192.738 122.076 173.78 117.292C146.886 106.616 179.077 108.421 186.712 108.473C179.789 98.5991 197.611 102.618 197.044 99.2892C195.63 91.0005 210.086 100.913 215.716 101.339C217.941 88.9802 277.966 115.037 256.888 119.62Z" fill="url(#paint7_linear_87_498)"/>
<path d="M256.888 119.62C256.385 127.183 249.277 136.79 230.967 133.718C228.774 133.35 227.021 143.718 213.473 135.071C215.849 141.708 184.353 135.638 188.102 124.004C189.118 120.852 192.738 122.076 173.78 117.292C146.886 106.616 179.077 108.421 186.712 108.473C179.789 98.5991 197.611 102.618 197.044 99.2892C195.63 91.0005 210.086 100.913 215.716 101.339C217.941 88.9802 277.966 115.037 256.888 119.62Z" fill="url(#paint8_linear_87_498)"/>
</g>
<g id="Ellipse 35">
<path d="M287.943 23.8924C290.387 26.9556 289.401 29.835 282.542 29.835C279.802 29.835 275.403 31.8082 274.967 26.5435C274.938 26.188 273.086 26.2124 275.077 24.2128C270.406 25.2402 273.814 21.3367 272.471 20.665C269.905 19.3811 272.097 17.129 273.46 16.9645C274.304 13.0559 275.919 16.4302 276.777 15.2702C278.703 12.6652 280.536 15.2702 280.095 15.7281C280.233 14.1968 281.269 13.0559 283.555 14.1056C287.182 14.5277 287.029 15.7941 286.321 17.5843C289.666 18.314 290.8 19.3067 289.401 21.5279C290.432 23.7442 288.405 23.3377 287.943 23.8924Z" fill="url(#paint9_linear_87_498)"/>
<path d="M287.943 23.8924C290.387 26.9556 289.401 29.835 282.542 29.835C279.802 29.835 275.403 31.8082 274.967 26.5435C274.938 26.188 273.086 26.2124 275.077 24.2128C270.406 25.2402 273.814 21.3367 272.471 20.665C269.905 19.3811 272.097 17.129 273.46 16.9645C274.304 13.0559 275.919 16.4302 276.777 15.2702C278.703 12.6652 280.536 15.2702 280.095 15.7281C280.233 14.1968 281.269 13.0559 283.555 14.1056C287.182 14.5277 287.029 15.7941 286.321 17.5843C289.666 18.314 290.8 19.3067 289.401 21.5279C290.432 23.7442 288.405 23.3377 287.943 23.8924Z" fill="url(#paint10_linear_87_498)"/>
<path d="M287.943 23.8924C290.387 26.9556 289.401 29.835 282.542 29.835C279.802 29.835 275.403 31.8082 274.967 26.5435C274.938 26.188 273.086 26.2124 275.077 24.2128C270.406 25.2402 273.814 21.3367 272.471 20.665C269.905 19.3811 272.097 17.129 273.46 16.9645C274.304 13.0559 275.919 16.4302 276.777 15.2702C278.703 12.6652 280.536 15.2702 280.095 15.7281C280.233 14.1968 281.269 13.0559 283.555 14.1056C287.182 14.5277 287.029 15.7941 286.321 17.5843C289.666 18.314 290.8 19.3067 289.401 21.5279C290.432 23.7442 288.405 23.3377 287.943 23.8924Z" fill="url(#paint11_linear_87_498)"/>
<path d="M287.943 23.8924C290.387 26.9556 289.401 29.835 282.542 29.835C279.802 29.835 275.403 31.8082 274.967 26.5435C274.938 26.188 273.086 26.2124 275.077 24.2128C270.406 25.2402 273.814 21.3367 272.471 20.665C269.905 19.3811 272.097 17.129 273.46 16.9645C274.304 13.0559 275.919 16.4302 276.777 15.2702C278.703 12.6652 280.536 15.2702 280.095 15.7281C280.233 14.1968 281.269 13.0559 283.555 14.1056C287.182 14.5277 287.029 15.7941 286.321 17.5843C289.666 18.314 290.8 19.3067 289.401 21.5279C290.432 23.7442 288.405 23.3377 287.943 23.8924Z" fill="url(#paint12_linear_87_498)"/>
</g>
<g id="Ellipse 36">
<path d="M315.81 34.9935C321.857 40.3992 311.269 52.2288 305.764 48.5423C308.767 51.628 292.527 54.8383 288.643 44.2277C288.384 43.5201 284.517 44.1316 288.271 39.52C278.509 42.991 284.808 34.1334 281.75 33.1915C277.497 26.7097 280.024 26.2129 282.908 25.4714C279.327 17.304 290.128 24.0079 289.587 21.0721C288.239 13.7618 294.666 21.1873 296.831 20.9888C296.728 17.8759 300.959 13.8174 303.836 16.6902C311.734 16.4417 311.737 19.0276 310.684 22.8317C318.056 23.2855 323.687 29.8556 318.325 29.8111C321.116 33.945 316.659 33.7413 315.81 34.9935Z" fill="url(#paint13_linear_87_498)"/>
<path d="M315.81 34.9935C321.857 40.3992 311.269 52.2288 305.764 48.5423C308.767 51.628 292.527 54.8383 288.643 44.2277C288.384 43.5201 284.517 44.1316 288.271 39.52C278.509 42.991 284.808 34.1334 281.75 33.1915C277.497 26.7097 280.024 26.2129 282.908 25.4714C279.327 17.304 290.128 24.0079 289.587 21.0721C288.239 13.7618 294.666 21.1873 296.831 20.9888C296.728 17.8759 300.959 13.8174 303.836 16.6902C311.734 16.4417 311.737 19.0276 310.684 22.8317C318.056 23.2855 323.687 29.8556 318.325 29.8111C321.116 33.945 316.659 33.7413 315.81 34.9935Z" fill="url(#paint14_linear_87_498)"/>
</g>
<g id="Ellipse 40">
<path d="M312.9 52.892C314.667 54.8926 313.967 56.7615 309.036 56.737C307.066 56.7273 303.91 57.9948 303.58 54.5697C303.558 54.3384 302.226 54.3477 303.652 53.0545C300.296 53.706 302.734 51.1798 301.767 50.7382C299.918 49.8942 301.487 48.4375 302.466 48.3354C303.061 45.7968 304.232 47.9967 304.845 47.2455C306.222 45.5584 307.548 47.2588 307.232 47.555C307.327 46.5598 308.068 45.8216 309.715 46.5123C312.324 46.7997 312.218 47.6226 311.715 48.7842C314.122 49.2707 314.94 49.9202 313.941 51.3596C314.689 52.8045 313.231 52.5329 312.9 52.892Z" fill="url(#paint15_linear_87_498)"/>
<path d="M312.9 52.892C314.667 54.8926 313.967 56.7615 309.036 56.737C307.066 56.7273 303.91 57.9948 303.58 54.5697C303.558 54.3384 302.226 54.3477 303.652 53.0545C300.296 53.706 302.734 51.1798 301.767 50.7382C299.918 49.8942 301.487 48.4375 302.466 48.3354C303.061 45.7968 304.232 47.9967 304.845 47.2455C306.222 45.5584 307.548 47.2588 307.232 47.555C307.327 46.5598 308.068 45.8216 309.715 46.5123C312.324 46.7997 312.218 47.6226 311.715 48.7842C314.122 49.2707 314.94 49.9202 313.941 51.3596C314.689 52.8045 313.231 52.5329 312.9 52.892Z" fill="url(#paint16_linear_87_498)"/>
<path d="M312.9 52.892C314.667 54.8926 313.967 56.7615 309.036 56.737C307.066 56.7273 303.91 57.9948 303.58 54.5697C303.558 54.3384 302.226 54.3477 303.652 53.0545C300.296 53.706 302.734 51.1798 301.767 50.7382C299.918 49.8942 301.487 48.4375 302.466 48.3354C303.061 45.7968 304.232 47.9967 304.845 47.2455C306.222 45.5584 307.548 47.2588 307.232 47.555C307.327 46.5598 308.068 45.8216 309.715 46.5123C312.324 46.7997 312.218 47.6226 311.715 48.7842C314.122 49.2707 314.94 49.9202 313.941 51.3596C314.689 52.8045 313.231 52.5329 312.9 52.892Z" fill="url(#paint17_linear_87_498)"/>
<path d="M312.9 52.892C314.667 54.8926 313.967 56.7615 309.036 56.737C307.066 56.7273 303.91 57.9948 303.58 54.5697C303.558 54.3384 302.226 54.3477 303.652 53.0545C300.296 53.706 302.734 51.1798 301.767 50.7382C299.918 49.8942 301.487 48.4375 302.466 48.3354C303.061 45.7968 304.232 47.9967 304.845 47.2455C306.222 45.5584 307.548 47.2588 307.232 47.555C307.327 46.5598 308.068 45.8216 309.715 46.5123C312.324 46.7997 312.218 47.6226 311.715 48.7842C314.122 49.2707 314.94 49.9202 313.941 51.3596C314.689 52.8045 313.231 52.5329 312.9 52.892Z" fill="url(#paint18_linear_87_498)"/>
</g>
<g id="Ellipse 42">
<path d="M171.276 108.488C173.5 111.892 172.566 115.125 166.245 115.195C163.722 115.224 159.65 117.477 159.296 111.589C159.272 111.191 157.566 111.238 159.419 108.979C155.105 110.177 158.28 105.773 157.049 105.035C154.696 103.624 156.736 101.081 157.994 100.883C158.807 96.4991 160.264 100.259 161.065 98.9522C162.863 96.0166 164.529 98.9136 164.118 99.4306C164.259 97.7152 165.224 96.4276 167.321 97.579C170.659 98.0143 170.507 99.4333 169.839 101.444C172.914 102.227 173.95 103.326 172.641 105.827C173.57 108.297 171.707 107.863 171.276 108.488Z" fill="url(#paint19_linear_87_498)"/>
<path d="M171.276 108.488C173.5 111.892 172.566 115.125 166.245 115.195C163.722 115.224 159.65 117.477 159.296 111.589C159.272 111.191 157.566 111.238 159.419 108.979C155.105 110.177 158.28 105.773 157.049 105.035C154.696 103.624 156.736 101.081 157.994 100.883C158.807 96.4991 160.264 100.259 161.065 98.9522C162.863 96.0166 164.529 98.9136 164.118 99.4306C164.259 97.7152 165.224 96.4276 167.321 97.579C170.659 98.0143 170.507 99.4333 169.839 101.444C172.914 102.227 173.95 103.326 172.641 105.827C173.57 108.297 171.707 107.863 171.276 108.488Z" fill="url(#paint20_linear_87_498)"/>
<path d="M171.276 108.488C173.5 111.892 172.566 115.125 166.245 115.195C163.722 115.224 159.65 117.477 159.296 111.589C159.272 111.191 157.566 111.238 159.419 108.979C155.105 110.177 158.28 105.773 157.049 105.035C154.696 103.624 156.736 101.081 157.994 100.883C158.807 96.4991 160.264 100.259 161.065 98.9522C162.863 96.0166 164.529 98.9136 164.118 99.4306C164.259 97.7152 165.224 96.4276 167.321 97.579C170.659 98.0143 170.507 99.4333 169.839 101.444C172.914 102.227 173.95 103.326 172.641 105.827C173.57 108.297 171.707 107.863 171.276 108.488Z" fill="url(#paint21_linear_87_498)"/>
<path d="M171.276 108.488C173.5 111.892 172.566 115.125 166.245 115.195C163.722 115.224 159.65 117.477 159.296 111.589C159.272 111.191 157.566 111.238 159.419 108.979C155.105 110.177 158.28 105.773 157.049 105.035C154.696 103.624 156.736 101.081 157.994 100.883C158.807 96.4991 160.264 100.259 161.065 98.9522C162.863 96.0166 164.529 98.9136 164.118 99.4306C164.259 97.7152 165.224 96.4276 167.321 97.579C170.659 98.0143 170.507 99.4333 169.839 101.444C172.914 102.227 173.95 103.326 172.641 105.827C173.57 108.297 171.707 107.863 171.276 108.488Z" fill="url(#paint22_linear_87_498)"/>
</g>
<g id="Ellipse 34">
<path d="M334.354 79.4488C338.871 84.5949 327.023 90.4251 322.682 86.6006C324.852 89.4359 302.626 88.6868 307.857 79.6893C299.209 77.9914 306.224 71.7797 303.608 70.4259C299.288 68.7277 303.323 65.1687 306.093 65.3096C308.687 60.3457 310.621 64.5165 313 63.7666C319.634 61.6751 317.613 65.005 319.625 65.3603C320.107 63.1674 325.567 61.9836 326.812 63.9619C334.065 65.5898 333.589 67.3925 331.925 69.8037C338.567 71.801 344.429 75.8854 337.607 76.4104C339.389 79.9279 335.36 78.7697 334.354 79.4488Z" fill="url(#paint23_linear_87_498)"/>
<path d="M334.354 79.4488C338.871 84.5949 327.023 90.4251 322.682 86.6006C324.852 89.4359 302.626 88.6868 307.857 79.6893C299.209 77.9914 306.224 71.7797 303.608 70.4259C299.288 68.7277 303.323 65.1687 306.093 65.3096C308.687 60.3457 310.621 64.5165 313 63.7666C319.634 61.6751 317.613 65.005 319.625 65.3603C320.107 63.1674 325.567 61.9836 326.812 63.9619C334.065 65.5898 333.589 67.3925 331.925 69.8037C338.567 71.801 344.429 75.8854 337.607 76.4104C339.389 79.9279 335.36 78.7697 334.354 79.4488Z" fill="url(#paint24_linear_87_498)"/>
</g>
<g id="Ellipse 39">
<path d="M246.217 94.9382C247.084 97.2892 243.175 99.7602 242.247 98.0018C242.633 99.2934 233.228 96.6505 238.558 94.7448C238.75 94.6764 237.564 94.252 238.996 93.2468C236.227 93.2246 238.757 91.1916 238.117 90.5569C234.165 89.5815 238.48 88.2042 239.266 88.2987C239.311 85.37 241.191 88.6565 241.388 87.6875C241.88 85.2747 242.613 88.2933 243.163 88.4749C243.488 87.5004 245.897 86.8149 245.353 87.9316C247.306 88.7414 247.016 89.5416 246.333 90.6003C248.079 91.5682 248.714 94.233 247.412 93.6173C247.628 95.2094 246.564 94.6461 246.217 94.9382Z" fill="url(#paint25_linear_87_498)"/>
<path d="M246.217 94.9382C247.084 97.2892 243.175 99.7602 242.247 98.0018C242.633 99.2934 233.228 96.6505 238.558 94.7448C238.75 94.6764 237.564 94.252 238.996 93.2468C236.227 93.2246 238.757 91.1916 238.117 90.5569C234.165 89.5815 238.48 88.2042 239.266 88.2987C239.311 85.37 241.191 88.6565 241.388 87.6875C241.88 85.2747 242.613 88.2933 243.163 88.4749C243.488 87.5004 245.897 86.8149 245.353 87.9316C247.306 88.7414 247.016 89.5416 246.333 90.6003C248.079 91.5682 248.714 94.233 247.412 93.6173C247.628 95.2094 246.564 94.6461 246.217 94.9382Z" fill="url(#paint26_linear_87_498)"/>
</g>
<g id="Ellipse 43">
<path d="M236.842 98.2012C241.359 103.347 229.511 109.178 225.17 105.353C227.34 108.188 205.114 107.439 210.345 98.4418C201.697 96.7438 208.712 90.5322 206.096 89.1783C201.776 87.4801 205.812 83.9211 208.581 84.0621C211.175 79.0981 213.109 83.2689 215.488 82.519C222.122 80.4276 220.101 83.7574 222.113 84.1128C222.595 81.9198 228.055 80.736 229.3 82.7144C236.553 84.3423 236.077 86.145 234.413 88.5561C241.055 90.5534 246.917 94.6379 240.095 95.1629C241.877 98.6803 237.848 97.5221 236.842 98.2012Z" fill="url(#paint27_linear_87_498)"/>
<path d="M236.842 98.2012C241.359 103.347 229.511 109.178 225.17 105.353C227.34 108.188 205.114 107.439 210.345 98.4418C201.697 96.7438 208.712 90.5322 206.096 89.1783C201.776 87.4801 205.812 83.9211 208.581 84.0621C211.175 79.0981 213.109 83.2689 215.488 82.519C222.122 80.4276 220.101 83.7574 222.113 84.1128C222.595 81.9198 228.055 80.736 229.3 82.7144C236.553 84.3423 236.077 86.145 234.413 88.5561C241.055 90.5534 246.917 94.6379 240.095 95.1629C241.877 98.6803 237.848 97.5221 236.842 98.2012Z" fill="url(#paint28_linear_87_498)"/>
</g>
<g id="Ellipse 41">
<path d="M302.644 54.5265C303.776 55.8845 303.323 57.1576 300.154 57.1507C298.888 57.1479 296.857 58.0166 296.651 55.6865C296.637 55.5291 295.781 55.5381 296.699 54.6552C294.542 55.1051 296.113 53.3813 295.492 53.0826C294.305 52.5119 295.316 51.5176 295.946 51.4462C296.332 49.7174 297.081 51.2122 297.477 50.6998C298.364 49.549 299.214 50.7036 299.01 50.9058C299.073 50.2283 299.55 49.7245 300.608 50.1913C302.284 50.3818 302.215 50.942 301.889 51.7335C303.435 52.0598 303.96 52.5002 303.316 53.4817C303.794 54.4635 302.857 54.2815 302.644 54.5265Z" fill="url(#paint29_linear_87_498)"/>
<path d="M302.644 54.5265C303.776 55.8845 303.323 57.1576 300.154 57.1507C298.888 57.1479 296.857 58.0166 296.651 55.6865C296.637 55.5291 295.781 55.5381 296.699 54.6552C294.542 55.1051 296.113 53.3813 295.492 53.0826C294.305 52.5119 295.316 51.5176 295.946 51.4462C296.332 49.7174 297.081 51.2122 297.477 50.6998C298.364 49.549 299.214 50.7036 299.01 50.9058C299.073 50.2283 299.55 49.7245 300.608 50.1913C302.284 50.3818 302.215 50.942 301.889 51.7335C303.435 52.0598 303.96 52.5002 303.316 53.4817C303.794 54.4635 302.857 54.2815 302.644 54.5265Z" fill="url(#paint30_linear_87_498)"/>
<path d="M302.644 54.5265C303.776 55.8845 303.323 57.1576 300.154 57.1507C298.888 57.1479 296.857 58.0166 296.651 55.6865C296.637 55.5291 295.781 55.5381 296.699 54.6552C294.542 55.1051 296.113 53.3813 295.492 53.0826C294.305 52.5119 295.316 51.5176 295.946 51.4462C296.332 49.7174 297.081 51.2122 297.477 50.6998C298.364 49.549 299.214 50.7036 299.01 50.9058C299.073 50.2283 299.55 49.7245 300.608 50.1913C302.284 50.3818 302.215 50.942 301.889 51.7335C303.435 52.0598 303.96 52.5002 303.316 53.4817C303.794 54.4635 302.857 54.2815 302.644 54.5265Z" fill="url(#paint31_linear_87_498)"/>
<path d="M302.644 54.5265C303.776 55.8845 303.323 57.1576 300.154 57.1507C298.888 57.1479 296.857 58.0166 296.651 55.6865C296.637 55.5291 295.781 55.5381 296.699 54.6552C294.542 55.1051 296.113 53.3813 295.492 53.0826C294.305 52.5119 295.316 51.5176 295.946 51.4462C296.332 49.7174 297.081 51.2122 297.477 50.6998C298.364 49.549 299.214 50.7036 299.01 50.9058C299.073 50.2283 299.55 49.7245 300.608 50.1913C302.284 50.3818 302.215 50.942 301.889 51.7335C303.435 52.0598 303.96 52.5002 303.316 53.4817C303.794 54.4635 302.857 54.2815 302.644 54.5265Z" fill="url(#paint32_linear_87_498)"/>
</g>
<g id="Ellipse 38">
<path d="M214.581 95.219C216.332 97.3884 212.362 100.97 210.716 99.4234C211.569 100.64 199.44 100.478 205.292 97.0903C205.502 96.9687 203.945 96.8551 205.37 95.4404C202.025 96.1658 204.464 93.404 203.502 92.9279C198.446 92.9984 203.233 90.4248 204.209 90.3089C203.383 87.3029 206.636 90.1549 206.583 89.1109C206.452 86.5113 208.241 89.3993 208.959 89.4365C209.057 88.3525 211.755 87.001 211.435 88.2894C214.033 88.5897 213.924 89.4861 213.418 90.753C215.813 91.271 217.378 93.8237 215.624 93.5459C216.363 95.1152 214.912 94.8266 214.581 95.219Z" fill="url(#paint33_linear_87_498)"/>
<path d="M214.581 95.219C216.332 97.3884 212.362 100.97 210.716 99.4234C211.569 100.64 199.44 100.478 205.292 97.0903C205.502 96.9687 203.945 96.8551 205.37 95.4404C202.025 96.1658 204.464 93.404 203.502 92.9279C198.446 92.9984 203.233 90.4248 204.209 90.3089C203.383 87.3029 206.636 90.1549 206.583 89.1109C206.452 86.5113 208.241 89.3993 208.959 89.4365C209.057 88.3525 211.755 87.001 211.435 88.2894C214.033 88.5897 213.924 89.4861 213.418 90.753C215.813 91.271 217.378 93.8237 215.624 93.5459C216.363 95.1152 214.912 94.8266 214.581 95.219Z" fill="url(#paint34_linear_87_498)"/>
</g>
<g id="Ellipse 37">
<path d="M242.643 100.842C243.038 102.11 240.861 105.589 239.545 104.315C240.226 105.317 233.78 105.235 235.207 102.397C235.298 102.216 234.129 102.205 235.271 101.036C233.78 100.156 234.549 99.3575 233.78 98.966C232.407 97.8123 233.567 96.9014 234.348 96.8045C235.207 94.2962 235.706 96.4522 236.249 95.8132C237.54 94.2962 237.576 96.0491 238.15 96.0788C238.23 95.1845 240.391 94.0661 240.134 95.1293C242.212 95.3737 242.124 96.1133 241.717 97.1591C243.633 97.5833 243.771 97.4216 243.48 99.4602C244.069 100.754 242.908 100.518 242.643 100.842Z" fill="url(#paint35_linear_87_498)"/>
<path d="M242.643 100.842C243.038 102.11 240.861 105.589 239.545 104.315C240.226 105.317 233.78 105.235 235.207 102.397C235.298 102.216 234.129 102.205 235.271 101.036C233.78 100.156 234.549 99.3575 233.78 98.966C232.407 97.8123 233.567 96.9014 234.348 96.8045C235.207 94.2962 235.706 96.4522 236.249 95.8132C237.54 94.2962 237.576 96.0491 238.15 96.0788C238.23 95.1845 240.391 94.0661 240.134 95.1293C242.212 95.3737 242.124 96.1133 241.717 97.1591C243.633 97.5833 243.771 97.4216 243.48 99.4602C244.069 100.754 242.908 100.518 242.643 100.842Z" fill="url(#paint36_linear_87_498)"/>
</g>
</g>
</g>
<defs>
<linearGradient id="paint0_linear_87_498" x1="178.5" y1="166" x2="178.5" y2="283" gradientUnits="userSpaceOnUse">
<stop stop-color="#8D45C5"/>
<stop offset="0.754166" stop-color="#340B76"/>
</linearGradient>
<linearGradient id="paint1_linear_87_498" x1="260.268" y1="-2.59103" x2="260.268" y2="98.9842" gradientUnits="userSpaceOnUse">
<stop stop-color="#E79DDF"/>
<stop offset="1" stop-color="#99358F"/>
</linearGradient>
<linearGradient id="paint2_linear_87_498" x1="260.268" y1="-2.59103" x2="260.268" y2="98.9842" gradientUnits="userSpaceOnUse">
<stop stop-color="#E79DDF"/>
<stop offset="1" stop-color="#99358F"/>
</linearGradient>
<linearGradient id="paint3_linear_87_498" x1="310.434" y1="61.2832" x2="310.434" y2="223.218" gradientUnits="userSpaceOnUse">
<stop stop-color="#510808"/>
<stop offset="1" stop-color="#2E1C1C"/>
</linearGradient>
<linearGradient id="paint4_linear_87_498" x1="216.792" y1="20.7225" x2="183.381" y2="110.726" gradientUnits="userSpaceOnUse">
<stop stop-color="#E79DDF"/>
<stop offset="1" stop-color="#99358F"/>
</linearGradient>
<linearGradient id="paint5_linear_87_498" x1="216.792" y1="20.7225" x2="183.381" y2="110.726" gradientUnits="userSpaceOnUse">
<stop stop-color="#E79DDF"/>
<stop offset="1" stop-color="#99358F"/>
</linearGradient>
<linearGradient id="paint6_linear_87_498" x1="269.769" y1="67.8812" x2="269.769" y2="224" gradientUnits="userSpaceOnUse">
<stop stop-color="#540808"/>
<stop offset="1" stop-color="#2E1A1A"/>
</linearGradient>
<linearGradient id="paint7_linear_87_498" x1="211.191" y1="98.1981" x2="207.907" y2="141.691" gradientUnits="userSpaceOnUse">
<stop stop-color="#E79DDF"/>
<stop offset="1" stop-color="#99358F"/>
</linearGradient>
<linearGradient id="paint8_linear_87_498" x1="211.191" y1="98.1981" x2="207.907" y2="141.691" gradientUnits="userSpaceOnUse">
<stop stop-color="#E79DDF"/>
<stop offset="1" stop-color="#99358F"/>
</linearGradient>
<linearGradient id="paint9_linear_87_498" x1="285.496" y1="13.044" x2="284.485" y2="32.5739" gradientUnits="userSpaceOnUse">
<stop stop-color="#E79DDF"/>
<stop offset="1" stop-color="#99358F"/>
</linearGradient>
<linearGradient id="paint10_linear_87_498" x1="285.496" y1="13.044" x2="284.485" y2="32.5739" gradientUnits="userSpaceOnUse">
<stop stop-color="#E79DDF"/>
<stop offset="1" stop-color="#99358F"/>
</linearGradient>
<linearGradient id="paint11_linear_87_498" x1="285.496" y1="13.044" x2="284.485" y2="32.5739" gradientUnits="userSpaceOnUse">
<stop stop-color="#E79DDF"/>
<stop offset="1" stop-color="#99358F"/>
</linearGradient>
<linearGradient id="paint12_linear_87_498" x1="285.496" y1="13.044" x2="284.485" y2="32.5739" gradientUnits="userSpaceOnUse">
<stop stop-color="#E79DDF"/>
<stop offset="1" stop-color="#99358F"/>
</linearGradient>
<linearGradient id="paint13_linear_87_498" x1="292.903" y1="15.3021" x2="296.517" y2="54.7126" gradientUnits="userSpaceOnUse">
<stop stop-color="#E79DDF"/>
<stop offset="1" stop-color="#99358F"/>
</linearGradient>
<linearGradient id="paint14_linear_87_498" x1="292.903" y1="15.3021" x2="296.517" y2="54.7126" gradientUnits="userSpaceOnUse">
<stop stop-color="#E79DDF"/>
<stop offset="1" stop-color="#99358F"/>
</linearGradient>
<linearGradient id="paint15_linear_87_498" x1="311.107" y1="45.8289" x2="310.45" y2="58.5254" gradientUnits="userSpaceOnUse">
<stop stop-color="#E79DDF"/>
<stop offset="1" stop-color="#99358F"/>
</linearGradient>
<linearGradient id="paint16_linear_87_498" x1="311.107" y1="45.8289" x2="310.45" y2="58.5254" gradientUnits="userSpaceOnUse">
<stop stop-color="#E79DDF"/>
<stop offset="1" stop-color="#99358F"/>
</linearGradient>
<linearGradient id="paint17_linear_87_498" x1="311.107" y1="45.8289" x2="310.45" y2="58.5254" gradientUnits="userSpaceOnUse">
<stop stop-color="#E79DDF"/>
<stop offset="1" stop-color="#99358F"/>
</linearGradient>
<linearGradient id="paint18_linear_87_498" x1="311.107" y1="45.8289" x2="310.45" y2="58.5254" gradientUnits="userSpaceOnUse">
<stop stop-color="#E79DDF"/>
<stop offset="1" stop-color="#99358F"/>
</linearGradient>
<linearGradient id="paint19_linear_87_498" x1="169.119" y1="96.3708" x2="167.988" y2="118.24" gradientUnits="userSpaceOnUse">
<stop stop-color="#E79DDF"/>
<stop offset="1" stop-color="#99358F"/>
</linearGradient>
<linearGradient id="paint20_linear_87_498" x1="169.119" y1="96.3708" x2="167.988" y2="118.24" gradientUnits="userSpaceOnUse">
<stop stop-color="#E79DDF"/>
<stop offset="1" stop-color="#99358F"/>
</linearGradient>
<linearGradient id="paint21_linear_87_498" x1="169.119" y1="96.3708" x2="167.988" y2="118.24" gradientUnits="userSpaceOnUse">
<stop stop-color="#E79DDF"/>
<stop offset="1" stop-color="#99358F"/>
</linearGradient>
<linearGradient id="paint22_linear_87_498" x1="169.119" y1="96.3708" x2="167.988" y2="118.24" gradientUnits="userSpaceOnUse">
<stop stop-color="#E79DDF"/>
<stop offset="1" stop-color="#99358F"/>
</linearGradient>
<linearGradient id="paint23_linear_87_498" x1="317.959" y1="60.4114" x2="312.993" y2="88.5298" gradientUnits="userSpaceOnUse">
<stop stop-color="#E79DDF"/>
<stop offset="1" stop-color="#99358F"/>
</linearGradient>
<linearGradient id="paint24_linear_87_498" x1="317.959" y1="60.4114" x2="312.993" y2="88.5298" gradientUnits="userSpaceOnUse">
<stop stop-color="#E79DDF"/>
<stop offset="1" stop-color="#99358F"/>
</linearGradient>
<linearGradient id="paint25_linear_87_498" x1="238.179" y1="99.9922" x2="234.079" y2="112.406" gradientUnits="userSpaceOnUse">
<stop stop-color="#E79DDF"/>
<stop offset="1" stop-color="#99358F"/>
</linearGradient>
<linearGradient id="paint26_linear_87_498" x1="238.179" y1="99.9922" x2="234.079" y2="112.406" gradientUnits="userSpaceOnUse">
<stop stop-color="#E79DDF"/>
<stop offset="1" stop-color="#99358F"/>
</linearGradient>
<linearGradient id="paint27_linear_87_498" x1="220.447" y1="79.1639" x2="215.481" y2="107.282" gradientUnits="userSpaceOnUse">
<stop stop-color="#E79DDF"/>
<stop offset="1" stop-color="#99358F"/>
</linearGradient>
<linearGradient id="paint28_linear_87_498" x1="220.447" y1="79.1639" x2="215.481" y2="107.282" gradientUnits="userSpaceOnUse">
<stop stop-color="#E79DDF"/>
<stop offset="1" stop-color="#99358F"/>
</linearGradient>
<linearGradient id="paint29_linear_87_498" x1="301.504" y1="49.7235" x2="301.057" y2="58.3648" gradientUnits="userSpaceOnUse">
<stop stop-color="#E79DDF"/>
<stop offset="1" stop-color="#99358F"/>
</linearGradient>
<linearGradient id="paint30_linear_87_498" x1="301.504" y1="49.7235" x2="301.057" y2="58.3648" gradientUnits="userSpaceOnUse">
<stop stop-color="#E79DDF"/>
<stop offset="1" stop-color="#99358F"/>
</linearGradient>
<linearGradient id="paint31_linear_87_498" x1="301.504" y1="49.7235" x2="301.057" y2="58.3648" gradientUnits="userSpaceOnUse">
<stop stop-color="#E79DDF"/>
<stop offset="1" stop-color="#99358F"/>
</linearGradient>
<linearGradient id="paint32_linear_87_498" x1="301.504" y1="49.7235" x2="301.057" y2="58.3648" gradientUnits="userSpaceOnUse">
<stop stop-color="#E79DDF"/>
<stop offset="1" stop-color="#99358F"/>
</linearGradient>
<linearGradient id="paint33_linear_87_498" x1="207.914" y1="87.2734" x2="207.198" y2="101.098" gradientUnits="userSpaceOnUse">
<stop stop-color="#E79DDF"/>
<stop offset="1" stop-color="#99358F"/>
</linearGradient>
<linearGradient id="paint34_linear_87_498" x1="207.914" y1="87.2734" x2="207.198" y2="101.098" gradientUnits="userSpaceOnUse">
<stop stop-color="#E79DDF"/>
<stop offset="1" stop-color="#99358F"/>
</linearGradient>
<linearGradient id="paint35_linear_87_498" x1="237.316" y1="94.2957" x2="236.726" y2="105.701" gradientUnits="userSpaceOnUse">
<stop stop-color="#E79DDF"/>
<stop offset="1" stop-color="#99358F"/>
</linearGradient>
<linearGradient id="paint36_linear_87_498" x1="237.316" y1="94.2957" x2="236.726" y2="105.701" gradientUnits="userSpaceOnUse">
<stop stop-color="#E79DDF"/>
<stop offset="1" stop-color="#99358F"/>
</linearGradient>
</defs>
</svg>
