<svg width="1438" height="215" viewBox="0 0 1438 215" fill="none" xmlns="http://www.w3.org/2000/svg">
<g id="lake">
<path id="lake_2" d="M1437.8 183.382V14.6231L1250.15 7.90434L1055.52 1.58081L857.891 7.90434L762.07 14.6231L663.524 13.4374L411.585 7.90434H250.443L67.3502 1.58081H0V183.382H1437.8Z" fill="url(#paint0_linear_87_85)"/>
<g id="small-stars-reflection">
<ellipse id="Ellipse 18" cx="1.99142" cy="0.608304" rx="1.99142" ry="0.608304" transform="matrix(1 0 0 -1 512.79 177.37)" fill="#D9D9D9" fill-opacity="0.33"/>
<ellipse id="Ellipse 19" cx="1.99142" cy="0.608304" rx="1.99142" ry="0.608304" transform="matrix(1 0 0 -1 460.017 205.048)" fill="#D9D9D9" fill-opacity="0.33"/>
<ellipse id="Ellipse 20" cx="1.99142" cy="0.608304" rx="1.99142" ry="0.608304" transform="matrix(1 0 0 -1 347.502 162.466)" fill="#D9D9D9" fill-opacity="0.33"/>
<ellipse id="Ellipse 21" cx="1.99142" cy="0.608304" rx="1.99142" ry="0.608304" transform="matrix(1 0 0 -1 396.292 170.679)" fill="#D9D9D9" fill-opacity="0.33"/>
<ellipse id="Ellipse 22" cx="1.99142" cy="0.608304" rx="1.99142" ry="0.608304" transform="matrix(1 0 0 -1 377.373 174.633)" fill="#D9D9D9" fill-opacity="0.33"/>
<ellipse id="Ellipse 23" cx="1.99142" cy="0.608304" rx="1.99142" ry="0.608304" transform="matrix(1 0 0 -1 377.373 177.978)" fill="#D9D9D9" fill-opacity="0.33"/>
</g>
<path id="island-reflection" d="M1222.19 153.185L1271.11 155.972H1360.55L1438 154.285V196L1408.9 195.08L1381.51 194.466L1353.27 192.013L1313.47 191.246L1273.25 190.172L1237.73 186.645L1209.92 180.357L1169.23 169.293C1165.52 168.285 1163.7 164.1 1165.5 160.702L1176.95 139L1194.04 142.8L1205.84 145.865C1205.95 145.894 1206.06 145.934 1206.17 145.983L1221.47 153.006C1221.7 153.11 1221.94 153.171 1222.19 153.185Z" fill="url(#paint1_linear_87_85)"/>
<path id="moon" d="M994.712 145.441C994.712 107.025 934.307 75.8823 859.794 75.8823C785.28 75.8823 724.875 107.025 724.875 145.441C724.875 183.857 785.28 215 859.794 215C934.307 215 994.712 183.857 994.712 145.441Z" fill="url(#paint2_linear_87_85)"/>
<g id="b-mountain-reflection">
<path id="big-mountain" d="M968.294 167.704L926.106 152.744L895.81 145.201L865.515 135.647L813.701 126.941L753.109 114.778L738.386 112.515L724.513 113.395L716.018 112.515L706.109 110.504L694.925 108.932L669.301 104.595L654.012 102.961L186.695 5.53314L449.064 8.6949L661.648 13.4375L990.73 3.16182L1053.46 4.57764e-05L1136.6 3.16182L1309.85 4.57764e-05L1435.31 14.228L1385.53 52.5644L1309.85 95.2922L1292.17 96.7133C1289.37 96.9388 1286.58 97.401 1283.85 98.0948L1241.24 108.932L1212.07 119.807L1195.27 126.623C1191.21 128.27 1186.91 129.238 1182.54 129.49L1167.34 130.367L1144.12 134.767L1136.6 135.647L1126.15 141.094L1107.6 147.213L1077.3 161.293L1060.03 169.213L1041.58 180.044C1036.98 182.747 1031.73 184.173 1026.39 184.173H1015.14C1011.31 184.173 1007.52 183.441 1003.97 182.016L968.294 167.704Z" fill="url(#paint3_linear_87_85)"/>
<path id="sow" d="M998.631 153.401C998.064 153.401 995.774 154.736 992.472 155.87C991.646 156.153 990.746 156.115 989.928 155.808L987.839 155.023C987.423 154.867 987.059 154.597 986.788 154.244C986.375 153.707 985.754 153.371 985.079 153.319L982.308 153.107C981.853 153.073 981.396 153.116 980.956 153.235L979.495 153.631L978.07 154.221C977.725 154.364 977.362 154.458 976.991 154.5L975.886 154.625C975.635 154.654 975.387 154.706 975.146 154.781L974.53 154.974C973.729 155.224 972.869 155.215 972.073 154.95L970.193 154.323L968.97 153.717C968.548 153.508 968.093 153.375 967.625 153.324L965.907 153.138C965.402 153.083 964.892 153.125 964.402 153.261L961.422 154.092L959.056 154.802C958.344 155.016 957.587 155.027 956.869 154.835L954.089 154.088C953.045 153.808 951.933 154.142 951.216 154.95C951.11 155.069 950.995 155.18 950.871 155.279L949.671 156.245C949.357 156.499 949.005 156.703 948.629 156.851L946.656 157.629C946.406 157.728 946.191 157.898 946.038 158.119L946.003 158.171C945.689 158.625 945.704 159.23 946.04 159.667C946.192 159.865 946.398 160.013 946.634 160.094L963.017 165.733L971.256 168.96L978.963 172.071L985.076 174.492L990.923 176.706L999.162 180.139L1003.95 181.983L1005.91 182.738C1006.19 182.849 1006.49 182.938 1006.79 183.003L1008.46 183.366L1010.59 183.827L1013.25 184.058H1021.49L1028.4 184.173L1033.15 183.704C1033.88 183.633 1034.58 183.449 1035.25 183.16L1039.29 181.407L1044.61 178.18L1052.05 173.915L1060.56 168.844L1068 165.502L1075.44 162.044L1083.68 158.472L1089.17 155.711C1089.57 155.509 1089.51 154.917 1089.07 154.803C1089.02 154.79 1088.97 154.785 1088.92 154.788L1084.59 155.056C1083.82 155.104 1083.08 155.372 1082.46 155.829L1082.39 155.882C1081.36 156.64 1080.03 156.861 1078.82 156.477L1078.22 156.289C1077.96 156.208 1077.71 156.1 1077.48 155.968L1076.17 155.241C1074.9 154.532 1073.34 154.57 1072.11 155.34L1070.99 156.037C1070.26 156.495 1069.39 156.702 1068.53 156.628L1067.59 156.546C1067.33 156.524 1067.07 156.476 1066.83 156.404L1066.07 156.185C1065.25 155.949 1064.53 155.456 1064.01 154.78L1063.76 154.452C1063.57 154.215 1063.34 154.018 1063.08 153.875C1061.29 152.898 1055.44 154.104 1053.58 154.93C1052.77 155.288 1052.02 155.382 1051.51 154.977C1050.98 154.556 1050.9 153.722 1050.52 153.17C1050.09 152.547 1049.07 151.943 1046.14 152.498C1045.83 152.558 1045.53 152.664 1045.24 152.802L1042.98 153.899C1041.84 154.452 1040.5 154.404 1039.4 153.769C1038.64 153.333 1037.76 153.168 1036.9 153.302L1035.87 153.461C1035.15 153.572 1034.48 153.875 1033.93 154.338L1033.7 154.529C1033.02 155.093 1032.17 155.417 1031.29 155.45L1028.96 155.539C1028.15 155.569 1027.41 155.072 1027.13 154.308C1026.93 153.739 1026.46 153.305 1025.87 153.144L1022.34 152.169C1021.45 151.922 1020.49 152.012 1019.62 152.33C1012.16 155.044 1009.62 150.435 1006.6 150.98C1004.89 151.291 999.428 153.401 998.631 153.401Z" fill="url(#paint4_linear_87_85)"/>
</g>
<path id="small-mountain-reflection" d="M213.801 153.399L137.132 163.23C136.289 163.338 135.462 163.553 134.673 163.871L81.4387 185.278C80.2526 185.755 78.9861 186 77.7078 186H63.8385C62.4564 186 61.0809 185.809 59.751 185.432L0 168.51V43H151.833H267.28L453.253 49.338L534.56 46.169L578.133 43H597L592.425 62.689L571.13 87.0866L556.02 114.429L523.856 131.659L507.24 138.362C506.433 138.688 505.525 138.647 504.751 138.251L491.658 131.551C490.367 130.89 488.819 130.98 487.613 131.787L474.451 140.585L450.452 149.773L426.57 155.781C425.572 156.032 424.525 156.022 423.531 155.752L390.728 146.827L338.995 144.471L287.97 140.607C287.779 140.592 287.588 140.592 287.397 140.604L252.984 142.937L213.801 153.399Z" fill="url(#paint5_linear_87_85)"/>
<ellipse id="Ellipse 13" cx="243.949" cy="161.645" rx="5.97425" ry="1.9761" fill="#FFFDFD" fill-opacity="0.22"/>
<g id="sakura-tree-reflection">
<path id="sakura-trunk" d="M1353.82 177.213L1346.7 169.688C1346.03 168.982 1346.66 167.834 1347.61 168.019L1352.51 168.964C1352.56 168.974 1352.61 168.989 1352.66 169.007L1361.72 172.334C1362.15 172.49 1362.62 172.342 1362.88 171.972L1364.71 169.383C1364.89 169.129 1365.18 168.973 1365.49 168.961L1378.4 168.466C1378.47 168.464 1378.54 168.468 1378.6 168.479L1387.88 169.995C1387.96 170.007 1388.03 170.011 1388.11 170.007L1396.39 169.497H1404.86L1413.91 170.013H1426.18C1426.27 170.013 1426.36 170.001 1426.45 169.976L1431.62 168.512C1431.74 168.479 1431.86 168.468 1431.98 168.478L1437.08 168.903C1437.6 168.946 1438 169.38 1438 169.9V195.223C1438 195.793 1437.53 196.247 1436.96 196.222L1401.96 194.681C1401.73 194.671 1401.51 194.583 1401.34 194.431L1393.54 187.535C1393.39 187.405 1393.21 187.321 1393.02 187.294L1373.4 184.573C1373.33 184.563 1373.26 184.545 1373.19 184.52L1354.2 177.463C1354.05 177.41 1353.92 177.324 1353.82 177.213Z" fill="url(#paint6_linear_87_85)"/>
</g>
</g>
<defs>
<linearGradient id="paint0_linear_87_85" x1="718.402" y1="1.58081" x2="718.402" y2="183.382" gradientUnits="userSpaceOnUse">
<stop offset="0.0001" stop-color="#47459F"/>
<stop offset="0.0002" stop-color="#5C5AD2"/>
<stop offset="0.795833" stop-color="#0A085F"/>
</linearGradient>
<linearGradient id="paint1_linear_87_85" x1="1320.75" y1="190.172" x2="1320.75" y2="154.285" gradientUnits="userSpaceOnUse">
<stop stop-color="#402790"/>
<stop offset="0.748958" stop-color="#1C0E76"/>
</linearGradient>
<linearGradient id="paint2_linear_87_85" x1="811.409" y1="203.807" x2="807.138" y2="111.875" gradientUnits="userSpaceOnUse">
<stop stop-color="#A7A7C5"/>
<stop offset="1" stop-color="#272592"/>
</linearGradient>
<linearGradient id="paint3_linear_87_85" x1="951.588" y1="184.173" x2="949.586" y2="-0.012713" gradientUnits="userSpaceOnUse">
<stop offset="0.196875" stop-color="#49398E"/>
<stop offset="0.93125" stop-color="#2F2DA4"/>
</linearGradient>
<linearGradient id="paint4_linear_87_85" x1="1017.9" y1="184.173" x2="1017.9" y2="150.898" gradientUnits="userSpaceOnUse">
<stop stop-color="#7D6CB3"/>
<stop offset="1" stop-color="#B6B0CE"/>
</linearGradient>
<linearGradient id="paint5_linear_87_85" x1="79.061" y1="178.078" x2="79.7596" y2="43.3951" gradientUnits="userSpaceOnUse">
<stop offset="0.155625" stop-color="#4E3A8E"/>
<stop offset="0.722658" stop-color="#2D2688"/>
</linearGradient>
<linearGradient id="paint6_linear_87_85" x1="1397.67" y1="236.292" x2="1397.67" y2="167.429" gradientUnits="userSpaceOnUse">
<stop stop-color="#540808" stop-opacity="0.33"/>
<stop offset="1" stop-color="#2D134F"/>
</linearGradient>
</defs>
</svg>
