<svg width="1467" height="376" viewBox="0 0 1467 376" fill="none" xmlns="http://www.w3.org/2000/svg">
<g id="lake">
<path id="lake_2" d="M1441 232V18.5L1252.93 10L1057.87 2L859.798 10L763.765 18.5L665 17L412.5 10H251L67.5 2H0V232H1441Z" fill="url(#paint0_linear_87_85)"/>
<g id="small-stars-reflection">
<ellipse id="Ellipse 13" cx="2" cy="0.769575" rx="2" ry="0.769575" transform="matrix(1 0 0 -1 1182 311.356)" fill="#D9D9D9" fill-opacity="0.33"/>
<ellipse id="Ellipse 14" cx="2" cy="0.769575" rx="2" ry="0.769575" transform="matrix(1 0 0 -1 1395 355.221)" fill="#D9D9D9" fill-opacity="0.33"/>
<ellipse id="Ellipse 15" cx="2" cy="0.769575" rx="2" ry="0.769575" transform="matrix(1 0 0 -1 1289 341.754)" fill="#D9D9D9" fill-opacity="0.33"/>
<ellipse id="Ellipse 28" cx="2" cy="0.769575" rx="2" ry="0.769575" transform="matrix(1 0 0 -1 632 366.38)" fill="#D9D9D9" fill-opacity="0.33"/>
<ellipse id="Ellipse 29" cx="2" cy="0.769575" rx="2" ry="0.769575" transform="matrix(1 0 0 -1 660 376)" fill="#D9D9D9" fill-opacity="0.33"/>
<ellipse id="Ellipse 30" cx="2" cy="0.769575" rx="2" ry="0.769575" transform="matrix(1 0 0 -1 435 365.611)" fill="#D9D9D9" fill-opacity="0.33"/>
<ellipse id="Ellipse 16" cx="2" cy="0.769575" rx="2" ry="0.769575" transform="matrix(1 0 0 -1 1230 265.951)" fill="#D9D9D9" fill-opacity="0.33"/>
<ellipse id="Ellipse 17" cx="2" cy="0.769575" rx="2" ry="0.769575" transform="matrix(1 0 0 -1 1300 243.633)" fill="#D9D9D9" fill-opacity="0.33"/>
<ellipse id="Ellipse 18" cx="2" cy="0.769575" rx="2" ry="0.769575" transform="matrix(1 0 0 -1 515 224.394)" fill="#D9D9D9" fill-opacity="0.33"/>
<ellipse id="Ellipse 19" cx="2" cy="0.769575" rx="2" ry="0.769575" transform="matrix(1 0 0 -1 462 259.409)" fill="#D9D9D9" fill-opacity="0.33"/>
<ellipse id="Ellipse 20" cx="2" cy="0.769575" rx="2" ry="0.769575" transform="matrix(1 0 0 -1 349 205.539)" fill="#D9D9D9" fill-opacity="0.33"/>
<ellipse id="Ellipse 21" cx="2" cy="0.769575" rx="2" ry="0.769575" transform="matrix(1 0 0 -1 398 215.928)" fill="#D9D9D9" fill-opacity="0.33"/>
<ellipse id="Ellipse 24" cx="2" cy="0.769575" rx="2" ry="0.769575" transform="matrix(1 0 0 -1 55 364.456)" fill="#D9D9D9" fill-opacity="0.33"/>
<ellipse id="Ellipse 25" cx="2" cy="0.769575" rx="2" ry="0.769575" transform="matrix(1 0 0 -1 0 279.418)" fill="#D9D9D9" fill-opacity="0.33"/>
<ellipse id="Ellipse 26" cx="2" cy="0.769575" rx="2" ry="0.769575" transform="matrix(1 0 0 -1 37 295.579)" fill="#D9D9D9" fill-opacity="0.33"/>
<ellipse id="Ellipse 27" cx="2" cy="0.769575" rx="2" ry="0.769575" transform="matrix(1 0 0 -1 33 289.808)" fill="#D9D9D9" fill-opacity="0.33"/>
<ellipse id="Ellipse 22" cx="2" cy="0.769575" rx="2" ry="0.769575" transform="matrix(1 0 0 -1 379 220.931)" fill="#D9D9D9" fill-opacity="0.33"/>
<ellipse id="Ellipse 23" cx="2" cy="0.769575" rx="2" ry="0.769575" transform="matrix(1 0 0 -1 379 225.163)" fill="#D9D9D9" fill-opacity="0.33"/>
</g>
<path id="island-reflection" d="M1189.45 186.032L1246.69 190.065H1351.36L1442 187.623V248L1407.95 246.668L1375.9 245.78L1342.84 242.229L1296.27 241.119L1249.19 239.565L1207.93 234.496C1207.73 234.472 1207.53 234.432 1207.34 234.378L1175.08 225.359L1125.16 208.57C1121.84 207.454 1120.18 203.747 1121.55 200.528L1136.5 165.5L1156.5 171L1170.3 175.437C1170.43 175.479 1170.56 175.534 1170.68 175.602L1188.61 185.776C1188.87 185.924 1189.15 186.011 1189.45 186.032Z" fill="url(#paint1_linear_87_85)"/>
<path id="moon" d="M999 184C999 135.399 938.335 96 863.5 96C788.665 96 728 135.399 728 184C728 232.601 788.665 272 863.5 272C938.335 272 999 232.601 999 184Z" fill="url(#paint2_linear_87_85)"/>
<g id="b-mountain-reflection">
<path id="big-mountain" d="M972.467 212.165L930.098 193.239L899.672 183.696L869.246 171.609L817.208 160.595L756.356 145.208L741.569 142.345L727.636 143.458L719.105 142.345L709.152 139.8L697.92 137.812L672.186 132.325L656.831 130.257L187.5 7L451 11L664.5 17L995 4L1058 0L1141.5 4L1315.5 0L1445 19L1391.5 66.5L1315.5 120.556L1298.73 122.254C1295.26 122.605 1291.83 123.319 1288.51 124.383L1246.59 137.812L1217.3 151.569L1201.48 159.65C1196.72 162.084 1191.52 163.538 1186.18 163.926L1174.8 164.753C1173.18 164.87 1171.58 165.118 1170 165.494L1155.21 169.026C1151.2 169.982 1147 169.678 1143.17 168.155L1136.5 165.5L1131 178.5L1112.37 186.241L1081.94 204.054L1064.6 214.074L1046.96 227.121C1041.79 230.939 1035.54 233 1029.12 233H1020.85C1016.15 233 1011.51 231.896 1007.32 229.776L972.467 212.165Z" fill="url(#paint3_linear_87_85)"/>
<path id="sow" d="M1002.94 194.069C1002.38 194.069 1000.2 195.665 997.031 197.07C996.04 197.51 994.908 197.453 993.929 196.989L992.151 196.147C991.699 195.933 991.319 195.592 991.058 195.164C990.637 194.475 989.917 194.024 989.113 193.946L986.712 193.715C986.145 193.66 985.574 193.727 985.035 193.911L984.005 194.263C983.813 194.328 983.627 194.408 983.447 194.502L982.37 195.064C981.969 195.273 981.535 195.413 981.087 195.477L980.175 195.607C979.868 195.651 979.567 195.731 979.279 195.844L979.007 195.951C978.036 196.333 976.955 196.32 975.994 195.916L974.671 195.36C974.474 195.278 974.284 195.179 974.102 195.066L973.234 194.524C972.754 194.224 972.217 194.03 971.657 193.953L970.259 193.763C969.631 193.677 968.991 193.742 968.393 193.952L965.566 194.944L963.436 195.75C962.57 196.078 961.617 196.094 960.74 195.798L958.469 195.03C957.296 194.633 956.002 195.056 955.289 196.068C955.201 196.193 955.102 196.312 954.994 196.421L953.758 197.675C953.447 197.991 953.085 198.253 952.688 198.45L950.875 199.35C950.534 199.519 950.254 199.789 950.071 200.122L950.029 200.197C949.733 200.736 949.748 201.392 950.069 201.916C950.253 202.218 950.526 202.456 950.851 202.597L967.168 209.671L975.442 213.753L983.183 217.69L989.322 220.752L995.195 223.554L1003.47 227.897L1008.27 230.23L1010.17 231.152C1010.51 231.315 1010.86 231.445 1011.21 231.543L1012.81 231.979L1014.64 232.479C1014.84 232.535 1015.05 232.574 1015.26 232.597L1017.62 232.854H1025.89L1032.18 232.986C1032.61 232.995 1033.05 232.973 1033.48 232.92L1037.38 232.435C1038.25 232.327 1039.1 232.054 1039.87 231.632L1043.3 229.758C1043.62 229.587 1043.92 229.392 1044.2 229.175L1049.11 225.418L1056.59 220.023L1065.13 213.608L1072.6 209.379L1080.08 205.005L1088.35 200.485L1093.94 196.944C1094.37 196.67 1094.29 196.016 1093.8 195.857C1093.73 195.832 1093.65 195.822 1093.57 195.829L1089.37 196.156C1088.54 196.221 1087.75 196.567 1087.13 197.138C1086.08 198.114 1084.56 198.398 1083.23 197.869L1082.91 197.743C1082.62 197.627 1082.35 197.478 1082.09 197.298L1081.17 196.652C1079.73 195.638 1077.79 195.69 1076.4 196.78L1075.75 197.29C1074.93 197.936 1073.89 198.234 1072.85 198.121L1072.28 198.059C1071.96 198.024 1071.65 197.951 1071.35 197.841L1070.71 197.611C1069.86 197.3 1069.14 196.71 1068.67 195.936L1068.38 195.456C1068.17 195.119 1067.9 194.829 1067.57 194.605C1065.54 193.211 1060.57 194.385 1058.52 195.756C1057.58 196.391 1056.67 196.652 1056.07 196.092C1055.46 195.517 1055.45 194.486 1055.04 193.758C1054.6 192.985 1053.59 192.245 1050.73 192.909C1050.37 192.994 1050.02 193.148 1049.7 193.344L1047.52 194.674C1046.38 195.368 1044.94 195.309 1043.87 194.527C1043.13 193.989 1042.2 193.783 1041.3 193.958L1040.48 194.117C1039.67 194.276 1038.93 194.682 1038.36 195.281L1038.21 195.441C1037.5 196.183 1036.53 196.625 1035.5 196.674L1033.77 196.757C1032.75 196.805 1031.83 196.147 1031.55 195.166C1031.35 194.478 1030.83 193.93 1030.15 193.695L1027.06 192.621C1025.98 192.244 1024.79 192.379 1023.74 192.837C1016.46 196.006 1013.93 190.327 1010.94 191.008C1009.22 191.4 1003.74 194.069 1002.94 194.069Z" fill="url(#paint4_linear_87_85)"/>
</g>
<path id="small-mountain-reflection" d="M237.233 193.957L152.635 206.259C151.698 206.395 150.786 206.664 149.925 207.056L90.6246 234.099C89.322 234.693 87.9071 235 86.4755 235H71.0874C69.5304 235 67.983 234.758 66.5006 234.282L0 212.924V54.5H169H297.5L504.5 62.5L595 58.5L643.5 54.5H664.5L659.408 79.3522L635.705 110.148L618.886 144.66L583.086 166.409L564.589 174.871C563.703 175.276 562.677 175.226 561.835 174.738L547.222 166.258C545.828 165.448 544.083 165.556 542.798 166.53L528.095 177.676L501.382 189.272L474.818 196.852C473.7 197.17 472.514 197.158 471.403 196.815L434.906 185.555L377.324 182.581L320.535 177.703C320.319 177.685 320.102 177.684 319.886 177.701L281.588 180.644L238.692 193.632C238.215 193.777 237.727 193.885 237.233 193.957Z" fill="url(#paint5_linear_87_85)"/>
<ellipse id="Ellipse 13_2" cx="245" cy="204.5" rx="6" ry="2.5" fill="#FFFDFD" fill-opacity="0.22"/>
<g id="sakura-tree-reflection">
<g id="Ellipse 31">
<path d="M1442.4 313.449C1442.4 303.6 1479.39 262.465 1409.8 292.644C1421.13 270.504 1278.31 299.274 1353.03 301.036C1357.06 301.132 1359.62 310.019 1334.47 314.363C1322.08 323.621 1334.47 326.237 1338.74 328.538C1348.48 338.446 1356.36 331.711 1362.55 333.939C1382.93 341.28 1379.71 333.111 1387.09 333.111C1402.16 333.111 1406.4 337.356 1424.36 331.946C1455.52 337.574 1464.33 319.925 1442.4 313.449Z" fill="url(#paint6_linear_87_85)" fill-opacity="0.17"/>
<path d="M1442.4 313.449C1442.4 303.6 1479.39 262.465 1409.8 292.644C1421.13 270.504 1278.31 299.274 1353.03 301.036C1357.06 301.132 1359.62 310.019 1334.47 314.363C1322.08 323.621 1334.47 326.237 1338.74 328.538C1348.48 338.446 1356.36 331.711 1362.55 333.939C1382.93 341.28 1379.71 333.111 1387.09 333.111C1402.16 333.111 1406.4 337.356 1424.36 331.946C1455.52 337.574 1464.33 319.925 1442.4 313.449Z" fill="url(#paint7_linear_87_85)" fill-opacity="0.17"/>
</g>
<path id="sakura-trunk" d="M1440.77 213.078L1433.93 214.265C1433.47 214.343 1433.13 214.719 1433.1 215.176L1428.69 274.87C1428.66 275.209 1428.81 275.537 1429.08 275.742L1430.69 276.956C1430.75 277.002 1430.81 277.054 1430.85 277.112L1434.34 281.272L1435.7 283.19C1435.89 283.456 1435.94 283.799 1435.82 284.107L1435.11 286.104C1435.07 286.202 1435.02 286.294 1434.96 286.376L1432.97 288.957C1432.78 289.192 1432.51 289.334 1432.21 289.345L1402.2 290.499L1384.58 289.629C1384.46 289.623 1384.34 289.638 1384.23 289.672L1375.97 292.228L1370.97 294.138C1370.35 294.375 1370.13 295.139 1370.53 295.67L1373.6 299.783C1373.73 299.963 1373.93 300.092 1374.14 300.15L1378.35 301.287C1378.47 301.32 1378.59 301.377 1378.69 301.454L1382.36 304.223C1382.71 304.481 1382.84 304.928 1382.71 305.334L1381.59 308.729C1381.49 309.041 1381.23 309.277 1380.91 309.348L1373.78 310.946C1373.63 310.979 1373.66 311.195 1373.81 311.195L1383.86 310.574C1384.2 310.553 1384.5 310.361 1384.67 310.065L1385.5 308.578L1387 305.911C1387.2 305.548 1387.16 305.098 1386.89 304.779L1383.02 300.162C1382.96 300.095 1382.92 300.02 1382.88 299.939L1381.97 297.961C1381.69 297.37 1382.05 296.68 1382.69 296.559L1389.84 295.211C1389.92 295.194 1390.01 295.189 1390.1 295.197L1398.91 295.912C1398.96 295.916 1399.01 295.924 1399.06 295.936L1408.71 298.261L1417.63 301.302C1417.7 301.325 1417.77 301.341 1417.84 301.349L1430.61 302.782C1430.72 302.795 1430.84 302.788 1430.95 302.761L1436.66 301.406C1436.85 301.361 1437.02 301.261 1437.16 301.119L1440.95 297.086C1441.12 296.9 1441.22 296.655 1441.22 296.4V274.828L1441.94 214.075C1441.95 213.449 1441.39 212.971 1440.77 213.078Z" fill="url(#paint8_linear_87_85)"/>
<g id="Ellipse 33">
<path d="M1378.12 287.335C1389.9 299.64 1428.39 266.939 1344.8 273.261C1314.97 270.863 1262.23 283.612 1310.29 288.873C1312.01 289.061 1301.08 291.461 1313.87 294.949C1288.62 296.475 1311.12 303.72 1305.12 306.722C1268.82 312.87 1307.78 316.433 1314.97 315.628C1314.57 327.928 1327.56 315.971 1334.14 317.102C1354.34 320.569 1345.48 313.919 1350.54 312.871C1360.86 312.452 1378.12 312.871 1378.71 305.09C1386.97 304.436 1399.43 285.974 1378.12 287.335Z" fill="url(#paint9_linear_87_85)"/>
<path d="M1378.12 287.335C1389.9 299.64 1428.39 266.939 1344.8 273.261C1314.97 270.863 1262.23 283.612 1310.29 288.873C1312.01 289.061 1301.08 291.461 1313.87 294.949C1288.62 296.475 1311.12 303.72 1305.12 306.722C1268.82 312.87 1307.78 316.433 1314.97 315.628C1314.57 327.928 1327.56 315.971 1334.14 317.102C1354.34 320.569 1345.48 313.919 1350.54 312.871C1360.86 312.452 1378.12 312.871 1378.71 305.09C1386.97 304.436 1399.43 285.974 1378.12 287.335Z" fill="url(#paint10_linear_87_85)"/>
</g>
<path id="sakura-trunk_2" d="M1350.24 224.393L1342.6 214.233C1342.04 213.482 1342.73 212.438 1343.64 212.66L1348.89 213.939C1348.96 213.954 1349.02 213.976 1349.08 214.003L1358.05 218.152C1358.52 218.371 1359.08 218.189 1359.34 217.733L1361.18 214.445C1361.35 214.145 1361.66 213.952 1362.01 213.935L1374.89 213.314C1374.97 213.31 1375.06 213.317 1375.14 213.334L1384.41 215.242C1384.5 215.261 1384.59 215.267 1384.69 215.259L1392.98 214.616H1401.48L1410.57 215.27H1422.87C1422.98 215.27 1423.09 215.251 1423.2 215.212L1428.32 213.385C1428.46 213.334 1428.61 213.316 1428.76 213.332L1433.81 213.862C1434.35 213.918 1434.74 214.385 1434.71 214.921L1430.84 274.653C1430.83 274.853 1430.75 275.045 1430.63 275.204L1427.27 279.5L1423.89 283.111C1423.78 283.228 1423.7 283.37 1423.66 283.525L1421.65 290.703C1421.61 290.846 1421.61 290.995 1421.63 291.141L1422.47 296.025C1422.5 296.248 1422.62 296.452 1422.79 296.603L1427.27 300.604L1431.31 303.679L1433.2 305.124C1433.35 305.232 1433.46 305.377 1433.52 305.543L1436.79 313.587C1436.9 313.87 1436.88 314.19 1436.73 314.456L1435.86 315.993C1435.81 316.08 1435.75 316.16 1435.68 316.228L1426.12 325.243C1425.95 325.406 1425.72 325.502 1425.48 325.514L1411.42 326.228L1404.76 327.506C1404.63 327.532 1404.49 327.53 1404.36 327.5L1395.49 325.53C1395.39 325.507 1395.29 325.468 1395.2 325.414L1390.5 322.634C1390.16 322.435 1390.05 322.002 1390.25 321.664L1390.44 321.341C1390.78 320.741 1391.71 321.054 1391.62 321.743C1391.58 322.05 1391.76 322.341 1392.06 322.433L1397.04 323.974C1397.16 324.012 1397.29 324.026 1397.42 324.016L1402.56 323.6C1402.63 323.595 1402.7 323.582 1402.77 323.563L1407.16 322.274L1411.27 320.721C1411.37 320.683 1411.47 320.661 1411.58 320.657L1418.19 320.384C1418.4 320.376 1418.61 320.298 1418.77 320.163L1421.52 317.938C1421.57 317.9 1421.62 317.867 1421.67 317.839L1423.63 316.762C1423.69 316.728 1423.75 316.687 1423.8 316.64L1426 314.727C1426.43 314.351 1426.46 313.689 1426.07 313.277L1424.43 311.586L1419.3 306.607C1419.25 306.558 1419.2 306.516 1419.14 306.479L1411.64 301.741C1411.5 301.65 1411.38 301.523 1411.3 301.373L1407.16 293.754L1402.71 281.815C1402.68 281.736 1402.66 281.654 1402.65 281.57L1401.75 272.952C1401.66 272.048 1400.5 271.729 1399.96 272.456L1396.75 276.718L1393.16 281.457C1393.04 281.613 1392.88 281.731 1392.7 281.796L1383.11 285.183C1383.06 285.201 1383.01 285.215 1382.95 285.224L1375.18 286.645C1375.07 286.664 1374.96 286.667 1374.86 286.652L1364.69 285.222C1364.63 285.214 1364.58 285.211 1364.52 285.213L1346 285.902C1345.94 285.904 1345.88 285.901 1345.82 285.893L1333.7 284.209C1333.58 284.193 1333.47 284.197 1333.36 284.221L1310.72 288.958L1333.38 281.743C1333.48 281.712 1333.58 281.696 1333.68 281.696H1350.39H1362.69H1377.28C1377.38 281.696 1377.48 281.681 1377.58 281.651L1384.02 279.662C1384.35 279.561 1384.6 279.3 1384.69 278.969L1386 274.174C1386.17 273.538 1385.69 272.911 1385.04 272.911H1372.04C1371.96 272.911 1371.87 272.9 1371.79 272.879L1365.79 271.32C1365.73 271.306 1365.68 271.296 1365.62 271.292L1355.59 270.422H1348.99L1334.18 271.299L1316.22 273.915L1298.62 275.223L1276.19 276.345L1303.97 272.303L1315.48 271.299L1324.5 269.633L1338.94 266.285L1345.83 264.991C1345.88 264.981 1345.94 264.976 1345.99 264.974L1367.76 264.327C1367.86 264.324 1367.95 264.335 1368.04 264.359L1378.29 267.039C1378.45 267.081 1378.62 267.082 1378.78 267.043L1389.71 264.367C1389.83 264.338 1389.95 264.286 1390.05 264.214L1393.76 261.598C1393.86 261.527 1393.95 261.437 1394.02 261.333L1401.06 250.715C1401.31 250.335 1401.27 249.832 1400.97 249.493L1390.12 237.441C1389.97 237.275 1389.77 237.163 1389.55 237.125L1369.92 233.693C1369.83 233.678 1369.74 233.651 1369.66 233.614L1350.61 224.698C1350.46 224.628 1350.33 224.524 1350.24 224.393Z" fill="url(#paint11_linear_87_85)"/>
<g id="Ellipse 32">
<path d="M1381.39 270.248C1380.89 266.028 1373.78 260.666 1355.47 262.381C1353.27 262.586 1351.52 256.8 1337.97 261.626C1340.35 257.922 1308.85 261.309 1312.6 267.801C1313.62 269.56 1317.24 268.877 1298.28 271.547C1271.39 277.504 1303.58 276.497 1311.21 276.468C1304.29 281.978 1322.11 279.736 1321.54 281.593C1320.13 286.218 1334.59 280.687 1340.22 280.449C1342.44 287.346 1402.47 272.805 1381.39 270.248Z" fill="url(#paint12_linear_87_85)" fill-opacity="0.17"/>
<path d="M1381.39 270.248C1380.89 266.028 1373.78 260.666 1355.47 262.381C1353.27 262.586 1351.52 256.8 1337.97 261.626C1340.35 257.922 1308.85 261.309 1312.6 267.801C1313.62 269.56 1317.24 268.877 1298.28 271.547C1271.39 277.504 1303.58 276.497 1311.21 276.468C1304.29 281.978 1322.11 279.736 1321.54 281.593C1320.13 286.218 1334.59 280.687 1340.22 280.449C1342.44 287.346 1402.47 272.805 1381.39 270.248Z" fill="url(#paint13_linear_87_85)" fill-opacity="0.17"/>
</g>
<g id="Ellipse 35">
<path d="M1412.44 323.667C1414.89 321.958 1413.9 320.351 1407.04 320.351C1404.3 320.351 1399.9 319.25 1399.47 322.188C1399.44 322.386 1397.59 322.373 1399.58 323.489C1394.91 322.915 1398.31 325.093 1396.97 325.468C1394.4 326.185 1396.6 327.442 1397.96 327.533C1398.8 329.714 1400.42 327.832 1401.28 328.479C1403.2 329.932 1405.04 328.479 1404.59 328.223C1404.73 329.078 1405.77 329.714 1408.05 329.129C1411.68 328.893 1411.53 328.186 1410.82 327.187C1414.17 326.78 1415.3 326.226 1413.9 324.987C1414.93 323.75 1412.91 323.977 1412.44 323.667Z" fill="url(#paint14_linear_87_85)" fill-opacity="0.17"/>
<path d="M1412.44 323.667C1414.89 321.958 1413.9 320.351 1407.04 320.351C1404.3 320.351 1399.9 319.25 1399.47 322.188C1399.44 322.386 1397.59 322.373 1399.58 323.489C1394.91 322.915 1398.31 325.093 1396.97 325.468C1394.4 326.185 1396.6 327.442 1397.96 327.533C1398.8 329.714 1400.42 327.832 1401.28 328.479C1403.2 329.932 1405.04 328.479 1404.59 328.223C1404.73 329.078 1405.77 329.714 1408.05 329.129C1411.68 328.893 1411.53 328.186 1410.82 327.187C1414.17 326.78 1415.3 326.226 1413.9 324.987C1414.93 323.75 1412.91 323.977 1412.44 323.667Z" fill="url(#paint15_linear_87_85)" fill-opacity="0.17"/>
<path d="M1412.44 323.667C1414.89 321.958 1413.9 320.351 1407.04 320.351C1404.3 320.351 1399.9 319.25 1399.47 322.188C1399.44 322.386 1397.59 322.373 1399.58 323.489C1394.91 322.915 1398.31 325.093 1396.97 325.468C1394.4 326.185 1396.6 327.442 1397.96 327.533C1398.8 329.714 1400.42 327.832 1401.28 328.479C1403.2 329.932 1405.04 328.479 1404.59 328.223C1404.73 329.078 1405.77 329.714 1408.05 329.129C1411.68 328.893 1411.53 328.186 1410.82 327.187C1414.17 326.78 1415.3 326.226 1413.9 324.987C1414.93 323.75 1412.91 323.977 1412.44 323.667Z" fill="url(#paint16_linear_87_85)" fill-opacity="0.17"/>
<path d="M1412.44 323.667C1414.89 321.958 1413.9 320.351 1407.04 320.351C1404.3 320.351 1399.9 319.25 1399.47 322.188C1399.44 322.386 1397.59 322.373 1399.58 323.489C1394.91 322.915 1398.31 325.093 1396.97 325.468C1394.4 326.185 1396.6 327.442 1397.96 327.533C1398.8 329.714 1400.42 327.832 1401.28 328.479C1403.2 329.932 1405.04 328.479 1404.59 328.223C1404.73 329.078 1405.77 329.714 1408.05 329.129C1411.68 328.893 1411.53 328.186 1410.82 327.187C1414.17 326.78 1415.3 326.226 1413.9 324.987C1414.93 323.75 1412.91 323.977 1412.44 323.667Z" fill="url(#paint17_linear_87_85)" fill-opacity="0.17"/>
</g>
<g id="Ellipse 36">
<path d="M1440.31 317.472C1446.36 314.456 1435.77 307.854 1430.26 309.912C1433.27 308.19 1417.03 306.398 1413.14 312.319C1412.88 312.714 1409.02 312.373 1412.77 314.946C1403.01 313.009 1409.31 317.952 1406.25 318.478C1402 322.095 1404.52 322.372 1407.41 322.786C1403.83 327.344 1414.63 323.603 1414.09 325.241C1412.74 329.32 1419.17 325.177 1421.33 325.287C1421.23 327.025 1425.46 329.289 1428.34 327.686C1436.23 327.825 1436.24 326.382 1435.18 324.259C1442.56 324.006 1448.19 320.34 1442.83 320.364C1445.62 318.057 1441.16 318.171 1440.31 317.472Z" fill="url(#paint18_linear_87_85)" fill-opacity="0.17"/>
<path d="M1440.31 317.472C1446.36 314.456 1435.77 307.854 1430.26 309.912C1433.27 308.19 1417.03 306.398 1413.14 312.319C1412.88 312.714 1409.02 312.373 1412.77 314.946C1403.01 313.009 1409.31 317.952 1406.25 318.478C1402 322.095 1404.52 322.372 1407.41 322.786C1403.83 327.344 1414.63 323.603 1414.09 325.241C1412.74 329.32 1419.17 325.177 1421.33 325.287C1421.23 327.025 1425.46 329.289 1428.34 327.686C1436.23 327.825 1436.24 326.382 1435.18 324.259C1442.56 324.006 1448.19 320.34 1442.83 320.364C1445.62 318.057 1441.16 318.171 1440.31 317.472Z" fill="url(#paint19_linear_87_85)" fill-opacity="0.17"/>
</g>
<g id="Ellipse 40">
<path d="M1437.4 307.484C1439.17 306.368 1438.47 305.325 1433.54 305.339C1431.57 305.344 1428.41 304.637 1428.08 306.548C1428.06 306.677 1426.73 306.672 1428.15 307.394C1424.8 307.03 1427.23 308.44 1426.27 308.686C1424.42 309.157 1425.99 309.97 1426.97 310.027C1427.56 311.444 1428.73 310.216 1429.35 310.635C1430.72 311.577 1432.05 310.628 1431.73 310.463C1431.83 311.018 1432.57 311.43 1434.21 311.044C1436.82 310.884 1436.72 310.425 1436.21 309.777C1438.62 309.505 1439.44 309.143 1438.44 308.339C1439.19 307.533 1437.73 307.685 1437.4 307.484Z" fill="url(#paint20_linear_87_85)" fill-opacity="0.17"/>
<path d="M1437.4 307.484C1439.17 306.368 1438.47 305.325 1433.54 305.339C1431.57 305.344 1428.41 304.637 1428.08 306.548C1428.06 306.677 1426.73 306.672 1428.15 307.394C1424.8 307.03 1427.23 308.44 1426.27 308.686C1424.42 309.157 1425.99 309.97 1426.97 310.027C1427.56 311.444 1428.73 310.216 1429.35 310.635C1430.72 311.577 1432.05 310.628 1431.73 310.463C1431.83 311.018 1432.57 311.43 1434.21 311.044C1436.82 310.884 1436.72 310.425 1436.21 309.777C1438.62 309.505 1439.44 309.143 1438.44 308.339C1439.19 307.533 1437.73 307.685 1437.4 307.484Z" fill="url(#paint21_linear_87_85)" fill-opacity="0.17"/>
<path d="M1437.4 307.484C1439.17 306.368 1438.47 305.325 1433.54 305.339C1431.57 305.344 1428.41 304.637 1428.08 306.548C1428.06 306.677 1426.73 306.672 1428.15 307.394C1424.8 307.03 1427.23 308.44 1426.27 308.686C1424.42 309.157 1425.99 309.97 1426.97 310.027C1427.56 311.444 1428.73 310.216 1429.35 310.635C1430.72 311.577 1432.05 310.628 1431.73 310.463C1431.83 311.018 1432.57 311.43 1434.21 311.044C1436.82 310.884 1436.72 310.425 1436.21 309.777C1438.62 309.505 1439.44 309.143 1438.44 308.339C1439.19 307.533 1437.73 307.685 1437.4 307.484Z" fill="url(#paint22_linear_87_85)" fill-opacity="0.17"/>
<path d="M1437.4 307.484C1439.17 306.368 1438.47 305.325 1433.54 305.339C1431.57 305.344 1428.41 304.637 1428.08 306.548C1428.06 306.677 1426.73 306.672 1428.15 307.394C1424.8 307.03 1427.23 308.44 1426.27 308.686C1424.42 309.157 1425.99 309.97 1426.97 310.027C1427.56 311.444 1428.73 310.216 1429.35 310.635C1430.72 311.577 1432.05 310.628 1431.73 310.463C1431.83 311.018 1432.57 311.43 1434.21 311.044C1436.82 310.884 1436.72 310.425 1436.21 309.777C1438.62 309.505 1439.44 309.143 1438.44 308.339C1439.19 307.533 1437.73 307.685 1437.4 307.484Z" fill="url(#paint23_linear_87_85)" fill-opacity="0.17"/>
</g>
<g id="Ellipse 42">
<path d="M1295.78 276.46C1298 274.56 1297.07 272.756 1290.75 272.717C1288.22 272.701 1284.15 271.443 1283.8 274.729C1283.77 274.951 1282.07 274.925 1283.92 276.186C1279.6 275.517 1282.78 277.975 1281.55 278.387C1279.2 279.174 1281.24 280.593 1282.49 280.704C1283.31 283.15 1284.76 281.052 1285.56 281.781C1287.36 283.419 1289.03 281.803 1288.62 281.514C1288.76 282.471 1289.72 283.19 1291.82 282.547C1295.16 282.304 1295.01 281.513 1294.34 280.39C1297.41 279.954 1298.45 279.34 1297.14 277.945C1298.07 276.566 1296.21 276.809 1295.78 276.46Z" fill="url(#paint24_linear_87_85)" fill-opacity="0.17"/>
<path d="M1295.78 276.46C1298 274.56 1297.07 272.756 1290.75 272.717C1288.22 272.701 1284.15 271.443 1283.8 274.729C1283.77 274.951 1282.07 274.925 1283.92 276.186C1279.6 275.517 1282.78 277.975 1281.55 278.387C1279.2 279.174 1281.24 280.593 1282.49 280.704C1283.31 283.15 1284.76 281.052 1285.56 281.781C1287.36 283.419 1289.03 281.803 1288.62 281.514C1288.76 282.471 1289.72 283.19 1291.82 282.547C1295.16 282.304 1295.01 281.513 1294.34 280.39C1297.41 279.954 1298.45 279.34 1297.14 277.945C1298.07 276.566 1296.21 276.809 1295.78 276.46Z" fill="url(#paint25_linear_87_85)" fill-opacity="0.17"/>
<path d="M1295.78 276.46C1298 274.56 1297.07 272.756 1290.75 272.717C1288.22 272.701 1284.15 271.443 1283.8 274.729C1283.77 274.951 1282.07 274.925 1283.92 276.186C1279.6 275.517 1282.78 277.975 1281.55 278.387C1279.2 279.174 1281.24 280.593 1282.49 280.704C1283.31 283.15 1284.76 281.052 1285.56 281.781C1287.36 283.419 1289.03 281.803 1288.62 281.514C1288.76 282.471 1289.72 283.19 1291.82 282.547C1295.16 282.304 1295.01 281.513 1294.34 280.39C1297.41 279.954 1298.45 279.34 1297.14 277.945C1298.07 276.566 1296.21 276.809 1295.78 276.46Z" fill="url(#paint26_linear_87_85)" fill-opacity="0.17"/>
<path d="M1295.78 276.46C1298 274.56 1297.07 272.756 1290.75 272.717C1288.22 272.701 1284.15 271.443 1283.8 274.729C1283.77 274.951 1282.07 274.925 1283.92 276.186C1279.6 275.517 1282.78 277.975 1281.55 278.387C1279.2 279.174 1281.24 280.593 1282.49 280.704C1283.31 283.15 1284.76 281.052 1285.56 281.781C1287.36 283.419 1289.03 281.803 1288.62 281.514C1288.76 282.471 1289.72 283.19 1291.82 282.547C1295.16 282.304 1295.01 281.513 1294.34 280.39C1297.41 279.954 1298.45 279.34 1297.14 277.945C1298.07 276.566 1296.21 276.809 1295.78 276.46Z" fill="url(#paint27_linear_87_85)" fill-opacity="0.17"/>
</g>
<g id="Ellipse 34">
<path d="M1458.85 292.665C1463.37 289.793 1451.52 286.54 1447.18 288.674C1449.35 287.092 1427.13 287.51 1432.36 292.53C1423.71 293.478 1430.72 296.944 1428.11 297.7C1423.79 298.647 1427.82 300.634 1430.59 300.555C1433.19 303.325 1435.12 300.997 1437.5 301.416C1444.13 302.583 1442.11 300.725 1444.12 300.527C1444.61 301.75 1450.07 302.411 1451.31 301.307C1458.56 300.398 1458.09 299.393 1456.42 298.047C1463.07 296.932 1468.93 294.653 1462.11 294.36C1463.89 292.397 1459.86 293.044 1458.85 292.665Z" fill="url(#paint28_linear_87_85)" fill-opacity="0.17"/>
<path d="M1458.85 292.665C1463.37 289.793 1451.52 286.54 1447.18 288.674C1449.35 287.092 1427.13 287.51 1432.36 292.53C1423.71 293.478 1430.72 296.944 1428.11 297.7C1423.79 298.647 1427.82 300.634 1430.59 300.555C1433.19 303.325 1435.12 300.997 1437.5 301.416C1444.13 302.583 1442.11 300.725 1444.12 300.527C1444.61 301.75 1450.07 302.411 1451.31 301.307C1458.56 300.398 1458.09 299.393 1456.42 298.047C1463.07 296.932 1468.93 294.653 1462.11 294.36C1463.89 292.397 1459.86 293.044 1458.85 292.665Z" fill="url(#paint29_linear_87_85)" fill-opacity="0.17"/>
</g>
<g id="Ellipse 39">
<path d="M1370.72 284.021C1371.58 282.709 1367.67 281.33 1366.75 282.312C1367.13 281.591 1357.73 283.066 1363.06 284.129C1363.25 284.167 1362.06 284.404 1363.5 284.965C1360.73 284.977 1363.26 286.112 1362.62 286.466C1358.67 287.01 1362.98 287.779 1363.77 287.726C1363.81 289.361 1365.69 287.527 1365.89 288.067C1366.38 289.414 1367.11 287.729 1367.66 287.628C1367.99 288.172 1370.4 288.554 1369.85 287.931C1371.81 287.479 1371.52 287.033 1370.83 286.442C1372.58 285.902 1373.21 284.415 1371.91 284.758C1372.13 283.87 1371.06 284.184 1370.72 284.021Z" fill="url(#paint30_linear_87_85)" fill-opacity="0.17"/>
<path d="M1370.72 284.021C1371.58 282.709 1367.67 281.33 1366.75 282.312C1367.13 281.591 1357.73 283.066 1363.06 284.129C1363.25 284.167 1362.06 284.404 1363.5 284.965C1360.73 284.977 1363.26 286.112 1362.62 286.466C1358.67 287.01 1362.98 287.779 1363.77 287.726C1363.81 289.361 1365.69 287.527 1365.89 288.067C1366.38 289.414 1367.11 287.729 1367.66 287.628C1367.99 288.172 1370.4 288.554 1369.85 287.931C1371.81 287.479 1371.52 287.033 1370.83 286.442C1372.58 285.902 1373.21 284.415 1371.91 284.758C1372.13 283.87 1371.06 284.184 1370.72 284.021Z" fill="url(#paint31_linear_87_85)" fill-opacity="0.17"/>
</g>
<g id="Ellipse 43">
<path d="M1361.34 282.2C1365.86 279.329 1354.01 276.075 1349.67 278.209C1351.84 276.627 1329.61 277.045 1334.85 282.066C1326.2 283.014 1333.21 286.48 1330.6 287.235C1326.28 288.183 1330.31 290.169 1333.08 290.091C1335.67 292.861 1337.61 290.533 1339.99 290.952C1346.62 292.119 1344.6 290.261 1346.61 290.062C1347.09 291.286 1352.56 291.947 1353.8 290.843C1361.05 289.934 1360.58 288.928 1358.91 287.583C1365.56 286.468 1371.42 284.189 1364.59 283.896C1366.38 281.933 1362.35 282.579 1361.34 282.2Z" fill="url(#paint32_linear_87_85)" fill-opacity="0.17"/>
<path d="M1361.34 282.2C1365.86 279.329 1354.01 276.075 1349.67 278.209C1351.84 276.627 1329.61 277.045 1334.85 282.066C1326.2 283.014 1333.21 286.48 1330.6 287.235C1326.28 288.183 1330.31 290.169 1333.08 290.091C1335.67 292.861 1337.61 290.533 1339.99 290.952C1346.62 292.119 1344.6 290.261 1346.61 290.062C1347.09 291.286 1352.56 291.947 1353.8 290.843C1361.05 289.934 1360.58 288.928 1358.91 287.583C1365.56 286.468 1371.42 284.189 1364.59 283.896C1366.38 281.933 1362.35 282.579 1361.34 282.2Z" fill="url(#paint33_linear_87_85)" fill-opacity="0.17"/>
</g>
<g id="Ellipse 41">
<path d="M1427.14 306.572C1428.28 305.814 1427.82 305.104 1424.65 305.108C1423.39 305.109 1421.36 304.625 1421.15 305.925C1421.14 306.013 1420.28 306.008 1421.2 306.5C1419.04 306.249 1420.61 307.211 1419.99 307.378C1418.81 307.696 1419.82 308.251 1420.45 308.291C1420.83 309.256 1421.58 308.422 1421.98 308.708C1422.86 309.35 1423.71 308.705 1423.51 308.593C1423.57 308.971 1424.05 309.252 1425.11 308.991C1426.78 308.885 1426.71 308.572 1426.39 308.131C1427.94 307.949 1428.46 307.703 1427.82 307.155C1428.29 306.607 1427.36 306.709 1427.14 306.572Z" fill="url(#paint34_linear_87_85)" fill-opacity="0.17"/>
<path d="M1427.14 306.572C1428.28 305.814 1427.82 305.104 1424.65 305.108C1423.39 305.109 1421.36 304.625 1421.15 305.925C1421.14 306.013 1420.28 306.008 1421.2 306.5C1419.04 306.249 1420.61 307.211 1419.99 307.378C1418.81 307.696 1419.82 308.251 1420.45 308.291C1420.83 309.256 1421.58 308.422 1421.98 308.708C1422.86 309.35 1423.71 308.705 1423.51 308.593C1423.57 308.971 1424.05 309.252 1425.11 308.991C1426.78 308.885 1426.71 308.572 1426.39 308.131C1427.94 307.949 1428.46 307.703 1427.82 307.155C1428.29 306.607 1427.36 306.709 1427.14 306.572Z" fill="url(#paint35_linear_87_85)" fill-opacity="0.17"/>
<path d="M1427.14 306.572C1428.28 305.814 1427.82 305.104 1424.65 305.108C1423.39 305.109 1421.36 304.625 1421.15 305.925C1421.14 306.013 1420.28 306.008 1421.2 306.5C1419.04 306.249 1420.61 307.211 1419.99 307.378C1418.81 307.696 1419.82 308.251 1420.45 308.291C1420.83 309.256 1421.58 308.422 1421.98 308.708C1422.86 309.35 1423.71 308.705 1423.51 308.593C1423.57 308.971 1424.05 309.252 1425.11 308.991C1426.78 308.885 1426.71 308.572 1426.39 308.131C1427.94 307.949 1428.46 307.703 1427.82 307.155C1428.29 306.607 1427.36 306.709 1427.14 306.572Z" fill="url(#paint36_linear_87_85)" fill-opacity="0.17"/>
<path d="M1427.14 306.572C1428.28 305.814 1427.82 305.104 1424.65 305.108C1423.39 305.109 1421.36 304.625 1421.15 305.925C1421.14 306.013 1420.28 306.008 1421.2 306.5C1419.04 306.249 1420.61 307.211 1419.99 307.378C1418.81 307.696 1419.82 308.251 1420.45 308.291C1420.83 309.256 1421.58 308.422 1421.98 308.708C1422.86 309.35 1423.71 308.705 1423.51 308.593C1423.57 308.971 1424.05 309.252 1425.11 308.991C1426.78 308.885 1426.71 308.572 1426.39 308.131C1427.94 307.949 1428.46 307.703 1427.82 307.155C1428.29 306.607 1427.36 306.709 1427.14 306.572Z" fill="url(#paint37_linear_87_85)" fill-opacity="0.17"/>
</g>
<g id="Ellipse 38">
<path d="M1339.08 283.864C1340.83 282.654 1336.86 280.655 1335.22 281.518C1336.07 280.839 1323.94 280.929 1329.79 282.82C1330 282.888 1328.44 282.951 1329.87 283.741C1326.53 283.336 1328.96 284.877 1328 285.143C1322.95 285.103 1327.73 286.54 1328.71 286.604C1327.88 288.282 1331.14 286.69 1331.08 287.273C1330.95 288.723 1332.74 287.112 1333.46 287.091C1333.56 287.696 1336.25 288.45 1335.94 287.731C1338.53 287.564 1338.42 287.063 1337.92 286.356C1340.31 286.067 1341.88 284.643 1340.12 284.798C1340.86 283.922 1339.41 284.083 1339.08 283.864Z" fill="url(#paint38_linear_87_85)" fill-opacity="0.17"/>
<path d="M1339.08 283.864C1340.83 282.654 1336.86 280.655 1335.22 281.518C1336.07 280.839 1323.94 280.929 1329.79 282.82C1330 282.888 1328.44 282.951 1329.87 283.741C1326.53 283.336 1328.96 284.877 1328 285.143C1322.95 285.103 1327.73 286.54 1328.71 286.604C1327.88 288.282 1331.14 286.69 1331.08 287.273C1330.95 288.723 1332.74 287.112 1333.46 287.091C1333.56 287.696 1336.25 288.45 1335.94 287.731C1338.53 287.564 1338.42 287.063 1337.92 286.356C1340.31 286.067 1341.88 284.643 1340.12 284.798C1340.86 283.922 1339.41 284.083 1339.08 283.864Z" fill="url(#paint39_linear_87_85)" fill-opacity="0.17"/>
</g>
<g id="Ellipse 37">
<path d="M1367.14 280.727C1367.54 280.019 1365.36 278.078 1364.05 278.789C1364.73 278.229 1358.28 278.275 1359.71 279.859C1359.8 279.96 1358.63 279.966 1359.77 280.618C1358.28 281.109 1359.05 281.555 1358.28 281.774C1356.91 282.417 1358.07 282.926 1358.85 282.98C1359.71 284.379 1360.21 283.176 1360.75 283.533C1362.04 284.379 1362.08 283.401 1362.65 283.385C1362.73 283.884 1364.89 284.508 1364.63 283.915C1366.71 283.778 1366.62 283.365 1366.22 282.782C1368.13 282.545 1368.27 282.635 1367.98 281.498C1368.57 280.776 1367.41 280.908 1367.14 280.727Z" fill="url(#paint40_linear_87_85)" fill-opacity="0.17"/>
<path d="M1367.14 280.727C1367.54 280.019 1365.36 278.078 1364.05 278.789C1364.73 278.229 1358.28 278.275 1359.71 279.859C1359.8 279.96 1358.63 279.966 1359.77 280.618C1358.28 281.109 1359.05 281.555 1358.28 281.774C1356.91 282.417 1358.07 282.926 1358.85 282.98C1359.71 284.379 1360.21 283.176 1360.75 283.533C1362.04 284.379 1362.08 283.401 1362.65 283.385C1362.73 283.884 1364.89 284.508 1364.63 283.915C1366.71 283.778 1366.62 283.365 1366.22 282.782C1368.13 282.545 1368.27 282.635 1367.98 281.498C1368.57 280.776 1367.41 280.908 1367.14 280.727Z" fill="url(#paint41_linear_87_85)" fill-opacity="0.17"/>
</g>
</g>
</g>
<defs>
<linearGradient id="paint0_linear_87_85" x1="720" y1="2" x2="720" y2="232" gradientUnits="userSpaceOnUse">
<stop offset="0.0001" stop-color="#47459F"/>
<stop offset="0.0002" stop-color="#5C5AD2"/>
<stop offset="0.795833" stop-color="#0A085F"/>
</linearGradient>
<linearGradient id="paint1_linear_87_85" x1="1304.78" y1="239.565" x2="1304.78" y2="187.623" gradientUnits="userSpaceOnUse">
<stop stop-color="#402790"/>
<stop offset="0.748958" stop-color="#1C0E76"/>
</linearGradient>
<linearGradient id="paint2_linear_87_85" x1="814.907" y1="257.839" x2="808.109" y2="141.682" gradientUnits="userSpaceOnUse">
<stop stop-color="#A7A7C5"/>
<stop offset="1" stop-color="#272592"/>
</linearGradient>
<linearGradient id="paint3_linear_87_85" x1="955.69" y1="233" x2="952.5" y2="8.76538e-06" gradientUnits="userSpaceOnUse">
<stop offset="0.196875" stop-color="#49398E"/>
<stop offset="0.93125" stop-color="#2F2DA4"/>
</linearGradient>
<linearGradient id="paint4_linear_87_85" x1="1022.29" y1="233" x2="1022.29" y2="190.904" gradientUnits="userSpaceOnUse">
<stop stop-color="#7D6CB3"/>
<stop offset="1" stop-color="#B6B0CE"/>
</linearGradient>
<linearGradient id="paint5_linear_87_85" x1="88" y1="225" x2="89" y2="55" gradientUnits="userSpaceOnUse">
<stop offset="0.155625" stop-color="#4E3A8E"/>
<stop offset="0.722658" stop-color="#2D2688"/>
</linearGradient>
<linearGradient id="paint6_linear_87_85" x1="1384.77" y1="338.446" x2="1384.77" y2="281.763" gradientUnits="userSpaceOnUse">
<stop stop-color="#E79DDF"/>
<stop offset="1" stop-color="#99358F"/>
</linearGradient>
<linearGradient id="paint7_linear_87_85" x1="1384.77" y1="338.446" x2="1384.77" y2="281.763" gradientUnits="userSpaceOnUse">
<stop stop-color="#E79DDF"/>
<stop offset="1" stop-color="#99358F"/>
</linearGradient>
<linearGradient id="paint8_linear_87_85" x1="1434.93" y1="302.802" x2="1434.93" y2="212.436" gradientUnits="userSpaceOnUse">
<stop stop-color="#510808" stop-opacity="0.45"/>
<stop offset="1" stop-color="#2E1C1C" stop-opacity="0.52"/>
</linearGradient>
<linearGradient id="paint9_linear_87_85" x1="1341.29" y1="325.436" x2="1329.94" y2="270.641" gradientUnits="userSpaceOnUse">
<stop stop-color="#E79DDF" stop-opacity="0.17"/>
<stop offset="1" stop-color="#99358F" stop-opacity="0.27"/>
</linearGradient>
<linearGradient id="paint10_linear_87_85" x1="1341.29" y1="325.436" x2="1329.94" y2="270.641" gradientUnits="userSpaceOnUse">
<stop stop-color="#E79DDF" stop-opacity="0.17"/>
<stop offset="1" stop-color="#99358F" stop-opacity="0.27"/>
</linearGradient>
<linearGradient id="paint11_linear_87_85" x1="1394.27" y1="299.12" x2="1394.27" y2="212" gradientUnits="userSpaceOnUse">
<stop stop-color="#540808" stop-opacity="0.33"/>
<stop offset="1" stop-color="#2D134F"/>
</linearGradient>
<linearGradient id="paint12_linear_87_85" x1="1335.69" y1="282.202" x2="1334.66" y2="257.836" gradientUnits="userSpaceOnUse">
<stop stop-color="#E79DDF"/>
<stop offset="1" stop-color="#99358F"/>
</linearGradient>
<linearGradient id="paint13_linear_87_85" x1="1335.69" y1="282.202" x2="1334.66" y2="257.836" gradientUnits="userSpaceOnUse">
<stop stop-color="#E79DDF"/>
<stop offset="1" stop-color="#99358F"/>
</linearGradient>
<linearGradient id="paint14_linear_87_85" x1="1410" y1="329.721" x2="1409.68" y2="318.803" gradientUnits="userSpaceOnUse">
<stop stop-color="#E79DDF" stop-opacity="0.43"/>
<stop offset="1" stop-color="#99358F" stop-opacity="0.42"/>
</linearGradient>
<linearGradient id="paint15_linear_87_85" x1="1410" y1="329.721" x2="1409.68" y2="318.803" gradientUnits="userSpaceOnUse">
<stop stop-color="#E79DDF" stop-opacity="0.43"/>
<stop offset="1" stop-color="#99358F" stop-opacity="0.42"/>
</linearGradient>
<linearGradient id="paint16_linear_87_85" x1="1410" y1="329.721" x2="1409.68" y2="318.803" gradientUnits="userSpaceOnUse">
<stop stop-color="#E79DDF" stop-opacity="0.43"/>
<stop offset="1" stop-color="#99358F" stop-opacity="0.42"/>
</linearGradient>
<linearGradient id="paint17_linear_87_85" x1="1410" y1="329.721" x2="1409.68" y2="318.803" gradientUnits="userSpaceOnUse">
<stop stop-color="#E79DDF" stop-opacity="0.43"/>
<stop offset="1" stop-color="#99358F" stop-opacity="0.42"/>
</linearGradient>
<linearGradient id="paint18_linear_87_85" x1="1417.4" y1="328.461" x2="1418.53" y2="306.341" gradientUnits="userSpaceOnUse">
<stop stop-color="#E79DDF"/>
<stop offset="1" stop-color="#99358F"/>
</linearGradient>
<linearGradient id="paint19_linear_87_85" x1="1417.4" y1="328.461" x2="1418.53" y2="306.341" gradientUnits="userSpaceOnUse">
<stop stop-color="#E79DDF"/>
<stop offset="1" stop-color="#99358F"/>
</linearGradient>
<linearGradient id="paint20_linear_87_85" x1="1435.61" y1="311.426" x2="1435.4" y2="304.328" gradientUnits="userSpaceOnUse">
<stop stop-color="#E79DDF" stop-opacity="0.43"/>
<stop offset="1" stop-color="#99358F" stop-opacity="0.42"/>
</linearGradient>
<linearGradient id="paint21_linear_87_85" x1="1435.61" y1="311.426" x2="1435.4" y2="304.328" gradientUnits="userSpaceOnUse">
<stop stop-color="#E79DDF" stop-opacity="0.43"/>
<stop offset="1" stop-color="#99358F" stop-opacity="0.42"/>
</linearGradient>
<linearGradient id="paint22_linear_87_85" x1="1435.61" y1="311.426" x2="1435.4" y2="304.328" gradientUnits="userSpaceOnUse">
<stop stop-color="#E79DDF" stop-opacity="0.43"/>
<stop offset="1" stop-color="#99358F" stop-opacity="0.42"/>
</linearGradient>
<linearGradient id="paint23_linear_87_85" x1="1435.61" y1="311.426" x2="1435.4" y2="304.328" gradientUnits="userSpaceOnUse">
<stop stop-color="#E79DDF" stop-opacity="0.43"/>
<stop offset="1" stop-color="#99358F" stop-opacity="0.42"/>
</linearGradient>
<linearGradient id="paint24_linear_87_85" x1="1293.62" y1="283.222" x2="1293.27" y2="270.995" gradientUnits="userSpaceOnUse">
<stop stop-color="#E79DDF" stop-opacity="0.43"/>
<stop offset="1" stop-color="#99358F" stop-opacity="0.42"/>
</linearGradient>
<linearGradient id="paint25_linear_87_85" x1="1293.62" y1="283.222" x2="1293.27" y2="270.995" gradientUnits="userSpaceOnUse">
<stop stop-color="#E79DDF" stop-opacity="0.43"/>
<stop offset="1" stop-color="#99358F" stop-opacity="0.42"/>
</linearGradient>
<linearGradient id="paint26_linear_87_85" x1="1293.62" y1="283.222" x2="1293.27" y2="270.995" gradientUnits="userSpaceOnUse">
<stop stop-color="#E79DDF" stop-opacity="0.43"/>
<stop offset="1" stop-color="#99358F" stop-opacity="0.42"/>
</linearGradient>
<linearGradient id="paint27_linear_87_85" x1="1293.62" y1="283.222" x2="1293.27" y2="270.995" gradientUnits="userSpaceOnUse">
<stop stop-color="#E79DDF" stop-opacity="0.43"/>
<stop offset="1" stop-color="#99358F" stop-opacity="0.42"/>
</linearGradient>
<linearGradient id="paint28_linear_87_85" x1="1442.46" y1="303.288" x2="1440.88" y2="287.263" gradientUnits="userSpaceOnUse">
<stop stop-color="#E79DDF" stop-opacity="0.33"/>
<stop offset="1" stop-color="#99358F" stop-opacity="0.36"/>
</linearGradient>
<linearGradient id="paint29_linear_87_85" x1="1442.46" y1="303.288" x2="1440.88" y2="287.263" gradientUnits="userSpaceOnUse">
<stop stop-color="#E79DDF" stop-opacity="0.33"/>
<stop offset="1" stop-color="#99358F" stop-opacity="0.36"/>
</linearGradient>
<linearGradient id="paint30_linear_87_85" x1="1362.68" y1="281.201" x2="1361.31" y2="273.77" gradientUnits="userSpaceOnUse">
<stop stop-color="#E79DDF"/>
<stop offset="1" stop-color="#99358F"/>
</linearGradient>
<linearGradient id="paint31_linear_87_85" x1="1362.68" y1="281.201" x2="1361.31" y2="273.77" gradientUnits="userSpaceOnUse">
<stop stop-color="#E79DDF"/>
<stop offset="1" stop-color="#99358F"/>
</linearGradient>
<linearGradient id="paint32_linear_87_85" x1="1344.95" y1="292.824" x2="1343.37" y2="276.799" gradientUnits="userSpaceOnUse">
<stop stop-color="#E79DDF"/>
<stop offset="1" stop-color="#99358F"/>
</linearGradient>
<linearGradient id="paint33_linear_87_85" x1="1344.95" y1="292.824" x2="1343.37" y2="276.799" gradientUnits="userSpaceOnUse">
<stop stop-color="#E79DDF"/>
<stop offset="1" stop-color="#99358F"/>
</linearGradient>
<linearGradient id="paint34_linear_87_85" x1="1426" y1="309.252" x2="1425.86" y2="304.421" gradientUnits="userSpaceOnUse">
<stop stop-color="#E79DDF" stop-opacity="0.43"/>
<stop offset="1" stop-color="#99358F" stop-opacity="0.42"/>
</linearGradient>
<linearGradient id="paint35_linear_87_85" x1="1426" y1="309.252" x2="1425.86" y2="304.421" gradientUnits="userSpaceOnUse">
<stop stop-color="#E79DDF" stop-opacity="0.43"/>
<stop offset="1" stop-color="#99358F" stop-opacity="0.42"/>
</linearGradient>
<linearGradient id="paint36_linear_87_85" x1="1426" y1="309.252" x2="1425.86" y2="304.421" gradientUnits="userSpaceOnUse">
<stop stop-color="#E79DDF" stop-opacity="0.43"/>
<stop offset="1" stop-color="#99358F" stop-opacity="0.42"/>
</linearGradient>
<linearGradient id="paint37_linear_87_85" x1="1426" y1="309.252" x2="1425.86" y2="304.421" gradientUnits="userSpaceOnUse">
<stop stop-color="#E79DDF" stop-opacity="0.43"/>
<stop offset="1" stop-color="#99358F" stop-opacity="0.42"/>
</linearGradient>
<linearGradient id="paint38_linear_87_85" x1="1332.41" y1="288.298" x2="1332.19" y2="280.569" gradientUnits="userSpaceOnUse">
<stop stop-color="#E79DDF"/>
<stop offset="1" stop-color="#99358F"/>
</linearGradient>
<linearGradient id="paint39_linear_87_85" x1="1332.41" y1="288.298" x2="1332.19" y2="280.569" gradientUnits="userSpaceOnUse">
<stop stop-color="#E79DDF"/>
<stop offset="1" stop-color="#99358F"/>
</linearGradient>
<linearGradient id="paint40_linear_87_85" x1="1361.82" y1="284.38" x2="1361.63" y2="278.004" gradientUnits="userSpaceOnUse">
<stop stop-color="#E79DDF"/>
<stop offset="1" stop-color="#99358F"/>
</linearGradient>
<linearGradient id="paint41_linear_87_85" x1="1361.82" y1="284.38" x2="1361.63" y2="278.004" gradientUnits="userSpaceOnUse">
<stop stop-color="#E79DDF"/>
<stop offset="1" stop-color="#99358F"/>
</linearGradient>
</defs>
</svg>
