<svg width="984" height="379" viewBox="0 0 984 379" fill="none" xmlns="http://www.w3.org/2000/svg">
<path id="small-mountain" d="M534.747 110.168L445.726 77.5664C444.271 77.0335 442.959 76.1699 441.895 75.0436L372.63 1.72578C371.59 0.62423 370.141 0 368.626 0C366.917 0 365.251 0.529567 363.856 1.5158L282 59.3819L179 123L110 184.5L0.5 378.5H282L523 368H746.5L896.5 373L983.5 368L943 243L904.763 184.5L886.047 162.935C884.759 161.451 882.415 161.585 881.306 163.207L867.757 183.009C866.054 185.498 862.312 185.278 860.913 182.606L846.031 154.193L817.85 123.383C817.617 123.128 817.359 122.898 817.078 122.697L790.94 103.915C788.781 102.364 785.858 102.418 783.758 104.05L746.5 133L685 141L624.801 154.02C624.273 154.135 623.726 154.14 623.195 154.038L582.749 146.209L537.372 111.607C536.574 110.998 535.689 110.513 534.747 110.168Z" fill="url(#paint0_linear_87_84)"/>
<defs>
<linearGradient id="paint0_linear_87_84" x1="646.291" y1="59.3819" x2="646.291" y2="503" gradientUnits="userSpaceOnUse">
<stop stop-color="#AA7CCE"/>
<stop offset="0.563112" stop-color="#380E6F"/>
<stop offset="1" stop-color="#200055"/>
</linearGradient>
</defs>
</svg>
