<svg width="1445" height="215" viewBox="0 0 1445 215" fill="none" xmlns="http://www.w3.org/2000/svg">
<g id="top-stars">
<g id="big-stars2">
<ellipse id="Ellipse 1" cx="345.047" cy="117.625" rx="1.80851" ry="1.67933" transform="rotate(4.79062 345.047 117.625)" fill="#FFFDFD" fill-opacity="0.38"/>
<ellipse id="Ellipse 8" cx="132.149" cy="152.154" rx="1.80851" ry="1.67933" transform="rotate(4.79062 132.149 152.154)" fill="#FFFDFD" fill-opacity="0.38"/>
<ellipse id="Ellipse 9" cx="3.06441" cy="170.373" rx="1.80851" ry="1.67933" transform="rotate(4.79062 3.06441 170.373)" fill="#FFFDFD" fill-opacity="0.38"/>
<ellipse id="Ellipse 10" cx="49.8292" cy="187.774" rx="1.80851" ry="1.67933" transform="rotate(4.79062 49.8292 187.774)" fill="#FFFDFD" fill-opacity="0.38"/>
<ellipse id="Ellipse 11" cx="31.7327" cy="162.405" rx="1.80851" ry="1.67933" transform="rotate(4.79062 31.7327 162.405)" fill="#FFFDFD" fill-opacity="0.38"/>
<ellipse id="Ellipse 12" cx="22.4219" cy="69.3269" rx="1.80851" ry="1.67933" transform="rotate(4.79062 22.4219 69.3269)" fill="#FFFDFD" fill-opacity="0.38"/>
<ellipse id="Ellipse 2" cx="308.225" cy="126.984" rx="1.80851" ry="1.67933" transform="rotate(4.79062 308.225 126.984)" fill="#FFFDFD" fill-opacity="0.38"/>
<ellipse id="Ellipse 3" cx="299.449" cy="129.619" rx="1.80851" ry="1.67933" transform="rotate(4.79062 299.449 129.619)" fill="#FFFDFD" fill-opacity="0.38"/>
<ellipse id="Ellipse 4" cx="269.473" cy="88.2168" rx="1.80851" ry="1.67933" transform="rotate(4.79062 269.473 88.2168)" fill="#FFFDFD" fill-opacity="0.38"/>
<ellipse id="Ellipse 5" cx="339.534" cy="161.756" rx="1.80851" ry="1.67933" transform="rotate(4.79062 339.534 161.756)" fill="#FFFDFD" fill-opacity="0.38"/>
<ellipse id="Ellipse 6" cx="99.1757" cy="53.722" rx="1.80851" ry="1.67933" transform="rotate(4.79062 99.1757 53.722)" fill="#FFFDFD" fill-opacity="0.38"/>
<ellipse id="Ellipse 7" cx="18.386" cy="74.1739" rx="1.80851" ry="1.67933" transform="rotate(4.79062 18.386 74.1739)" fill="#FFFDFD" fill-opacity="0.38"/>
</g>
<g id="big-stars2_2">
<ellipse id="Ellipse 1_2" cx="475.13" cy="137.324" rx="1.80851" ry="1.67933" transform="rotate(176.602 475.13 137.324)" fill="#FFFDFD" fill-opacity="0.38"/>
<ellipse id="Ellipse 8_2" cx="680.94" cy="72.8246" rx="1.80851" ry="1.67933" transform="rotate(176.602 680.94 72.8246)" fill="#FFFDFD" fill-opacity="0.38"/>
<ellipse id="Ellipse 9_2" cx="806.114" cy="36.4061" rx="1.80851" ry="1.67933" transform="rotate(176.602 806.114 36.4061)" fill="#FFFDFD" fill-opacity="0.38"/>
<ellipse id="Ellipse 10_2" cx="757.348" cy="25.8429" rx="1.80851" ry="1.67933" transform="rotate(176.602 757.348 25.8429)" fill="#FFFDFD" fill-opacity="0.38"/>
<ellipse id="Ellipse 11_2" cx="778.873" cy="48.3759" rx="1.80851" ry="1.67933" transform="rotate(176.602 778.873 48.3759)" fill="#FFFDFD" fill-opacity="0.38"/>
<ellipse id="Ellipse 12_2" cx="801.346" cy="139.179" rx="1.80851" ry="1.67933" transform="rotate(176.602 801.346 139.179)" fill="#FFFDFD" fill-opacity="0.38"/>
<ellipse id="Ellipse 2_2" cx="510.244" cy="122.816" rx="1.80851" ry="1.67933" transform="rotate(176.602 510.244 122.816)" fill="#FFFDFD" fill-opacity="0.38"/>
<ellipse id="Ellipse 3_2" cx="518.556" cy="118.958" rx="1.80851" ry="1.67933" transform="rotate(176.602 518.556 118.958)" fill="#FFFDFD" fill-opacity="0.38"/>
<ellipse id="Ellipse 4_2" cx="554.122" cy="155.668" rx="1.80851" ry="1.67933" transform="rotate(176.602 554.122 155.668)" fill="#FFFDFD" fill-opacity="0.38"/>
<ellipse id="Ellipse 5_2" cx="474.302" cy="92.8571" rx="1.80851" ry="1.67933" transform="rotate(176.602 474.302 92.8571)" fill="#FFFDFD" fill-opacity="0.38"/>
<ellipse id="Ellipse 6_2" cx="727.597" cy="165.557" rx="1.80851" ry="1.67933" transform="rotate(176.602 727.597 165.557)" fill="#FFFDFD" fill-opacity="0.38"/>
<ellipse id="Ellipse 7_2" cx="804.65" cy="133.807" rx="1.80851" ry="1.67933" transform="rotate(176.602 804.65 133.807)" fill="#FFFDFD" fill-opacity="0.38"/>
</g>
<g id="big-stars2_3">
<ellipse id="Ellipse 1_3" cx="986.53" cy="94.1549" rx="1.80851" ry="1.67933" transform="rotate(-166.931 986.53 94.1549)" fill="#FFFDFD" fill-opacity="0.38"/>
<ellipse id="Ellipse 8_3" cx="1202.18" cy="90.6395" rx="1.80851" ry="1.67933" transform="rotate(-166.931 1202.18 90.6395)" fill="#FFFDFD" fill-opacity="0.38"/>
<ellipse id="Ellipse 9_3" cx="1332.54" cy="91.1962" rx="1.80851" ry="1.67933" transform="rotate(-166.931 1332.54 91.1962)" fill="#FFFDFD" fill-opacity="0.38"/>
<ellipse id="Ellipse 10_3" cx="1288.77" cy="67.2431" rx="1.80851" ry="1.67933" transform="rotate(-166.931 1288.77 67.2431)" fill="#FFFDFD" fill-opacity="0.38"/>
<ellipse id="Ellipse 11_3" cx="1303.03" cy="94.9535" rx="1.80851" ry="1.67933" transform="rotate(-166.931 1303.03 94.9535)" fill="#FFFDFD" fill-opacity="0.38"/>
<ellipse id="Ellipse 12_3" cx="1298.84" cy="188.403" rx="1.80851" ry="1.67933" transform="rotate(-166.931 1298.84 188.403)" fill="#FFFDFD" fill-opacity="0.38"/>
<ellipse id="Ellipse 2_3" cx="1024.32" cy="90.1954" rx="1.80851" ry="1.67933" transform="rotate(-166.931 1024.32 90.1954)" fill="#FFFDFD" fill-opacity="0.38"/>
<ellipse id="Ellipse 3_3" cx="1033.38" cy="88.8517" rx="1.80851" ry="1.67933" transform="rotate(-166.931 1033.38 88.8517)" fill="#FFFDFD" fill-opacity="0.38"/>
<ellipse id="Ellipse 4_3" cx="1057.08" cy="134.138" rx="1.80851" ry="1.67933" transform="rotate(-166.931 1057.08 134.138)" fill="#FFFDFD" fill-opacity="0.38"/>
<ellipse id="Ellipse 5_3" cx="998.34" cy="51.2772" rx="1.80851" ry="1.67933" transform="rotate(-166.931 998.34 51.2772)" fill="#FFFDFD" fill-opacity="0.38"/>
<ellipse id="Ellipse 6_3" cx="1220.64" cy="192.794" rx="1.80851" ry="1.67933" transform="rotate(-166.931 1220.64 192.794)" fill="#FFFDFD" fill-opacity="0.38"/>
<ellipse id="Ellipse 7_3" cx="1303.53" cy="184.187" rx="1.80851" ry="1.67933" transform="rotate(-166.931 1303.53 184.187)" fill="#FFFDFD" fill-opacity="0.38"/>
</g>
<g id="small-stars2">
<circle id="Ellipse 13" cx="368.095" cy="105.442" r="0.550335" fill="#D9D9D9"/>
<circle id="Ellipse 14" cx="426.706" cy="74.073" r="0.550335" fill="#D9D9D9"/>
<circle id="Ellipse 15" cx="397.538" cy="83.7037" r="0.550335" fill="#D9D9D9"/>
<circle id="Ellipse 28" cx="216.753" cy="66.0931" r="0.550335" fill="#D9D9D9"/>
<circle id="Ellipse 29" cx="224.457" cy="59.2139" r="0.550335" fill="#D9D9D9"/>
<circle id="Ellipse 30" cx="162.545" cy="66.6434" r="0.550335" fill="#D9D9D9"/>
<circle id="Ellipse 16" cx="381.303" cy="137.912" r="0.550335" fill="#D9D9D9"/>
<circle id="Ellipse 17" cx="400.565" cy="153.872" r="0.550335" fill="#D9D9D9"/>
<circle id="Ellipse 18" cx="184.558" cy="167.63" r="0.550335" fill="#D9D9D9"/>
<circle id="Ellipse 19" cx="169.974" cy="142.59" r="0.550335" fill="#D9D9D9"/>
<circle id="Ellipse 20" cx="138.881" cy="181.113" r="0.550335" fill="#D9D9D9"/>
<circle id="Ellipse 21" cx="152.363" cy="173.683" r="0.550335" fill="#D9D9D9"/>
<circle id="Ellipse 24" cx="57.9809" cy="67.469" r="0.550335" fill="#D9D9D9"/>
<circle id="Ellipse 25" cx="42.8468" cy="128.281" r="0.550335" fill="#D9D9D9"/>
<circle id="Ellipse 26" cx="53.0282" cy="116.724" r="0.550335" fill="#D9D9D9"/>
<circle id="Ellipse 27" cx="51.9275" cy="120.852" r="0.550335" fill="#D9D9D9"/>
<circle id="Ellipse 22" cx="147.135" cy="170.106" r="0.550335" fill="#D9D9D9"/>
<circle id="Ellipse 23" cx="147.135" cy="167.08" r="0.550335" fill="#D9D9D9"/>
</g>
<g id="small-stars2_2">
<circle id="Ellipse 13_2" cx="909.095" cy="85.4422" r="0.550335" fill="#D9D9D9"/>
<circle id="Ellipse 14_2" cx="967.706" cy="54.073" r="0.550335" fill="#D9D9D9"/>
<circle id="Ellipse 15_2" cx="938.538" cy="63.7037" r="0.550335" fill="#D9D9D9"/>
<circle id="Ellipse 28_2" cx="757.753" cy="46.0931" r="0.550335" fill="#D9D9D9"/>
<circle id="Ellipse 29_2" cx="765.457" cy="39.2139" r="0.550335" fill="#D9D9D9"/>
<circle id="Ellipse 30_2" cx="703.545" cy="46.6434" r="0.550335" fill="#D9D9D9"/>
<circle id="Ellipse 16_2" cx="922.303" cy="117.912" r="0.550335" fill="#D9D9D9"/>
<circle id="Ellipse 17_2" cx="941.565" cy="133.872" r="0.550335" fill="#D9D9D9"/>
<circle id="Ellipse 18_2" cx="725.558" cy="147.63" r="0.550335" fill="#D9D9D9"/>
<circle id="Ellipse 19_2" cx="710.974" cy="122.59" r="0.550335" fill="#D9D9D9"/>
<circle id="Ellipse 20_2" cx="679.881" cy="161.113" r="0.550335" fill="#D9D9D9"/>
<circle id="Ellipse 21_2" cx="693.363" cy="153.683" r="0.550335" fill="#D9D9D9"/>
<circle id="Ellipse 24_2" cx="598.981" cy="47.469" r="0.550335" fill="#D9D9D9"/>
<circle id="Ellipse 25_2" cx="583.847" cy="108.281" r="0.550335" fill="#D9D9D9"/>
<circle id="Ellipse 26_2" cx="594.028" cy="96.7239" r="0.550335" fill="#D9D9D9"/>
<circle id="Ellipse 27_2" cx="592.928" cy="100.852" r="0.550335" fill="#D9D9D9"/>
<circle id="Ellipse 22_2" cx="688.135" cy="150.106" r="0.550335" fill="#D9D9D9"/>
<circle id="Ellipse 23_2" cx="688.135" cy="147.08" r="0.550335" fill="#D9D9D9"/>
</g>
<g id="small-stars2_3">
<circle id="Ellipse 13_3" cx="1385.09" cy="75.4422" r="0.550335" fill="#D9D9D9"/>
<circle id="Ellipse 14_3" cx="1443.71" cy="44.073" r="0.550335" fill="#D9D9D9"/>
<circle id="Ellipse 15_3" cx="1414.54" cy="53.7037" r="0.550335" fill="#D9D9D9"/>
<circle id="Ellipse 28_3" cx="1233.75" cy="36.0931" r="0.550335" fill="#D9D9D9"/>
<circle id="Ellipse 29_3" cx="1241.46" cy="29.2139" r="0.550335" fill="#D9D9D9"/>
<circle id="Ellipse 30_3" cx="1179.54" cy="36.6434" r="0.550335" fill="#D9D9D9"/>
<circle id="Ellipse 16_3" cx="1398.3" cy="107.912" r="0.550335" fill="#D9D9D9"/>
<circle id="Ellipse 17_3" cx="1417.56" cy="123.872" r="0.550335" fill="#D9D9D9"/>
<circle id="Ellipse 18_3" cx="1201.56" cy="137.63" r="0.550335" fill="#D9D9D9"/>
<circle id="Ellipse 19_3" cx="1186.97" cy="112.59" r="0.550335" fill="#D9D9D9"/>
<circle id="Ellipse 20_3" cx="1155.88" cy="151.113" r="0.550335" fill="#D9D9D9"/>
<circle id="Ellipse 21_3" cx="1169.36" cy="143.683" r="0.550335" fill="#D9D9D9"/>
<circle id="Ellipse 24_3" cx="1074.98" cy="37.469" r="0.550335" fill="#D9D9D9"/>
<circle id="Ellipse 25_3" cx="1059.85" cy="98.2811" r="0.550335" fill="#D9D9D9"/>
<circle id="Ellipse 26_3" cx="1070.03" cy="86.7239" r="0.550335" fill="#D9D9D9"/>
<circle id="Ellipse 27_3" cx="1068.93" cy="90.8516" r="0.550335" fill="#D9D9D9"/>
<circle id="Ellipse 22_3" cx="1164.14" cy="140.106" r="0.550335" fill="#D9D9D9"/>
<circle id="Ellipse 23_3" cx="1164.14" cy="137.08" r="0.550335" fill="#D9D9D9"/>
</g>
</g>
</svg>
