<svg width="24" height="28" viewBox="0 0 24 28" fill="none" xmlns="http://www.w3.org/2000/svg">
<g id="css">
<path id="Vector" d="M2.53312 24.4525L0.42749 0.826599H23.5725L21.4641 24.4488L11.9859 27.0766L2.53312 24.4525Z" fill="#1572B6"/>
<path id="Vector_2" d="M12 25.0685L19.6594 22.945L21.4612 2.75879H12V25.0685Z" fill="#33A9DC"/>
<path id="Vector_3" d="M12 11.3182H15.8344L16.0987 8.35097H12V5.45316H12.0103H19.2656L19.1963 6.23034L18.4847 14.216H12V11.3182Z" fill="white"/>
<path id="Vector_4" d="M12.0178 18.8435L12.0047 18.8472L8.77779 17.9753L8.57154 15.6644H7.0031H5.66248L6.06841 20.2141L12.0037 21.8622L12.0178 21.8585V18.8435Z" fill="#EBEBEB"/>
<path id="Vector_5" d="M15.5878 14.0932L15.239 17.9735L12.0074 18.8454V21.8604L17.9474 20.2141L17.9915 19.7247L18.4949 14.0932H15.5878Z" fill="white"/>
<path id="Vector_6" d="M12.0103 5.45316V7.25316V8.34347V8.35097H5.02028H5.01091L4.95278 7.69941L4.8206 6.23034L4.75122 5.45316H12.0103Z" fill="#EBEBEB"/>
<path id="Vector_7" d="M12 11.3182V13.1182V14.2085V14.216H8.82281H8.81344L8.75531 13.5644L8.62406 12.0954L8.55469 11.3182H12Z" fill="#EBEBEB"/>
</g>
</svg>
