<svg width="28" height="17" viewBox="0 0 28 17" fill="none" xmlns="http://www.w3.org/2000/svg">
<path id="cv" opacity="0.8" d="M12.2956 12.6295C12.4286 12.6295 12.5441 12.682 12.6421 12.787L13.6186 13.8475C13.0026 14.5895 12.2466 15.1635 11.3506 15.5695C10.4546 15.9685 9.38358 16.168 8.13758 16.168C7.03158 16.168 6.03058 15.979 5.13458 15.601C4.24558 15.216 3.48608 14.684 2.85608 14.005C2.22608 13.319 1.73958 12.5035 1.39658 11.5585C1.06058 10.6135 0.892578 9.574 0.892578 8.44C0.892578 7.306 1.07108 6.2665 1.42808 5.3215C1.79208 4.3695 2.29958 3.554 2.95058 2.875C3.60858 2.189 4.39258 1.657 5.30258 1.279C6.21958 0.900998 7.22758 0.711998 8.32658 0.711998C9.41858 0.711998 10.3811 0.890498 11.2141 1.2475C12.0541 1.5975 12.7821 2.0665 13.3981 2.6545L12.5896 3.799C12.5336 3.876 12.4671 3.9425 12.3901 3.9985C12.3131 4.0545 12.2081 4.0825 12.0751 4.0825C11.9351 4.0825 11.7741 4.0195 11.5921 3.8935C11.4171 3.7605 11.1896 3.617 10.9096 3.463C10.6366 3.302 10.2901 3.1585 9.87008 3.0325C9.45708 2.8995 8.93908 2.833 8.31608 2.833C7.59508 2.833 6.93358 2.959 6.33158 3.211C5.72958 3.463 5.21158 3.8305 4.77758 4.3135C4.34358 4.7965 4.00408 5.3845 3.75908 6.0775C3.52108 6.7705 3.40208 7.558 3.40208 8.44C3.40208 9.329 3.52808 10.1235 3.78008 10.8235C4.03208 11.5165 4.37858 12.1045 4.81958 12.5875C5.26058 13.0635 5.77858 13.4275 6.37358 13.6795C6.96858 13.9315 7.60908 14.0575 8.29508 14.0575C8.71508 14.0575 9.08958 14.0365 9.41858 13.9945C9.75458 13.9455 10.0626 13.872 10.3426 13.774C10.6226 13.669 10.8851 13.5395 11.1301 13.3855C11.3821 13.2315 11.6306 13.0425 11.8756 12.8185C12.0156 12.6925 12.1556 12.6295 12.2956 12.6295ZM27.9734 0.879998L21.8414 16H19.6259L13.4939 0.879998H15.4574C15.6744 0.879998 15.8494 0.935999 15.9824 1.048C16.1154 1.153 16.2169 1.286 16.2869 1.447L20.1824 11.3065C20.3924 11.8595 20.5849 12.4965 20.7599 13.2175C20.8369 12.8605 20.9174 12.521 21.0014 12.199C21.0924 11.877 21.1904 11.5795 21.2954 11.3065L25.1804 1.447C25.2364 1.307 25.3344 1.1775 25.4744 1.0585C25.6144 0.939498 25.7894 0.879998 25.9994 0.879998H27.9734Z" fill="white" fill-opacity="0.93"/>
</svg>
