<svg width="26" height="26" viewBox="0 0 26 26" fill="none" xmlns="http://www.w3.org/2000/svg">
<g id="html5 1">
<path id="Vector" d="M3.60547 23.3594L1.52344 0H24.4258L22.3438 23.3594L12.9492 26" fill="#E34F26"/>
<path id="Vector_2" d="M13 23.9688L20.5664 21.8867L22.3438 1.87891H13" fill="#EF652A"/>
<path id="Vector_3" d="M13 10.5625H9.19141L8.9375 7.61719H13V4.77344H5.78906L6.55078 13.457H13V10.5625ZM12.9492 18.0273L9.75 17.1641L9.54688 14.8789H6.70312L7.05859 19.3984L12.9492 21.0234V18.0273Z" fill="#EBEBEB"/>
<path id="Vector_4" d="M12.9492 10.5625V13.457H16.5039L16.1484 17.1641L12.9492 18.0273V21.0234L18.8398 19.3984L19.6523 10.5625H12.9492ZM12.9492 4.77344V7.61719H19.9062L20.1602 4.77344H12.9492Z" fill="white"/>
</g>
</svg>
