<svg width="27" height="27" viewBox="0 0 27 27" fill="none" xmlns="http://www.w3.org/2000/svg">
<g id="js">
<path id="Vector" d="M26.7347 0H0.484741V26.25H26.7347V0Z" fill="#F5DE19"/>
<path id="Vector_2" d="M18.1182 20.5078C18.3418 20.9621 18.6893 21.344 19.1206 21.6094C19.5519 21.8748 20.0493 22.0129 20.5557 22.0078C21.5776 22.0078 22.231 21.4969 22.231 20.7891C22.231 19.9453 21.5597 19.6434 20.4347 19.1512L19.8179 18.8869C18.0366 18.1284 16.8554 17.1787 16.8554 15.1706C16.8554 13.3209 18.2616 11.9119 20.4676 11.9119C21.1817 11.8603 21.8951 12.0201 22.519 12.3714C23.1429 12.7227 23.6495 13.2499 23.9757 13.8872L22.0472 15.12C21.9216 14.804 21.7029 14.5336 21.4201 14.3448C21.1374 14.1559 20.8038 14.0575 20.4638 14.0625C20.3155 14.0476 20.1656 14.0639 20.0239 14.1101C19.8822 14.1564 19.7516 14.2316 19.6406 14.3311C19.5295 14.4306 19.4404 14.5521 19.379 14.688C19.3175 14.8238 19.285 14.9709 19.2835 15.12C19.2835 15.8597 19.7419 16.1597 20.8004 16.62L21.4172 16.8844C23.5135 17.7834 24.6985 18.6994 24.6985 20.7591C24.6985 22.98 22.9538 24.1969 20.611 24.1969C19.6982 24.255 18.788 24.0478 17.9903 23.6001C17.1927 23.1525 16.5416 22.4835 16.1157 21.6741L18.1182 20.5078ZM9.40412 20.7216C9.79131 21.4088 10.1438 21.99 10.9913 21.99C11.8013 21.99 12.3132 21.6731 12.3132 20.4403V12.0525H14.7797V20.4731C14.7797 23.0269 13.2797 24.1894 11.0963 24.1894C10.3245 24.2316 9.55801 24.0392 8.89758 23.6376C8.23714 23.2361 7.71367 22.644 7.396 21.9394L9.40412 20.7216Z" fill="black"/>
</g>
</svg>
