<svg width="26" height="26" viewBox="0 0 26 26" fill="none" xmlns="http://www.w3.org/2000/svg">
<path fill-rule="evenodd" clip-rule="evenodd" d="M22.1561 22.1544H18.2999V16.1208C18.2999 14.6819 18.2756 12.831 16.2963 12.831C14.2903 12.831 13.9839 14.3991 13.9839 16.0176V22.1544H10.1319V9.74675H13.8288V11.4432H13.8816C14.3959 10.4674 15.6536 9.43881 17.5297 9.43881C21.4346 9.43881 22.1561 12.0079 22.1561 15.3498V22.1544ZM5.78419 8.05188C4.54513 8.05188 3.54656 7.05006 3.54656 5.81506C3.54656 4.58088 4.54513 3.57906 5.78419 3.57906C7.01756 3.57906 8.01938 4.58088 8.01938 5.81506C8.01938 7.05006 7.01756 8.05188 5.78419 8.05188ZM7.71306 22.1544H3.85287V9.74675H7.71306V22.1544ZM24.9169 0H1.08388C0.485062 0 0 0.485063 0 1.08306V24.9161C0 25.5149 0.485062 26 1.08388 26H24.9169C25.5149 26 26 25.5149 26 24.9161V1.08306C26 0.485063 25.5149 0 24.9169 0Z" fill="white" fill-opacity="0.93"/>
</svg>
