<svg width="19" height="13" viewBox="0 0 19 13" fill="none" xmlns="http://www.w3.org/2000/svg">
<path id="live-icon" d="M18.3182 9.45455H17.7273V1.77273C17.7273 1.30257 17.5405 0.851671 17.2081 0.51922C16.8756 0.186769 16.4247 0 15.9545 0L2.95455 0C2.48439 0 2.03349 0.186769 1.70104 0.51922C1.36859 0.851671 1.18182 1.30257 1.18182 1.77273V9.45455H0.590909C0.43419 9.45455 0.28389 9.5168 0.173073 9.62762C0.0622563 9.73843 0 9.88873 0 10.0455L0 11.2273C0 11.6974 0.186769 12.1483 0.51922 12.4808C0.851671 12.8132 1.30257 13 1.77273 13H17.1364C17.6065 13 18.0574 12.8132 18.3899 12.4808C18.7223 12.1483 18.9091 11.6974 18.9091 11.2273V10.0455C18.9091 9.88873 18.8468 9.73843 18.736 9.62762C18.6252 9.5168 18.4749 9.45455 18.3182 9.45455ZM17.1364 11.8182H1.77273C1.61601 11.8182 1.46571 11.7559 1.35489 11.6451C1.24407 11.5343 1.18182 11.384 1.18182 11.2273V10.6364H6.5C6.65672 10.6364 6.80702 10.5741 6.91784 10.4633C7.02865 10.3525 7.09091 10.2022 7.09091 10.0455C7.09091 9.88873 7.02865 9.73843 6.91784 9.62762C6.80702 9.5168 6.65672 9.45455 6.5 9.45455H2.36364V1.77273C2.36364 1.61601 2.42589 1.46571 2.53671 1.35489C2.64753 1.24407 2.79783 1.18182 2.95455 1.18182H15.9545C16.1113 1.18182 16.2616 1.24407 16.3724 1.35489C16.4832 1.46571 16.5455 1.61601 16.5455 1.77273V9.45455H12.4091C12.2524 9.45455 12.1021 9.5168 11.9913 9.62762C11.8804 9.73843 11.8182 9.88873 11.8182 10.0455C11.8182 10.2022 11.8804 10.3525 11.9913 10.4633C12.1021 10.5741 12.2524 10.6364 12.4091 10.6364H17.7273V11.2273C17.7273 11.384 17.665 11.5343 17.5542 11.6451C17.4434 11.7559 17.2931 11.8182 17.1364 11.8182ZM10.6364 10.0455C10.6364 10.2022 10.5741 10.3525 10.4633 10.4633C10.3525 10.5741 10.2022 10.6364 10.0455 10.6364H8.86364C8.70692 10.6364 8.55662 10.5741 8.4458 10.4633C8.33498 10.3525 8.27273 10.2022 8.27273 10.0455C8.27273 9.88873 8.33498 9.73843 8.4458 9.62762C8.55662 9.5168 8.70692 9.45455 8.86364 9.45455H10.0455C10.2022 9.45455 10.3525 9.5168 10.4633 9.62762C10.5741 9.73843 10.6364 9.88873 10.6364 10.0455ZM12.4091 6.15727L13.1773 6.91364C13.2303 6.97016 13.2944 7.01522 13.3655 7.04602C13.4367 7.07681 13.5134 7.0927 13.5909 7.0927C13.6684 7.0927 13.7451 7.07681 13.8163 7.04602C13.8874 7.01522 13.9515 6.97016 14.0045 6.91364C14.0611 6.86058 14.1061 6.79651 14.1369 6.72537C14.1677 6.65422 14.1836 6.57752 14.1836 6.5C14.1836 6.42248 14.1677 6.34578 14.1369 6.27463C14.1061 6.20349 14.0611 6.13942 14.0045 6.08636L13.2482 5.31818L14.0045 4.55C14.0791 4.4935 14.1397 4.42074 14.1818 4.33727C14.1876 4.31 14.1876 4.28182 14.1818 4.25455C14.1874 4.21139 14.1874 4.1677 14.1818 4.12455C14.1818 4.12455 14.1818 4.05364 14.1818 4.01818C14.1868 3.9829 14.1868 3.9471 14.1818 3.91182C14.1818 3.91182 14.1818 3.84091 14.1109 3.80545C14.04 3.77 14.1109 3.80545 14.1109 3.73455L14.0164 3.66364L13.7918 3.54545L10.2464 2.36364H9.82091H9.71455L9.63182 2.43455L9.56091 2.51727L9.45455 2.73C9.44188 2.76432 9.44188 2.80204 9.45455 2.83636C9.44872 2.87554 9.44872 2.91537 9.45455 2.95455C9.44872 2.99372 9.44872 3.03355 9.45455 3.07273C9.44902 3.09604 9.44902 3.12032 9.45455 3.14364L10.6364 6.68909C10.6682 6.76916 10.7165 6.84164 10.7782 6.90182H10.8373C10.9386 7.01197 11.078 7.07955 11.2273 7.09091C11.2898 7.1022 11.3538 7.1022 11.4164 7.09091H11.5227L11.6173 7.02L12.4091 6.15727ZM11.4873 5.40091L10.9791 3.88818L12.4918 4.39636L11.4873 5.40091Z" fill="white" stroke="white" stroke-width="0.00256"/>
</svg>
