<svg width="36" height="27" viewBox="0 0 36 27" fill="none" xmlns="http://www.w3.org/2000/svg">
<path id="Vector" d="M30.8908 15.4657C29.7642 15.4672 28.6527 15.7248 27.6403 16.2191C27.3233 15.6931 27.0785 15.1268 26.9125 14.5356C26.8172 14.0721 26.7951 13.5965 26.8472 13.1262C26.9567 12.6087 27.0988 12.0986 27.2726 11.5989C27.2662 11.5336 27.1944 11.2248 26.4731 11.2146C25.7517 11.2043 25.1303 11.3516 25.0637 11.5426C24.9384 11.8912 24.8378 12.2483 24.7626 12.6111C24.1656 14.0839 23.4307 15.497 22.5678 16.8316C22.0844 16.039 21.8855 15.1053 22.0041 14.1845C22.1136 13.667 22.2557 13.1569 22.4294 12.6572C22.423 12.5919 22.3513 12.2831 21.6299 12.2729C20.9086 12.2626 20.2872 12.41 20.2206 12.6009C20.1539 12.7918 20.0694 13.2415 19.9195 13.6694C19.7696 14.0974 18.0194 18.0077 17.5607 19.0161C17.3249 19.5286 17.1212 19.9463 16.9777 20.2281C16.9709 20.2465 16.9623 20.264 16.9521 20.2807C16.824 20.5228 16.7561 20.6548 16.7561 20.6548V20.6612C16.6574 20.838 16.5523 21.002 16.4998 21.002C16.4082 20.636 16.4126 20.2525 16.5126 19.8886C16.7689 18.5318 17.3967 16.4228 17.3903 16.3498C17.3903 16.3101 17.5082 15.9436 16.9841 15.754C16.8626 15.6962 16.7261 15.6775 16.5935 15.7004C16.4609 15.7233 16.3386 15.7868 16.2436 15.8821C16.1974 15.8821 16.1654 15.9936 16.1654 15.9936C16.1654 15.9936 16.7356 13.622 15.0776 13.622C14.432 13.7519 13.8189 14.0096 13.2743 14.3799C12.7297 14.7502 12.2647 15.2257 11.9065 15.7784C11.4607 16.0205 10.5113 16.5381 9.49522 17.0955C9.11085 17.312 8.70854 17.5286 8.33569 17.7361C8.31007 17.7105 8.28316 17.6772 8.25754 17.6516C6.23957 15.5016 2.53035 13.9846 2.69051 11.1082C2.74944 10.0601 3.10947 7.30802 9.81297 3.96524C15.33 1.24643 19.7209 1.9998 20.4807 3.67055C21.5684 6.05624 18.1283 10.4855 12.428 11.1274C11.7974 11.2554 11.1461 11.2399 10.5222 11.0822C9.89837 10.9246 9.31794 10.6287 8.82385 10.2165C8.52276 9.88846 8.47663 9.86924 8.36516 9.93459C8.18194 10.0332 8.29982 10.3279 8.36516 10.4983C8.58262 10.8919 8.87675 11.2378 9.23017 11.5158C9.58359 11.7937 9.98914 11.998 10.4228 12.1166C12.6653 12.6011 15.0034 12.3694 17.1071 11.4541C20.5665 10.1178 23.2571 6.40218 22.4679 3.29002C21.6748 0.131742 16.4332 -0.909914 11.4722 0.855648C8.36484 1.90124 5.49366 3.5482 3.02235 5.70262C0.289443 8.25871 -0.142338 10.4791 0.034474 11.4106C0.675099 14.7136 5.22482 16.8623 7.04547 18.4575C6.95322 18.51 6.86866 18.5561 6.79691 18.5946C5.88594 19.0468 2.41376 20.8624 1.54379 22.7817C0.561068 24.9598 1.70138 26.5165 2.45476 26.7266C3.58995 26.9984 4.78167 26.9089 5.86353 26.4706C6.9454 26.0324 7.86343 25.2672 8.48944 24.282C9.02252 23.4649 9.3502 22.531 9.44456 21.5599C9.53893 20.5888 9.39719 19.6093 9.03141 18.7047C9.02523 18.6901 9.01656 18.6767 9.00579 18.665L9.71944 18.2461C10.1845 17.9706 10.6432 17.7156 11.0366 17.5055C10.7698 18.2748 10.6133 19.078 10.5715 19.8912C10.4809 21.1375 10.8623 22.3724 11.64 23.3506C11.7584 23.4524 11.8958 23.5298 12.0442 23.5782C12.1927 23.6266 12.3492 23.645 12.5049 23.6324C13.2736 23.6324 13.626 22.9918 14.0116 22.2307C14.4831 21.3006 14.9085 20.2192 14.9085 20.2192C14.9085 20.2192 14.3781 23.1417 15.8195 23.1417C16.3435 23.1417 16.8739 22.4601 17.111 22.1167V22.1231C17.111 22.1231 17.1238 22.1039 17.1507 22.0578L17.2353 21.9207V21.9079C17.4454 21.5414 17.9169 20.7086 18.6177 19.3261C19.5223 17.5439 20.3935 15.3158 20.3935 15.3158C20.4776 15.8055 20.5936 16.2891 20.7408 16.7636C20.9518 17.3388 21.2013 17.8992 21.4877 18.4408C21.2776 18.7355 21.1469 18.8995 21.1469 18.8995L21.1533 18.9059C20.9829 19.1288 20.7997 19.371 20.596 19.6067C19.9899 20.2731 19.4275 20.978 18.9124 21.717C18.8359 21.8411 18.8096 21.9897 18.8389 22.1326C18.8681 22.2754 18.9508 22.4017 19.07 22.4857C19.3397 22.6261 19.6472 22.6768 19.9477 22.6305C20.4005 22.6049 20.8458 22.5031 21.2648 22.3294C21.6697 22.1869 22.0517 21.9862 22.3987 21.7336C22.7565 21.4858 23.0444 21.15 23.2349 20.7587C23.4254 20.3674 23.5121 19.9336 23.4865 19.4991C23.4462 18.9518 23.3064 18.4165 23.0739 17.9193C23.1393 17.8271 23.202 17.7361 23.2635 17.6439C23.992 16.5566 24.6485 15.4228 25.229 14.2498C25.313 14.7395 25.429 15.2231 25.5762 15.6976C25.7502 16.1947 25.9645 16.6768 26.2168 17.1391C25.3788 17.7838 24.7187 18.6313 24.2988 19.6016C23.8862 20.7945 24.2065 21.3313 24.8113 21.4556C25.1422 21.4784 25.4731 21.4106 25.7684 21.2596C26.2026 21.1169 26.6116 20.9067 26.9804 20.6369C27.3694 20.4073 27.6951 20.0847 27.9284 19.698C28.1617 19.3113 28.2951 18.8727 28.3168 18.4216C28.2877 17.9713 28.186 17.5287 28.0157 17.1109C29.1215 16.6788 30.3206 16.5411 31.4956 16.7111C34.6141 17.0776 35.2304 19.0238 35.1125 19.8438C35.0573 20.1345 34.9404 20.41 34.7698 20.6517C34.5992 20.8935 34.3788 21.096 34.1234 21.2455C33.9069 21.3826 33.8351 21.4287 33.8544 21.5273C33.88 21.6721 33.9825 21.6644 34.1683 21.6388C34.6383 21.4927 35.053 21.2076 35.3576 20.821C35.6623 20.4345 35.8427 19.9646 35.8749 19.4735C35.9735 17.5516 34.1388 15.444 30.8947 15.4632L30.8908 15.4657ZM6.82894 23.5735C5.79369 24.701 4.35229 25.1264 3.7296 24.7663C3.06079 24.382 3.32344 22.7163 4.59444 21.5222C5.34839 20.8435 6.1633 20.2358 7.02882 19.7067C7.18001 19.6144 7.40294 19.4837 7.66944 19.3223L7.74119 19.2826L7.89879 19.1839C8.12586 19.9447 8.14645 20.7522 7.95844 21.5236C7.77044 22.295 7.38061 23.0025 6.82894 23.5735ZM14.364 18.4485C14.0039 19.3261 13.2506 21.5747 12.7919 21.4492C12.3985 21.3441 12.1513 19.6401 12.7137 17.9565C12.9977 17.146 13.4114 16.3871 13.9386 15.7092C14.5023 15.0801 15.125 14.87 15.2749 15.1262C15.1382 16.2728 14.8311 17.3925 14.364 18.4485ZM20.5819 21.4236C20.4307 21.5017 20.2872 21.5517 20.2218 21.5158C20.1757 21.4902 20.2872 21.3877 20.2872 21.3877C20.2872 21.3877 21.0675 20.5485 21.375 20.1692C21.5518 19.9463 21.7593 19.6849 21.9848 19.3889V19.4735C21.9848 20.4754 21.0149 21.1507 20.5832 21.4261L20.5819 21.4236ZM25.3789 20.3294C25.2674 20.2512 25.2866 19.9886 25.6608 19.1698C25.9209 18.644 26.2843 18.176 26.7293 17.7938C26.7975 17.9877 26.833 18.1917 26.8344 18.3972C26.8394 18.8348 26.6995 19.2618 26.4365 19.6115C26.1734 19.9613 25.802 20.2141 25.3802 20.3306L25.3789 20.3294Z" fill="#CD6799"/>
</svg>
